<svg xmlns="http://www.w3.org/2000/svg" width="40" height="40"><defs><clipPath id="clip-path"><path id="Rectangle_152" data-name="Rectangle 152" transform="translate(21 826)" d="M0 0h40v40H0z"/></clipPath></defs><g id="Mask_Group_99" data-name="Mask Group 99" transform="translate(-21 -826)" clip-path="url(#clip-path)"><g id="switch" transform="translate(21 826)"><g id="Group_245" data-name="Group 245" transform="translate(-4)"><path id="Rectangle_155" data-name="Rectangle 155" transform="translate(5.225 5.277)" d="M0 0h12.492v2.99H0z"/><path id="Path_415" data-name="Path 415" d="M29.417 14.33a.672.672 0 0 1-.209-.113L19.057 6.01v2.632l7.913 7.227a.67.67 0 0 1 .043.948.705.705 0 0 1-.076.054.667.667 0 0 1-.485.559 2.854 2.854 0 0 0-1.9 2.836 2.853 2.853 0 0 0 1.9 2.837.624.624 0 0 1 .16.072h2.8V14.33z"/><path id="Path_416" data-name="Path 416" d="M19.464 24.518h-1.231v1.046h11.184v-1.046h-9.953z"/><path id="Path_417" data-name="Path 417" d="M14.277 16.017h10.868l-7.018-6.409H6.173l6.714 6.714a3.351 3.351 0 0 1 1.39-.305z"/><path id="Path_418" data-name="Path 418" d="M17.562 23.177h6.663a4.683 4.683 0 0 1 0-5.819h-9.948a2.7 2.7 0 0 0-2.41 2.91 2.7 2.7 0 0 0 2.41 2.909z"/><path id="Path_419" data-name="Path 419" d="M24.021 34.2a.989.989 0 1 1-.989.989.989.989 0 0 1 .989-.989z"/><path id="Path_420" data-name="Path 420" d="M33.434 0H14.61a1.343 1.343 0 0 0-1.341 1.341v2.595h5.118c.029 0 .054.013.082.016a.664.664 0 0 1 .139.028.637.637 0 0 1 .123.065.6.6 0 0 1 .077.041l10.608 8.576V8.686a.671.671 0 0 1 1.341 0v20.9a.671.671 0 0 1-1.341 0v-2.68H17.562a.67.67 0 0 1-.671-.671v-1.717h-2.614a3.319 3.319 0 0 1-1.008-.161v14.3A1.343 1.343 0 0 0 14.61 40h18.824a1.343 1.343 0 0 0 1.341-1.341V1.341A1.342 1.342 0 0 0 33.434 0zm-9.413 6.6a2.33 2.33 0 1 1 2.33-2.33 2.332 2.332 0 0 1-2.33 2.33zm0 30.917a2.33 2.33 0 1 1 2.33-2.33 2.332 2.332 0 0 1-2.33 2.331z"/><path id="Path_421" data-name="Path 421" d="M24.021 3.282a.989.989 0 1 1-.989.989.989.989 0 0 1 .989-.989z"/></g></g></g></svg>