<svg id="Component_22_1" data-name="Component 22 – 1" xmlns="http://www.w3.org/2000/svg" width="30" height="30"><defs><clipPath id="clip-path"><path id="Rectangle_2" data-name="Rectangle 2" fill="#fff" d="M0 0h30v30H0z"/></clipPath></defs><path id="Path_137" data-name="Path 137" d="M26.7.861L49 0l-5.727 12.244H27.649z" transform="translate(-20 7)" fill="#fab800"/><g id="Mask_Group_1" data-name="Mask Group 1" clip-path="url(#clip-path)"><g id="shopping-cart_6_" data-name="shopping-cart (6)" transform="translate(0 .01)"><g id="Group_1" data-name="Group 1"><path id="Path_1" data-name="Path 1" d="M24.538 19.62a5.358 5.358 0 0 0 1.91-2.709L30 6.4H7.168l-.252-2.8A3.935 3.935 0 0 0 3 .014H0v2.342h3a1.585 1.585 0 0 1 1.583 1.455l1.833 20.323v.011a3.92 3.92 0 0 0 3.247 3.488 3.454 3.454 0 0 0 6.526.077h2.752a3.455 3.455 0 1 0 0-2.342H16.19a3.454 3.454 0 0 0-6.449-.132 1.587 1.587 0 0 1-.993-1.317l-.292-3.235h12.916a5.235 5.235 0 0 0 3.166-1.064zm-2.347 5.806a1.113 1.113 0 1 1-1.113 1.113 1.114 1.114 0 0 1 1.114-1.113zm-9.251 0a1.113 1.113 0 1 1-1.113 1.113 1.114 1.114 0 0 1 1.113-1.113zm-4.695-7.085l-.866-9.6h19.358l-2.512 7.437-.01.03a3.015 3.015 0 0 1-2.843 2.135z" transform="translate(0 -.014)"/></g></g></g></svg>