<svg xmlns="http://www.w3.org/2000/svg" width="40" height="40"><defs><clipPath id="clip-path"><path id="Rectangle_152" data-name="Rectangle 152" transform="translate(21 221)" d="M0 0h40v40H0z"/></clipPath></defs><g id="Mask_Group_93" data-name="Mask Group 93" transform="translate(-21 -221)" clip-path="url(#clip-path)"><g id="furniture-and-household_7_" data-name="furniture-and-household (7)" transform="translate(21.433 221.088)"><path id="Path_382" data-name="Path 382" d="M12.784 3.98h13.559A4.067 4.067 0 0 0 30.41-.088H8.717a4.067 4.067 0 0 0 4.067 4.068zm0 0"/><path id="Path_383" data-name="Path 383" d="M16.174 7.37V5.336H14.14v.678A1.36 1.36 0 0 0 15.5 7.37zm0 0"/><path id="Path_384" data-name="Path 384" d="M20.242 7.37h3.389a1.36 1.36 0 0 0 1.356-1.356v-.678H17.53V7.37h1.356v8.135c0 .014.008.027.008.04a5.424 5.424 0 0 0 .67 10.807c.095 0 .183 0 .278-.007a5.424 5.424 0 0 0 .393-10.8c0-.014.008-.026.008-.04zm0 10.847a.678.678 0 0 1-.678.678 2.04 2.04 0 0 0-2.034 2.034.678.678 0 1 1-1.356 0 3.39 3.39 0 0 1 3.39-3.389.678.678 0 0 1 .678.678zm0 0"/><path id="Path_385" data-name="Path 385" d="M33.8 15.505a5.424 5.424 0 1 0 0 10.847c.095 0 .183 0 .278-.007a5.424 5.424 0 0 0-.278-10.84zm0 3.39a2.04 2.04 0 0 0-2.034 2.034.678.678 0 1 1-1.356 0 3.39 3.39 0 0 1 3.39-3.389.678.678 0 0 1 0 1.356zm0 0"/><path id="Path_386" data-name="Path 386" d="M5.6 26.346a5.429 5.429 0 1 0-.278.007c.1 0 .183 0 .278-.007zm-2.307-5.417a.678.678 0 1 1-1.356 0 3.39 3.39 0 0 1 3.39-3.389.678.678 0 1 1 0 1.356 2.04 2.04 0 0 0-2.034 2.034zm0 0"/><path id="Path_387" data-name="Path 387" d="M31.766 27.4v.989a2.025 2.025 0 0 0 1.38 1.917.646.646 0 0 0-.024.117v1.7a6.44 6.44 0 1 1-12.881 0v-1.7a.646.646 0 0 0-.024-.117 2.024 2.024 0 0 0 1.38-1.917V27.4a6.787 6.787 0 0 1-4.068 0v.989a2.025 2.025 0 0 0 1.38 1.917.629.629 0 0 0-.024.117v1.7A6.44 6.44 0 1 1 6 32.115v-1.7a.629.629 0 0 0-.024-.117 2.025 2.025 0 0 0 1.38-1.917V27.4a6.787 6.787 0 0 1-4.068 0v.989A2.025 2.025 0 0 0 4.672 30.3a.628.628 0 0 0-.023.117v1.7a7.792 7.792 0 0 0 14.915 3.163 7.792 7.792 0 0 0 14.915-3.165v-1.7a.612.612 0 0 0-.023-.117 2.025 2.025 0 0 0 1.379-1.917V27.4a6.787 6.787 0 0 1-4.068 0zm0 0"/></g></g></svg>