<svg xmlns="http://www.w3.org/2000/svg" width="20" height="20"><defs><clipPath id="clip-path"><path id="Rectangle_40" data-name="Rectangle 40" transform="translate(1803 162)" fill="#fff" d="M0 0h20v20H0z"/></clipPath></defs><g id="Mask_Group_34" data-name="Mask Group 34" transform="translate(-1803 -162)" clip-path="url(#clip-path)"><g id="conversation" transform="translate(1803 162)"><path id="Path_111" data-name="Path 111" d="M14.172 6.466H5.828a.821.821 0 0 0 0 1.643h8.344a.821.821 0 1 0 0-1.643z"/><path id="Path_112" data-name="Path 112" d="M12.086 9.8H5.828a.821.821 0 1 0 0 1.643h6.258a.821.821 0 0 0 0-1.643z"/><path id="Path_113" data-name="Path 113" d="M19.109 2.4a.821.821 0 0 0-.474-.469C15.529.755 4.509.741 1.365 1.93a.821.821 0 0 0-.474.47A19.462 19.462 0 0 0 0 8.957a19.464 19.464 0 0 0 .891 6.558.821.821 0 0 0 .474.469 21.631 21.631 0 0 0 5.936.829l2.149 1.934a.821.821 0 0 0 1.1 0l2.15-1.935a21.636 21.636 0 0 0 5.936-.829.821.821 0 0 0 .474-.469A19.464 19.464 0 0 0 20 8.957a19.466 19.466 0 0 0-.891-6.557zM17.7 14.549a26.6 26.6 0 0 1-5.36.633.821.821 0 0 0-.517.21L10 17.03l-1.819-1.637a.821.821 0 0 0-.517-.21 26.6 26.6 0 0 1-5.36-.633 23.975 23.975 0 0 1 0-11.185 43.817 43.817 0 0 1 15.392 0 23.975 23.975 0 0 1 0 11.185z"/></g></g></svg>