<svg xmlns="http://www.w3.org/2000/svg" width="30" height="30"><defs><clipPath id="clip-path"><path id="Rectangle_4" data-name="Rectangle 4" fill="#fff" d="M0 0h30v30H0z"/></clipPath></defs><g id="Mask_Group_3" data-name="Mask Group 3" clip-path="url(#clip-path)"><g id="libra" transform="translate(.28)"><g id="Group_4" data-name="Group 4"><path id="Path_4" data-name="Path 4" d="M29.541 14.968l-3.963-6.056a1.1 1.1 0 0 0-1.071-.86H16.1V6.369a3.279 3.279 0 1 0-2.2 0v1.682H5.494a1.1 1.1 0 0 0-1.071.86L.459 14.968a1.113 1.113 0 0 0-.179.627 5.213 5.213 0 0 0 10.426 0 1.114 1.114 0 0 0-.179-.627l-3.09-4.721H13.9v12.891h-2.648a1.1 1.1 0 0 0-1.081.9l-.833 4.672A1.1 1.1 0 0 0 10.419 30h9.162a1.1 1.1 0 0 0 1.081-1.29l-.833-4.667a1.1 1.1 0 0 0-1.081-.9H16.1V10.246h6.464l-3.09 4.721a1.1 1.1 0 0 0-.179.627 5.213 5.213 0 0 0 10.426 0 1.112 1.112 0 0 0-.18-.626zm-26.86 1.7h5.625a3.021 3.021 0 0 1-5.625-.002zm4.9-2.2H3.407l2.086-3.188zM15 2.2a1.084 1.084 0 1 1-1.084 1.084A1.085 1.085 0 0 1 15 2.2zm2.829 23.138l.441 2.462h-6.54l.441-2.472zm6.677-14.049l2.086 3.188H22.42zm-2.812 5.383h5.624a3.021 3.021 0 0 1-5.624-.006z" transform="translate(-.28)"/></g></g></g></svg>