<svg xmlns="http://www.w3.org/2000/svg" width="20" height="20"><defs><clipPath id="clip-path"><path id="Rectangle_108" data-name="Rectangle 108" transform="translate(975 376)" fill="#fff" d="M0 0h20v20H0z"/></clipPath></defs><g id="Mask_Group_43" data-name="Mask Group 43" transform="translate(-975 -376)" opacity=".1" clip-path="url(#clip-path)"><g id="balance" transform="translate(975.187 376)"><g id="Group_83" data-name="Group 83" transform="translate(-.187 -1)"><g id="Group_82" data-name="Group 82"><path id="Path_148" data-name="Path 148" d="M13.774 19.14l-.555-3.111a.732.732 0 0 0-.72-.6h-5a.732.732 0 0 0-.72.6l-.553 3.111a.732.732 0 0 0 .72.86h6.108a.732.732 0 0 0 .72-.86z"/></g></g><g id="Group_85" data-name="Group 85" transform="translate(-.187)"><g id="Group_84" data-name="Group 84"><path id="Path_149" data-name="Path 149" d="M19.694 9.978l-2.642-4.037a.732.732 0 0 0-.714-.574h-5.606V4.246a2.186 2.186 0 1 0-1.463 0v1.122H3.662a.732.732 0 0 0-.714.574L.306 9.978a.743.743 0 0 0-.119.418 3.476 3.476 0 0 0 6.951 0 .743.743 0 0 0-.119-.418l-2.06-3.147h4.309v8.1a2.7 2.7 0 0 0 1.463 0v-8.1h4.309l-2.06 3.147a.743.743 0 0 0-.119.418 3.476 3.476 0 0 0 6.951 0 .745.745 0 0 0-.118-.418z"/></g></g></g></g></svg>