<svg xmlns="http://www.w3.org/2000/svg" width="20" height="20"><defs><clipPath id="clip-path"><path id="Rectangle_35" data-name="Rectangle 35" fill="#fff" stroke="#707070" stroke-width="1" d="M0 0h20v20H0z"/></clipPath></defs><g id="Mask_Group_30" data-name="Mask Group 30" opacity=".2" clip-path="url(#clip-path)"><g id="art" transform="translate(0 .002)"><path id="Path_100" data-name="Path 100" d="M12.433 5.356l.108-.108L20 12.709l-.107.107a28.251 28.251 0 0 0-4.279 5.484L14.6 20l-5.76-5.76.573-1.718-1.718.573-2.449-2.449L6.941 9.63a28.27 28.27 0 0 0 5.493-4.274zm0 0" transform="translate(-5.246)"/><path id="Path_101" data-name="Path 101" d="M1.658 2.348a1.174 1.174 0 0 1 1.658 0l1.405 1.405a1.172 1.172 0 0 0 1.845-.241l1.349-2.336a2.345 2.345 0 1 1 3.2 3.2L8.782 5.729a1.171 1.171 0 0 0-.242 1.843l1.406 1.407a1.171 1.171 0 0 1 0 1.657l-1.658 1.658L0 4.005zm8.288.829l.829-.829-.829-.829-.829.829zm0 0" transform="translate(7.709)"/></g></g></svg>