<svg xmlns="http://www.w3.org/2000/svg" width="40" height="40"><defs><clipPath id="clip-path"><path id="Rectangle_152" data-name="Rectangle 152" transform="translate(21 386)" d="M0 0h40v40H0z"/></clipPath></defs><g id="Mask_Group_86" data-name="Mask Group 86" transform="translate(-21 -386)" clip-path="url(#clip-path)"><g id="lamp_17_" data-name="lamp (17)" transform="translate(30.657 386.088)"><path id="Path_317" data-name="Path 317" d="M20.274 4.733a.115.115 0 0 1-.049.007h-2.3a.69.69 0 0 1 0-1.379h2.241L19.957.547a.69.69 0 0 0-.69-.635H1.419a.69.69 0 0 0-.69.635L.515 3.361h14.656a.69.69 0 0 1 0 1.379H.46a.115.115 0 0 1-.048-.007L-.636 18.478a.7.7 0 0 0 .69.745h20.579a.7.7 0 0 0 .69-.745zm0 0"/><path id="Path_318" data-name="Path 318" d="M12.378 25.692h.034l-.69-5.09H8.964l-.69 5.09h.034a8.27 8.27 0 0 0-3.441 14.22h10.952a8.27 8.27 0 0 0-3.441-14.22zm-2.994 3.276a4.828 4.828 0 0 0-2.807 7.759.69.69 0 1 1-1.083.855 6.238 6.238 0 0 1-.794-6.476 6.127 6.127 0 0 1 4.421-3.49.69.69 0 1 1 .262 1.352zm0 0"/></g></g></svg>