<svg xmlns="http://www.w3.org/2000/svg" width="40" height="40"><defs><clipPath id="clip-path"><path id="Rectangle_153" data-name="Rectangle 153" transform="translate(21 991)" d="M0 0h40v40H0z"/></clipPath></defs><g id="Mask_Group_97" data-name="Mask Group 97" transform="translate(-21 -991)" clip-path="url(#clip-path)"><path id="wire" d="M40 28.986l-2.422-4.1v-4.964h-2.344v-3.4a11.719 11.719 0 1 0-23.434-.116v1.172a8.213 8.213 0 0 0 8.2 8.2 8.117 8.117 0 0 0 3.406-.763 9.34 9.34 0 0 1-16.3-6.268h2.347v-4.959l2.344-4.1v-5H9.453V0H7.109v4.688H4.766V0H2.422v4.688H0v5l2.422 4.1v4.962h2.344a11.719 11.719 0 1 0 23.434-.111v-1.061a8.213 8.213 0 0 0-8.2-8.2 8.117 8.117 0 0 0-3.406.763 9.34 9.34 0 0 1 16.3 6.268v3.516h-2.347v4.962l-2.344 4.1v5h2.344v4.688h2.344v-4.691h2.344v4.688h2.344v-4.688H40zM25.859 17.539A5.859 5.859 0 1 1 20 11.68a5.866 5.866 0 0 1 5.859 5.859zm0 0" transform="translate(21 991.664)"/></g></svg>