<svg xmlns="http://www.w3.org/2000/svg" width="30" height="30"><defs><clipPath id="clip-path"><path id="Rectangle_129" data-name="Rectangle 129" transform="translate(500 387)" fill="#0a0a0a" d="M0 0h30v30H0z"/></clipPath></defs><g id="Mask_Group_56" data-name="Mask Group 56" transform="translate(-500 -387)" clip-path="url(#clip-path)"><g id="mail_1_" data-name="mail (1)" transform="translate(500 387)"><g id="Group_112" data-name="Group 112"><g id="Group_111" data-name="Group 111"><path id="Path_208" data-name="Path 208" d="M15 3.516a6.151 6.151 0 0 0-3.311 11.336 6.279 6.279 0 0 0 6.119.334.879.879 0 0 0-.735-1.6 4.554 4.554 0 0 1-4.436-.217 4.394 4.394 0 1 1 6.758-3.7.879.879 0 0 1-1.758.013v-.013a2.641 2.641 0 1 0-.879 1.963 2.635 2.635 0 0 0 4.395-1.963A6.159 6.159 0 0 0 15 3.516zm.867 6.293a.877.877 0 1 1 .006-.241.88.88 0 0 0-.006.241z"/></g></g><g id="Group_114" data-name="Group 114"><g id="Group_113" data-name="Group 113"><path id="Path_209" data-name="Path 209" d="M28.184 11.542a.885.885 0 0 0-.257-.62l-3.259-3.259V.879A.879.879 0 0 0 23.789 0H6.211a.879.879 0 0 0-.879.879v6.784l-3.258 3.258-.009.01a.883.883 0 0 0-.249.611v15.821A2.64 2.64 0 0 0 4.453 30h21.094a2.639 2.639 0 0 0 2.637-2.637V11.542zm-3.516-1.392l1.394 1.394-1.394 1.394zM7.09 8.028v-6.27h15.82v12.936l-4.759 4.759h-6.3L7.09 14.695zm-1.758 2.121v2.788l-1.394-1.394zM3.574 27V13.665l6.667 6.667zm1.243 1.243l7.031-7.031h6.3l7.031 7.031zM26.426 27l-6.667-6.667 6.667-6.667z"/></g></g></g></g></svg>