<svg xmlns="http://www.w3.org/2000/svg" width="20" height="12"><defs><clipPath id="clip-path"><path id="Rectangle_142" data-name="Rectangle 142" transform="translate(323 855)" d="M0 0h20v12H0z"/></clipPath></defs><g id="Mask_Group_73" data-name="Mask Group 73" transform="translate(-323 -855)" opacity=".2" clip-path="url(#clip-path)"><g id="visibility_2_" data-name="visibility (2)" transform="translate(323 850.833)"><g id="Group_214" data-name="Group 214"><path id="Path_259" data-name="Path 259" d="M19.926 9.763c-.157-.228-3.942-5.6-9.926-5.6C4.866 4.167.291 9.5.1 9.731a.416.416 0 0 0 0 .538c.192.227 4.767 5.564 9.9 5.564s9.709-5.337 9.9-5.564a.418.418 0 0 0 .026-.506zM10 13.333A3.333 3.333 0 1 1 13.334 10 3.337 3.337 0 0 1 10 13.333z"/></g></g></g></svg>