<svg xmlns="http://www.w3.org/2000/svg" width="30" height="30"><defs><clipPath id="clip-path"><path id="Rectangle_5" data-name="Rectangle 5" fill="#fff" d="M0 0h30v30H0z"/></clipPath></defs><g id="Mask_Group_4" data-name="Mask Group 4" clip-path="url(#clip-path)"><path id="user_5_" data-name="user (5)" d="M21.924.029A11.118 11.118 0 0 0 15 2.439 11.119 11.119 0 0 0 8.076.029c-9.846 0-13.8 17.643 6.489 25.734a1.175 1.175 0 0 0 .87 0C35.733 17.669 31.761.029 21.924.029zM15 23.407a29.364 29.364 0 0 1-5.915-3.217 12.687 12.687 0 0 1 11.829 0A29.37 29.37 0 0 1 15 23.407zm-3.442-10.469A3.442 3.442 0 1 1 15 16.38a3.446 3.446 0 0 1-3.442-3.442zm11.315 5.669a14.9 14.9 0 0 0-3.716-1.645 5.789 5.789 0 1 0-8.315 0 14.9 14.9 0 0 0-3.716 1.645c-8.052-7.354-4.72-16.231.949-16.231a8.7 8.7 0 0 1 4.436 1.2 7.577 7.577 0 0 1 1.616 1.23 1.165 1.165 0 0 0 1.745 0 8.592 8.592 0 0 1 6.05-2.426c5.689 0 8.986 8.891.949 16.231zm0 0" transform="translate(0 2.062)"/></g></svg>