<svg xmlns="http://www.w3.org/2000/svg" width="30" height="30"><defs><clipPath id="clip-path"><path id="Rectangle_174" data-name="Rectangle 174" transform="translate(210 9)" fill="#fff" d="M0 0h30v30H0z"/></clipPath></defs><g id="Mask_Group_104" data-name="Mask Group 104" transform="rotate(90 124.5 -85.5)" clip-path="url(#clip-path)"><g id="settings" transform="translate(210 9)"><g id="Group_255" data-name="Group 255"><path id="Path_444" data-name="Path 444" d="M15.874 14.622V.843a.843.843 0 0 0-1.686 0v13.779a4.282 4.282 0 0 0 0 8.395v6.134a.843.843 0 1 0 1.686 0v-6.134a4.282 4.282 0 0 0 0-8.395zm-.843 6.79a2.592 2.592 0 1 1 2.592-2.592 2.594 2.594 0 0 1-2.592 2.592z"/><path id="Path_445" data-name="Path 445" d="M5.55 7.552V.843a.843.843 0 1 0-1.686 0v6.709a4.282 4.282 0 0 0 0 8.395v13.2a.843.843 0 1 0 1.686 0V15.94a4.278 4.278 0 0 0 0-8.389zm-.843 6.79A2.592 2.592 0 1 1 7.3 11.749a2.594 2.594 0 0 1-2.594 2.592z"/><path id="Path_446" data-name="Path 446" d="M26.137 7.552V.843a.843.843 0 0 0-1.686 0v6.709a4.282 4.282 0 0 0 0 8.395v13.21a.843.843 0 0 0 1.686 0V15.94a4.278 4.278 0 0 0 0-8.389zm-.843 6.79a2.592 2.592 0 1 1 2.592-2.592 2.594 2.594 0 0 1-2.592 2.591z"/></g></g></g></svg>