<svg xmlns="http://www.w3.org/2000/svg" width="40" height="40"><defs><clipPath id="clip-path"><path id="Rectangle_152" data-name="Rectangle 152" transform="translate(21 936)" d="M0 0h40v40H0z"/></clipPath></defs><g id="Mask_Group_95" data-name="Mask Group 95" transform="translate(-21 -936)" clip-path="url(#clip-path)"><g id="chimney" transform="translate(21 937.055)"><path id="Path_389" data-name="Path 389" d="M14.123 33.59h11.754v4.3H14.123zm0 0"/><path id="Path_390" data-name="Path 390" d="M20 11.419a8.824 8.824 0 0 0-8.814 8.814v10.989h17.627V20.233A8.824 8.824 0 0 0 20 11.419zm0 18.25a5.456 5.456 0 0 1-5.45-5.45c0-2.445 3.113-8.605 3.737-9.816a1.185 1.185 0 0 1 2.23.414l.414 3.77.629-.847a1.185 1.185 0 0 1 2.055.279c.431 1.114 1.836 4.853 1.836 6.2A5.456 5.456 0 0 1 20 29.669zm0 0"/><path id="Path_391" data-name="Path 391" d="M37.851 33.59h-9.605v4.3h9.605a2.15 2.15 0 0 0 0-4.3zm0 0"/><path id="Path_392" data-name="Path 392" d="M21.033 22.422a1.185 1.185 0 0 1-2.128-.577l-.289-2.635a18.531 18.531 0 0 0-1.7 5.01 3.081 3.081 0 1 0 6.163 0 17.544 17.544 0 0 0-.929-3.3zm0 0"/><path id="Path_393" data-name="Path 393" d="M0 35.74a2.149 2.149 0 0 0 2.149 2.149h9.605v-4.3H2.149A2.15 2.15 0 0 0 0 35.74zm0 0"/><path id="Path_394" data-name="Path 394" d="M14.123 0h11.754v4.3H14.123zm0 0"/><path id="Path_395" data-name="Path 395" d="M37.851 0h-9.605v4.3h9.605A2.149 2.149 0 0 0 40 2.15 2.149 2.149 0 0 0 37.851 0zm0 0"/><path id="Path_396" data-name="Path 396" d="M36.737 31.222V6.668H3.263v24.554h5.555V20.233a11.182 11.182 0 1 1 22.364 0v10.989zm0 0"/><path id="Path_397" data-name="Path 397" d="M2.149 4.3h9.605V0H2.149a2.15 2.15 0 0 0 0 4.3zm0 0"/></g></g></svg>