<svg xmlns="http://www.w3.org/2000/svg" width="16" height="20"><defs><clipPath id="clip-path"><path id="Rectangle_33" data-name="Rectangle 33" fill="#fff" stroke="#707070" stroke-width="1" d="M0 0h16v20H0z"/></clipPath></defs><g id="Mask_Group_31" data-name="Mask Group 31" opacity=".2" clip-path="url(#clip-path)"><g id="lamp_6_" data-name="lamp (6)" transform="translate(.686)"><g id="Group_16" data-name="Group 16"><g id="Group_15" data-name="Group 15"><path id="Path_102" data-name="Path 102" d="M15.178 7.531a7.322 7.322 0 0 0-2.5-1.637V3.286h-2.092V0H9.414v3.286H7.325v2.608a7.357 7.357 0 0 0-4.639 6.234h14.628a7.288 7.288 0 0 0-2.136-4.597z" transform="translate(-2.686)"/></g></g><g id="Group_18" data-name="Group 18" transform="translate(6.729 17.604)"><g id="Group_17" data-name="Group 17"><path id="Rectangle_36" data-name="Rectangle 36" d="M0 0h1.172v2.396H0z"/></g></g><g id="Group_20" data-name="Group 20" transform="translate(10.07 16.031)"><g id="Group_19" data-name="Group 19"><path id="Rectangle_37" data-name="Rectangle 37" transform="rotate(-40.563 1.031 .381)" d="M0 0h1.172v2.397H0z"/></g></g><g id="Group_22" data-name="Group 22" transform="translate(2.11 16.032)"><g id="Group_21" data-name="Group 21"><path id="Rectangle_38" data-name="Rectangle 38" transform="rotate(-49.433 1.977 .91)" d="M0 0h2.396v1.172H0z"/></g></g><g id="Group_24" data-name="Group 24" transform="translate(3.845 13.286)"><g id="Group_23" data-name="Group 23"><path id="Path_103" data-name="Path 103" d="M6.533 13.3a3.521 3.521 0 0 0 6.934 0l-6.937-.014.003.014z" transform="translate(-6.53 -13.286)"/></g></g></g></g></svg>