<svg xmlns="http://www.w3.org/2000/svg" width="40" height="40"><defs><clipPath id="clip-path"><path id="Rectangle_152" data-name="Rectangle 152" transform="translate(21 331)" d="M0 0h40v40H0z"/></clipPath></defs><g id="Mask_Group_92" data-name="Mask Group 92" transform="translate(-21 -331)" clip-path="url(#clip-path)"><g id="lamp_18_" data-name="lamp (18)" transform="translate(21.081 331.088)"><path id="Path_375" data-name="Path 375" d="M16.471-.088h6.9V.6A2.068 2.068 0 0 1 21.3 2.671h-2.76A2.069 2.069 0 0 1 16.471.6zm0 0"/><path id="Path_376" data-name="Path 376" d="M23.366 13.014h-6.9a3.448 3.448 0 0 1 6.9 0zm0 0"/><path id="Path_377" data-name="Path 377" d="M16.471 14.393h6.9v3.447h-6.9zm0 0"/><path id="Path_378" data-name="Path 378" d="M38.922 28.039a3.465 3.465 0 0 0-2.234-2.579L28.6 22.612a6.937 6.937 0 0 1-3-2.09l-.51-.613H14.747l-.51.613a6.934 6.934 0 0 1-3 2.09L3.149 25.46a3.465 3.465 0 0 0-2.234 2.579l-.993 4.971h39.993zm-26.54-2.179L4.3 28.714l-.337 1.676a.69.69 0 0 1-.676.552 1.065 1.065 0 0 1-.138-.014.69.69 0 0 1-.538-.814l.331-1.669a1.406 1.406 0 0 1 .9-1.034l8.088-2.855a.69.69 0 0 1 .455 1.3zm0 0"/><path id="Path_379" data-name="Path 379" d="M24.745 18.53h-9.653a.689.689 0 1 1 0-1.379h9.654a.689.689 0 0 1 0 1.379zm0 0"/><path id="Path_380" data-name="Path 380" d="M26.676 34.389a6.9 6.9 0 0 1-13.515 0h2.124a4.482 4.482 0 0 0 4.634 3.448.689.689 0 1 0 0-1.379 3.108 3.108 0 0 1-3.193-2.069zm0 0"/><path id="Path_381" data-name="Path 381" d="M21.3 4.05v4.337a4.851 4.851 0 0 0-2.758 0V4.05zm0 0"/></g></g></svg>