<svg xmlns="http://www.w3.org/2000/svg" width="40" height="40"><defs><clipPath id="clip-path"><path id="Rectangle_152" data-name="Rectangle 152" transform="translate(21 496)" d="M0 0h40v40H0z"/></clipPath></defs><g id="Mask_Group_88" data-name="Mask Group 88" transform="translate(-21 -496)" clip-path="url(#clip-path)"><g id="furniture-and-household_5_" data-name="furniture-and-household (5)" transform="translate(21.088 496.787)"><path id="Path_336" data-name="Path 336" d="M29.912-.12h-20a.667.667 0 0 0-.667.667v10.666a.667.667 0 0 0 .667.667h20a.667.667 0 0 0 .667-.667V.546a.667.667 0 0 0-.667-.667zM12.579 9.213a.667.667 0 1 1-1.333 0v-4a.667.667 0 0 1 1.333 0zM12.526 2.8a.688.688 0 0 1-.14.22 1.085 1.085 0 0 1-.1.08.5.5 0 0 1-.12.06.431.431 0 0 1-.12.04.963.963 0 0 1-.134.013.7.7 0 0 1-.473-.193.682.682 0 0 1-.14-.22.665.665 0 1 1 1.28-.253.658.658 0 0 1-.053.253zm0 0"/><path id="Path_337" data-name="Path 337" d="M18.579 13.213h2.666v21.333h-2.666zm0 0"/><path id="Path_338" data-name="Path 338" d="M11.246 35.88h2.667v2.666h-2.667a.667.667 0 0 1-.666-.667v-1.333a.667.667 0 0 1 .666-.666zm0 0"/><path id="Path_339" data-name="Path 339" d="M29.246 36.546v1.334a.667.667 0 0 1-.666.667H15.246V35.88h13.333a.667.667 0 0 1 .666.666zm0 0"/><path id="Path_340" data-name="Path 340" d="M26.579 17.213a.667.667 0 0 1-.667-.667V11.88a.667.667 0 0 1 1.334 0v4.666a.667.667 0 0 1-.667.667zm0 0"/><path id="Path_341" data-name="Path 341" d="M26.579 19.88a2 2 0 1 1 2-2 2 2 0 0 1-2 2zm0 0"/><path id="Path_342" data-name="Path 342" d="M6.579 4.546a.657.657 0 0 1-.333-.088L1.579 1.792A.668.668 0 1 1 2.246.634L6.912 3.3a.667.667 0 0 1-.333 1.245zm0 0"/><path id="Path_343" data-name="Path 343" d="M1.912 12.546a.667.667 0 0 1-.333-1.246l4.667-2.666a.667.667 0 1 1 .661 1.157L2.24 12.458a.659.659 0 0 1-.328.088zm0 0"/><path id="Path_344" data-name="Path 344" d="M5.912 7.213H.579a.667.667 0 1 1 0-1.333h5.333a.667.667 0 0 1 0 1.333zm0 0"/><path id="Path_345" data-name="Path 345" d="M33.246 4.546a.667.667 0 0 1-.334-1.246L37.579.634a.668.668 0 1 1 .667 1.157l-4.667 2.667a.657.657 0 0 1-.333.088zm0 0"/><path id="Path_346" data-name="Path 346" d="M37.912 12.546a.658.658 0 0 1-.333-.088l-4.667-2.666a.667.667 0 1 1 .661-1.157L38.24 11.3a.667.667 0 0 1-.328 1.245zm0 0"/><path id="Path_347" data-name="Path 347" d="M39.246 7.213h-5.334a.667.667 0 0 1 0-1.333h5.333a.667.667 0 1 1 0 1.333zm0 0"/></g></g></svg>