<svg xmlns="http://www.w3.org/2000/svg" width="20" height="20"><defs><clipPath id="clip-path"><path id="Rectangle_42" data-name="Rectangle 42" fill="#fff" stroke="#707070" stroke-width="1" d="M527 175h20v20h-20z"/></clipPath></defs><g id="Mask_Group_35" data-name="Mask Group 35" transform="translate(-527 -175)" opacity=".1" clip-path="url(#clip-path)"><path id="heart_1_" data-name="heart (1)" d="M18.413 1.741a5.378 5.378 0 0 0-4-1.741 5.031 5.031 0 0 0-3.143 1.085A6.429 6.429 0 0 0 10 2.411a6.426 6.426 0 0 0-1.271-1.326A5.031 5.031 0 0 0 5.587 0a5.378 5.378 0 0 0-4 1.741A6.252 6.252 0 0 0 0 6.011a7.444 7.444 0 0 0 1.984 4.873 42.3 42.3 0 0 0 4.966 4.661 231.87 231.87 0 0 1 2.278 1.959 1.174 1.174 0 0 0 1.546 0c.81-.708 1.59-1.373 2.278-1.96a42.275 42.275 0 0 0 4.965-4.66A7.443 7.443 0 0 0 20 6.01a6.251 6.251 0 0 0-1.587-4.269zm0 0" transform="translate(527 176.103)"/></g></svg>