<svg xmlns="http://www.w3.org/2000/svg" width="15" height="20"><defs><clipPath id="clip-path"><path id="Rectangle_78" data-name="Rectangle 78" transform="translate(999 52)" fill="#fab800" d="M0 0h15v20H0z"/></clipPath></defs><g id="Mask_Group_252" data-name="Mask Group 252" transform="translate(-999 -52)" clip-path="url(#clip-path)"><path id="trending" d="M11.129 5.194a.586.586 0 0 0-1.087.3 1.3 1.3 0 1 1-2.594 0V.586a.586.586 0 0 0-1-.414 28.65 28.65 0 0 0-3.211 4.011 22.757 22.757 0 0 0-2.215 4.128A13.082 13.082 0 0 0 0 13.138a6.862 6.862 0 1 0 13.724 0 15.655 15.655 0 0 0-2.6-7.944z" transform="translate(1000.138 52)" fill="#fab800"/></g></svg>