<svg xmlns="http://www.w3.org/2000/svg" width="36" height="36.001"><path id="Path_138" data-name="Path 138" d="M18.355 36H18c-2.822.007-5.429-.065-7.965-.219a10.647 10.647 0 0 1-6.14-2.321 9.851 9.851 0 0 1-3.31-5.344 23.682 23.682 0 0 1-.543-5.655C.023 21.146 0 19.589 0 18.005s.023-3.148.041-4.462a23.684 23.684 0 0 1 .543-5.655 9.851 9.851 0 0 1 3.31-5.344A10.647 10.647 0 0 1 10.032.221C12.568.067 15.176-.005 18 0s5.429.065 7.965.219a10.647 10.647 0 0 1 6.137 2.323 9.85 9.85 0 0 1 3.31 5.344 23.683 23.683 0 0 1 .543 5.655C35.978 14.858 36 16.415 36 18v.007c0 1.584-.023 3.141-.041 4.455a23.67 23.67 0 0 1-.543 5.655 9.85 9.85 0 0 1-3.31 5.344 10.647 10.647 0 0 1-6.137 2.323c-2.428.148-4.923.22-7.614.22zM18 33.189c2.776.007 5.325-.063 7.8-.214a7.748 7.748 0 0 0 4.531-1.7 7.1 7.1 0 0 0 2.362-3.86 21.545 21.545 0 0 0 .456-5c.018-1.306.037-2.852.04-4.42s-.023-3.115-.04-4.42a21.549 21.549 0 0 0-.456-5 7.1 7.1 0 0 0-2.362-3.86 7.749 7.749 0 0 0-4.531-1.7c-2.476-.151-5.025-.22-7.795-.214s-5.325.063-7.8.214a7.749 7.749 0 0 0-4.531 1.7 7.1 7.1 0 0 0-2.362 3.86 21.548 21.548 0 0 0-.456 5c-.018 1.307-.037 2.854-.04 4.424s.023 3.11.04 4.417a21.545 21.545 0 0 0 .456 5 7.1 7.1 0 0 0 2.362 3.86 7.749 7.749 0 0 0 4.531 1.7c2.474.15 5.023.224 7.795.213zm-.067-6.4A8.789 8.789 0 1 1 26.719 18a8.8 8.8 0 0 1-8.789 8.791zm0-14.766A5.977 5.977 0 1 0 23.907 18a5.984 5.984 0 0 0-5.977-5.975zM27.7 6.4a2.109 2.109 0 1 0 2.109 2.109A2.109 2.109 0 0 0 27.7 6.4zm0 0" transform="translate(0 -.001)" fill="#fff"/></svg>