<svg xmlns="http://www.w3.org/2000/svg" width="20" height="20"><defs><clipPath id="clip-path"><path id="Rectangle_39" data-name="Rectangle 39" fill="#fff" stroke="#707070" stroke-width="1" d="M560 182h20v20h-20z"/></clipPath></defs><g id="Mask_Group_33" data-name="Mask Group 33" transform="translate(-560 -182)" clip-path="url(#clip-path)"><g id="living-room_3_" data-name="living-room (3)" transform="translate(560 182)"><g id="Group_35" data-name="Group 35"><g id="Group_34" data-name="Group 34"><path id="Path_109" data-name="Path 109" d="M14.975 8.131L14.142 4.8a.833.833 0 0 0-.808-.631h-.9A5 5 0 0 0 2.5 5v11.667a1.665 1.665 0 0 1-1.667 1.666.833.833 0 0 0 0 1.667 3.324 3.324 0 0 0 2.5-1.129A3.324 3.324 0 0 0 5.833 20a.833.833 0 1 0 0-1.667 1.665 1.665 0 0 1-1.667-1.667V5a3.334 3.334 0 0 1 6.562-.833H10a.833.833 0 0 0-.808.631l-.834 3.333a.833.833 0 0 0 .808 1.035h5a.833.833 0 0 0 .809-1.035zM10.234 7.5l.417-1.667h2.032L13.1 7.5z"/><path id="Path_110" data-name="Path 110" d="M19.167 7.5h-2.5a.833.833 0 0 0-.833.833v3.333h-5A.833.833 0 0 0 10 12.5v5a.833.833 0 0 0 .833.833h.833v.833a.833.833 0 1 0 1.667 0v-.833h3.333v.833a.833.833 0 0 0 1.667 0v-.833h.833A.833.833 0 0 0 20 17.5V8.333a.833.833 0 0 0-.833-.833zM17.5 9.167h.833v2.5H17.5zm.833 7.5h-6.666v-3.334h6.667v3.333z"/></g></g></g></g></svg>