<svg xmlns="http://www.w3.org/2000/svg" width="40" height="40"><defs><clipPath id="clip-path"><path id="Rectangle_152" data-name="Rectangle 152" transform="translate(21 771)" d="M0 0h40v40H0z"/></clipPath></defs><g id="Mask_Group_101" data-name="Mask Group 101" transform="translate(-21 -771)" clip-path="url(#clip-path)"><g id="pill" transform="translate(18.149 768.143)"><path id="Path_423" data-name="Path 423" d="M14.669 24.527a1.106 1.106 0 0 0 .315-.792 1.062 1.062 0 0 0-.337-.763 1.088 1.088 0 0 0-.776-.3h-.016a1.071 1.071 0 0 0-.783.318 1.084 1.084 0 0 0-.315.782 1.1 1.1 0 0 0 .337.778 1.115 1.115 0 0 0 1.575-.027z"/><path id="Path_424" data-name="Path 424" d="M19.47 19.59a1.107 1.107 0 1 0-.783.34 1.114 1.114 0 0 0 .783-.34z"/><path id="Path_425" data-name="Path 425" d="M17.406 35.681a1.113 1.113 0 1 0 .777.315 1.113 1.113 0 0 0-.777-.315z"/><path id="Path_426" data-name="Path 426" d="M29.072 9.716a1.114 1.114 0 1 0-1.575.022 1.114 1.114 0 0 0 1.575-.022z"/><path id="Path_427" data-name="Path 427" d="M9.07 27.586h-.016a1.084 1.084 0 0 0-.783.331 1.129 1.129 0 1 0 .8-.331z"/><path id="Path_428" data-name="Path 428" d="M23.488 14.99a1.106 1.106 0 0 0 .783-.337 1.111 1.111 0 0 0-.8-1.887h-.016a1.088 1.088 0 0 0-.783.336 1.113 1.113 0 0 0 .814 1.889z"/><path id="Path_429" data-name="Path 429" d="M27.008 25.807a1.113 1.113 0 1 0 .777.315 1.113 1.113 0 0 0-.777-.315z"/><path id="Path_430" data-name="Path 430" d="M22.207 30.744a1.11 1.11 0 0 0-.8.337 1.092 1.092 0 0 0 .8 1.862h.016a1.25 1.25 0 0 0 .81-.323v.007a1.221 1.221 0 0 0 .3-.788 1.11 1.11 0 0 0-.344-.781 1.124 1.124 0 0 0-.782-.314z"/><path id="Path_431" data-name="Path 431" d="M36.61 15.891h-.016a1.672 1.672 0 0 0-.783.358 1.132 1.132 0 0 0-.315.8 1.118 1.118 0 0 0 1.129 1.106 1.105 1.105 0 0 0 .783-.336 1.14 1.14 0 0 0-.022-1.6 1.126 1.126 0 0 0-.776-.336z"/><path id="Path_432" data-name="Path 432" d="M36.983 10.91l-1.783-.238a.536.536 0 0 1-.457-.438l-.318-1.809-4.8-4.669a3.155 3.155 0 0 0-2.2-.9h-.006a2.977 2.977 0 0 0-2.155.9l-21.4 22a3.169 3.169 0 0 0 .062 4.423l4.8 4.669 1.818.267a.536.536 0 0 1 .451.444l.287 1.774 4.832 4.7a3.016 3.016 0 0 0 4.3-.177l21.4-22a2.972 2.972 0 0 0 0-4.248zm-26.347 19.3a2.185 2.185 0 1 1-1.6-3.708h.031a2.185 2.185 0 0 1 1.566 3.708zM26.707 7.417a2.184 2.184 0 1 1 .043 3.09 2.184 2.184 0 0 1-.043-3.09zm-4.8 4.937a2.185 2.185 0 1 1 1.6 3.708h-.031a2.185 2.185 0 0 1-1.566-3.708zm-4.8 4.937a2.184 2.184 0 1 1 .043 3.09 2.184 2.184 0 0 1-.043-3.09zm-4.8 4.937a2.185 2.185 0 0 1 3.134 3.047 2.185 2.185 0 1 1-3.141-3.048zm6.669 16.09a2.17 2.17 0 0 1-1.536.662h-.031a2.185 2.185 0 1 1 1.567-.662zm4.8-4.937a2.17 2.17 0 0 1-1.536.661h-.031a2.185 2.185 0 1 1 1.567-.662zm4.8-4.937a2.179 2.179 0 1 1 .624-1.554 2.185 2.185 0 0 1-.621 1.554zm4.8-4.937A2.179 2.179 0 1 1 34 21.953a2.185 2.185 0 0 1-.621 1.554zm.6-11.323L12.472 34.3a.536.536 0 1 1-.768-.747l21.5-22.112a.536.536 0 1 1 .768.747zm4.2 6.386a2.171 2.171 0 0 1-1.536.662h-.031a2.185 2.185 0 1 1-.03-4.37h.032a2.185 2.185 0 0 1 1.566 3.708z"/><path id="Path_433" data-name="Path 433" d="M31.809 20.87a1.113 1.113 0 1 0 .776.315 1.113 1.113 0 0 0-.776-.315z"/></g></g></svg>