<svg xmlns="http://www.w3.org/2000/svg" width="40" height="40"><defs><clipPath id="clip-path"><path id="Rectangle_152" data-name="Rectangle 152" transform="translate(21 716)" d="M0 0h40v40H0z"/></clipPath></defs><g id="Mask_Group_91" data-name="Mask Group 91" transform="translate(-21 -716)" clip-path="url(#clip-path)"><g id="invention_2_" data-name="invention (2)" transform="translate(23.912 716.088)"><path id="Path_368" data-name="Path 368" d="M6.755 12.667L2.088 10a.668.668 0 0 0-.667 1.157l4.667 2.667a.658.658 0 0 0 .333.088.666.666 0 0 0 .334-1.245zm0 0"/><path id="Path_369" data-name="Path 369" d="M6.088 18l-4.667 2.667a.668.668 0 0 0 .667 1.157l4.667-2.667A.667.667 0 0 0 6.094 18zm0 0"/><path id="Path_370" data-name="Path 370" d="M6.421 15.912a.667.667 0 0 0-.666-.667H.422a.667.667 0 1 0 0 1.333h5.333a.666.666 0 0 0 .666-.666zm0 0"/><path id="Path_371" data-name="Path 371" d="M27.755 13.912a.658.658 0 0 0 .334-.088l4.666-2.667A.667.667 0 0 0 32.093 10l-4.666 2.667a.666.666 0 0 0 .328 1.245zm0 0"/><path id="Path_372" data-name="Path 372" d="M32.755 20.667L28.088 18a.667.667 0 1 0-.661 1.157l4.666 2.667a.66.66 0 0 0 .328.088.667.667 0 0 0 .333-1.246zm0 0"/><path id="Path_373" data-name="Path 373" d="M33.755 15.246h-5.333a.667.667 0 1 0 0 1.333h5.333a.667.667 0 1 0 0-1.333zm0 0"/><path id="Path_374" data-name="Path 374" d="M24.928 4.973l.02-.007a2.523 2.523 0 0 0 .333-.207c.06-.04.113-.087.167-.127a2.549 2.549 0 0 0 .626-.733 2.283 2.283 0 0 0 .107-.227 1.392 1.392 0 0 0 .073-.173c.006-.027.02-.053.027-.08a1.258 1.258 0 0 0 .066-.207l.02-.126a.428.428 0 0 0 .013-.047 3.218 3.218 0 0 0 .04-.513 1.661 1.661 0 0 0-.013-.187 1.872 1.872 0 0 0-.04-.273.544.544 0 0 0-.02-.1c0-.006-.007-.02-.007-.027-.027-.093-.06-.187-.093-.286-.006-.027-.02-.047-.026-.074a1.014 1.014 0 0 0-.08-.193c-.02-.033-.033-.067-.053-.093s-.04-.073-.06-.107a.967.967 0 0 0-.093-.133c-.04-.06-.087-.113-.127-.167s-.087-.1-.133-.153a1.842 1.842 0 0 0-.24-.22C25.422.5 25.4.486 25.388.473A1.807 1.807 0 0 0 25.135.3l-.007-.008a4.064 4.064 0 0 0-.287-.147.749.749 0 0 0-.113-.045.765.765 0 0 0-.133-.047c-.04-.013-.08-.027-.127-.04a.387.387 0 0 0-.08-.027l-.127-.02a1.3 1.3 0 0 0-.233-.033 1.781 1.781 0 0 0-.274-.02H10.422a2.667 2.667 0 1 0 0 5.333h2.033L9.361 6.8l-.113.053-.02.007a2.334 2.334 0 0 0-.327.2 1.524 1.524 0 0 0-.167.126c-.047.04-.093.08-.14.127l-.007.007a2.751 2.751 0 0 0-.387.447.212.212 0 0 1-.033.047 2.5 2.5 0 0 0-.12.226.276.276 0 0 0-.033.06l-.02.053-.02.04a1.182 1.182 0 0 0-.08.213c-.007.02-.013.047-.02.066a.744.744 0 0 0-.027.087.2.2 0 0 0-.013.06 2.165 2.165 0 0 0-.047.266c-.006.054-.02.107-.027.16a2.394 2.394 0 0 0 .047.72c.007.033.013.067.02.093 0 .007 0 .007.007.013a.093.093 0 0 0 .013.04 2.322 2.322 0 0 0 .08.26v.007a.446.446 0 0 0 .027.066 1.669 1.669 0 0 0 .073.173c0 .007.007.013.007.02.013.026.027.047.04.073a.417.417 0 0 0 .054.093.258.258 0 0 0 .06.087.84.84 0 0 0 .067.1 1.64 1.64 0 0 0 .127.173c.013.006.02.02.027.027a1.607 1.607 0 0 0 .18.187s.007.013.013.013c.06.053.12.107.18.153.02.013.033.027.053.04a1.433 1.433 0 0 0 .18.12.127.127 0 0 0 .04.027 1.3 1.3 0 0 0 .253.133.676.676 0 0 0 .1.047 1.732 1.732 0 0 0 .28.1.024.024 0 0 1 .02.006c.087.02.166.04.26.054.04.006.073.006.113.013a.162.162 0 0 0 .08.007.576.576 0 0 0 .153.013h.013a.48.48 0 0 0 .093.007h2.033l-3.092 1.556-.113.053-.02.006a3.419 3.419 0 0 0-.333.2c-.06.047-.113.087-.16.127a.784.784 0 0 0-.14.127l-.007.006a2.382 2.382 0 0 0-.54.72.8.8 0 0 0-.074.153 1 1 0 0 0-.067.18.055.055 0 0 0-.013.027.86.86 0 0 0-.033.12.5.5 0 0 0-.027.093 2.621 2.621 0 0 0-.047.273l-.02.127a2.378 2.378 0 0 0 .04.753c.007.033.013.067.02.094s.013.04.019.059a.434.434 0 0 0 .015.054c.02.066.04.133.067.2.007.027.02.047.027.074a.957.957 0 0 0 .08.193c.013.027.027.047.04.073a.417.417 0 0 0 .054.093.264.264 0 0 0 .047.074 1.006 1.006 0 0 0 .06.087c.054.08.114.153.173.226a2.531 2.531 0 0 0 .187.194l.02.02a1.348 1.348 0 0 0 .18.147 1.374 1.374 0 0 0 .227.16 1.7 1.7 0 0 0 .307.167 1.8 1.8 0 0 0 .266.1 1.892 1.892 0 0 0 .207.06.112.112 0 0 0 .047.006 1.234 1.234 0 0 0 .227.04.215.215 0 0 0 .093.006.631.631 0 0 0 .16.013.426.426 0 0 0 .093.007h2.033l-3.228 1.615a2.287 2.287 0 0 0-.52.353.374.374 0 0 0-.06.047.437.437 0 0 0-.06.054c-.013.013-.033.027-.047.04-.04.04-.08.08-.113.12a1.955 1.955 0 0 0-.147.18l-.04.06a1.5 1.5 0 0 0-.113.173c-.007.007-.007.013-.013.02a.98.98 0 0 0-.073.147c-.02.033-.033.073-.053.113s-.033.093-.053.14-.027.06-.04.093c0 .007-.007.02-.007.027v.007a1.851 1.851 0 0 0-.053.18.61.61 0 0 0-.027.106 1.9 1.9 0 0 0-.033.207v.013a.334.334 0 0 0-.007.08 3.232 3.232 0 0 0-.013.26 1.091 1.091 0 0 0 .013.207c.007.087.02.173.033.26.013.067.027.133.047.2a2.747 2.747 0 0 0 .187.493c.007.013.013.02.02.034l.02.04a.427.427 0 0 0 .054.093c.033.053.066.106.1.153a.214.214 0 0 0 .034.047l2.16 3.16v1.613a1.37 1.37 0 0 0 .447 1.02l1.553 1.58v3.733a2.008 2.008 0 0 0 1.426 1.914 3.407 3.407 0 0 0 3.24 2.753 3.407 3.407 0 0 0 3.24-2.753 2.009 2.009 0 0 0 1.427-1.914v-3.733l.473-.473a.051.051 0 0 0 .027-.027l.023-.024a2.733 2.733 0 0 0 .543-.561l.014-.015a.007.007 0 0 0 .006-.007l.467-.473a1.37 1.37 0 0 0 .447-1.02v-1.534l2.574-10.753.02-.073a.03.03 0 0 0 0-.033.051.051 0 0 0 .007-.033.05.05 0 0 0 .006-.033c.007-.02.007-.04.013-.053a.128.128 0 0 0 .007-.054c0-.007.006-.013.006-.02s.007-.033.007-.054v-.02a.208.208 0 0 0 .007-.067.042.042 0 0 0 .007-.027 1.628 1.628 0 0 0 .006-.313v-.073c0-.007 0-.007-.006-.013v-.1a.052.052 0 0 0-.007-.034v-.033a.1.1 0 0 0-.007-.047v-.013a.25.25 0 0 0-.013-.074.081.081 0 0 0-.007-.04.039.039 0 0 0-.006-.027.055.055 0 0 0-.007-.027v-.006c-.006-.02-.006-.04-.013-.06s-.007-.007-.007-.013a.038.038 0 0 0-.007-.027v-.013a.65.65 0 0 0-.02-.066c-.007-.02-.007-.04-.013-.053a.44.44 0 0 0-.02-.054.109.109 0 0 0-.02-.06v-.006a.019.019 0 0 0-.006-.013h-.007v-.007c.007-.007 0-.013-.006-.02a1.176 1.176 0 0 0-.053-.14c0-.007-.007-.013-.013-.02s0-.013-.007-.013a.024.024 0 0 0-.007-.02v-.007a.024.024 0 0 1-.006-.02c-.007-.013-.013-.02-.013-.027s-.013-.013-.013-.02a.806.806 0 0 0-.04-.073c0-.006-.007-.013-.007-.02a.348.348 0 0 1-.033-.053.684.684 0 0 0-.073-.113.1.1 0 0 0-.013-.02c-.027-.04-.054-.08-.08-.113 0-.006-.006-.013-.02-.02l-.04-.06c-.013-.013-.02-.027-.033-.033a.12.12 0 0 0-.027-.033l-.04-.04a.105.105 0 0 0-.02-.027H25.7v-.007h-.007v-.007h-.006l-.013-.02h-.007l-.007-.007c-.007-.013-.007-.02-.013-.02h-.006l-.06-.06c-.007-.013-.007-.02-.013-.013a.77.77 0 0 0-.106-.1c-.007-.006-.013-.013-.02-.013a.035.035 0 0 0-.027-.02c-.007-.007-.007-.013-.013-.013a.15.15 0 0 0-.06-.04l-.013-.013c-.007-.006-.02-.013-.027-.02a.123.123 0 0 0-.033-.02.1.1 0 0 0-.047-.034.483.483 0 0 0-.073-.046.022.022 0 0 0-.013-.007c-.02-.013-.027-.027-.047-.027l-.007-.007h-.013a.486.486 0 0 0-.08-.046 2.212 2.212 0 0 0-.22-.107h-.007c-.007-.007-.02-.007-.027-.013-.06-.027-.12-.047-.18-.067a.463.463 0 0 0-.054-.02l-.087-.02h-.027c-.007 0-.02-.007-.027-.007a.53.53 0 0 0-.106-.02.04.04 0 0 0-.027-.006c-.006-.007-.013-.007-.027-.007h-.046a.024.024 0 0 0-.02-.007h-.007c-.007 0-.013-.007-.02 0a.058.058 0 0 0-.033-.007c-.013 0-.033-.006-.047 0s-.02-.006-.027 0-.013-.006-.02-.006-.027-.007-.04 0a.468.468 0 0 0-.094-.007.311.311 0 0 0-.08-.007h-2.045l3.093-1.553.113-.053.02-.007a2.378 2.378 0 0 0 .326-.2 1.6 1.6 0 0 0 .167-.126 1.508 1.508 0 0 0 .24-.22.677.677 0 0 0 .066-.074c.054-.06.1-.12.147-.18a1.954 1.954 0 0 0 .127-.187c.04-.067.073-.133.107-.2a1.833 1.833 0 0 0 .093-.193c0-.007.007-.013.007-.02.02-.047.033-.1.053-.147a.16.16 0 0 0 .013-.053c.027-.08.047-.16.067-.24a2.844 2.844 0 0 0 .053-.347A2 2 0 0 0 26.408 9l-.008-.054a.254.254 0 0 0-.013-.1.137.137 0 0 0-.006-.053l-.02-.1a.127.127 0 0 0-.013-.06c-.026-.1-.06-.207-.1-.313-.006-.027-.02-.047-.026-.073a1.033 1.033 0 0 0-.08-.194c-.02-.033-.033-.066-.053-.093a.656.656 0 0 0-.066-.113.565.565 0 0 0-.04-.066c-.013-.02-.027-.034-.04-.054l-.087-.127a.091.091 0 0 1-.033-.04c-.013-.013-.02-.027-.033-.033-.033-.04-.06-.067-.093-.1a1.039 1.039 0 0 0-.12-.12.822.822 0 0 0-.14-.127 1.421 1.421 0 0 0-.26-.187c-.007-.007-.007-.007-.013-.007a.731.731 0 0 0-.173-.1 2.256 2.256 0 0 0-.22-.107 2.609 2.609 0 0 0-.3-.1 1.581 1.581 0 0 0-.307-.06.46.46 0 0 0-.133-.02.819.819 0 0 0-.18-.013.517.517 0 0 0-.1-.007h-2.03l3.093-1.553zm-6.46 21.606h-2.073l-2.04-2.98 5.48-2.74zm-6.666 2.4c-.013-.013-.027-.054-.047-.067v-1h10.667v1.02a.3.3 0 0 0-.047.047l-.493.5-.033.033-.533.547-.011.009-.009.013a.686.686 0 0 0-.085.1l-.4.4h-7.443zm5.287 9.6a2.012 2.012 0 0 1-1.82-1.333h3.64a2.013 2.013 0 0 1-1.821 1.333zm-3.334-4v-1.333h6.667v1.333zm10-20a.506.506 0 0 1 .14.013.059.059 0 0 1 .033 0h.013a.006.006 0 0 0 .007.007h.013c.007 0 .013.007.02.007a1.151 1.151 0 0 1 .293.087h.013l.006.007a.007.007 0 0 1 .007.007h.006a.25.25 0 0 1 .074.033c.006 0 .013 0 .013.007s.007 0 .007.007h.007a.238.238 0 0 1 .053.033l.007.007h.006c.007 0 .007 0 .013.013a.007.007 0 0 1 .007.007c.007 0 .013 0 .013.007h.006l.013.013h.007a.007.007 0 0 1 .007.007h.006c.007.006.013.006.013.013l.007.007c.007 0 .013.007.02.013a.158.158 0 0 1 .047.047h.007v.007l.013.013a.016.016 0 0 1 .013.013h.007c.007 0 .013.007.02.02s.02.02.02.027l.007.006a.112.112 0 0 1 .04.04.051.051 0 0 1 .027.027.2.2 0 0 1 .033.047c.013.013.02.02.02.027a.021.021 0 0 1 .007.013l.007.006a.477.477 0 0 1 .046.073c.007.013.02.02.02.034v.006c.007.007.007.007.007.013l.006.006a.007.007 0 0 1 .007.007v.007c.006.013.013.02.013.033v.007l.007.007a.023.023 0 0 1 .006.02.025.025 0 0 1 .007.013v.006l.007.007v.007l.04.107a.026.026 0 0 1 .007.02.093.093 0 0 1 .013.04v.02c0 .007.007.007.007.013v.02c0 .007.007.013.007.02a.051.051 0 0 1 .007.033v.014a.192.192 0 0 1 .006.087.058.058 0 0 1 .007.033v.04a.154.154 0 0 1 .006.053v.047a.245.245 0 0 1-.007.066v.007a.037.037 0 0 1-.007.026c.007.007 0 .007 0 .013a.172.172 0 0 1-.013.08.119.119 0 0 1-.007.047v.007a.049.049 0 0 1-.007.026.13.13 0 0 1-.02.067.024.024 0 0 1-.007.02l-.04.1a.284.284 0 0 1-.04.093.569.569 0 0 1-.127.193.584.584 0 0 1-.16.18.312.312 0 0 1-.066.067c-.007.007-.013.007-.013.013s-.027.02-.04.027a.145.145 0 0 0-.04.027.309.309 0 0 1-.12.067c-.007.013-.02.013-.027.02l-.093.04a.128.128 0 0 0-.04.027l-3.627 1.82-.1.047-7.32 3.66-.02.007-2.133 1.067a1.366 1.366 0 0 1-1.653-.387c-.007-.006-.013-.02-.02-.026-.02-.033-.047-.067-.067-.1l-.027-.047-.02-.04a.067.067 0 0 1-.013-.033.385.385 0 0 1-.047-.106.285.285 0 0 1-.027-.093.481.481 0 0 1-.027-.134.133.133 0 0 1-.013-.087.5.5 0 0 1-.013-.14 1.255 1.255 0 0 1 .006-.153.844.844 0 0 1 .027-.127 1.02 1.02 0 0 1 .033-.14.475.475 0 0 1 .06-.134.338.338 0 0 1 .046-.1.253.253 0 0 1 .06-.087 1.026 1.026 0 0 1 .233-.266.006.006 0 0 1 .007-.007.576.576 0 0 1 .127-.093 1 1 0 0 1 .14-.087l.027-.013 5.687-2.847.12-.06 7.32-3.667c.007-.007.02-.007.027-.013h.013l.027-.013.06-.026.007-.007h.007l.033-.02h.007a.4.4 0 0 1 .08-.034.092.092 0 0 1 .053-.02c.007-.007.013-.013.02-.007s.02-.013.034-.013l.06-.02h.007c.007-.006.007-.006.013-.006a.368.368 0 0 1 .047-.007.286.286 0 0 0 .066-.013.537.537 0 0 1 .093-.013c.02 0 .04-.007.053-.007zm0-6.667a1.32 1.32 0 0 1 .16.013.262.262 0 0 1 .1.02.91.91 0 0 1 .32.106c.013.007.02.007.033.013a.027.027 0 0 0 .013.007c.02.013.04.02.06.033a.186.186 0 0 0 .034.02c.033.02.066.047.1.067l.02.02a.946.946 0 0 1 .133.134.082.082 0 0 1 .033.033c.013.013.026.02.033.033a.007.007 0 0 1 .007.007.4.4 0 0 1 .047.066.489.489 0 0 1 .087.147c.006.007.013.007.013.013v.007a.284.284 0 0 1 .026.067c0 .006.007.013.007.02a.445.445 0 0 0 .027.067.792.792 0 0 1 .047.133.339.339 0 0 1 .013.087.39.39 0 0 1 .013.127.809.809 0 0 1-.007.253.7.7 0 0 1-.047.227.024.024 0 0 1-.007.02l-.04.1a.293.293 0 0 1-.04.093.57.57 0 0 1-.127.193.583.583 0 0 1-.16.18.312.312 0 0 1-.066.067c-.007.007-.013.007-.013.013s-.027.02-.04.027a.133.133 0 0 0-.04.027.308.308 0 0 1-.12.066.007.007 0 0 1-.007.007c-.007.006-.013.006-.02.013l-.093.04a.138.138 0 0 0-.04.027L18.628 13.3l-.113.06-7.5 3.746a1.364 1.364 0 0 1-.66.133 1.56 1.56 0 0 1-.171-.025 1.2 1.2 0 0 1-.173-.039H10a.024.024 0 0 1-.02-.007.962.962 0 0 1-.253-.12 1.3 1.3 0 0 1-.487-.52.895.895 0 0 1-.04-.087c-.007-.007-.013-.013-.007-.02a.1.1 0 0 1-.026-.067 1.4 1.4 0 0 1-.047-.133 1.533 1.533 0 0 1-.013-.133.043.043 0 0 1-.007-.047l-.007-.033a.859.859 0 0 1 .007-.26.611.611 0 0 1 .027-.153.525.525 0 0 1 .027-.1.244.244 0 0 1 .026-.06.488.488 0 0 1 .06-.133.514.514 0 0 1 .047-.087.788.788 0 0 1 .093-.133 1.18 1.18 0 0 1 .3-.274.309.309 0 0 1 .12-.066c.007-.013.02-.013.027-.02l.093-.04a.134.134 0 0 0 .04-.027l5.567-2.787.013-.006.12-.06 7.493-3.75a1.364 1.364 0 0 1 .593-.14zm-5.127-1.28l-.113.06-7.5 3.747a1.356 1.356 0 0 1-.94.087 1.541 1.541 0 0 1-.5-.254c-.02-.02-.047-.04-.067-.06s-.067-.073-.1-.106a.653.653 0 0 1-.1-.134.388.388 0 0 1-.066-.114.895.895 0 0 1-.04-.087c-.007-.007-.013-.013-.007-.02a.1.1 0 0 1-.026-.067c-.02-.047-.034-.093-.047-.133a.162.162 0 0 1-.007-.051.694.694 0 0 1-.02-.161.86.86 0 0 1 .007-.26.611.611 0 0 1 .027-.153.518.518 0 0 1 .027-.1.24.24 0 0 1 .026-.06.48.48 0 0 1 .06-.133.514.514 0 0 1 .047-.087.8.8 0 0 1 .093-.134.556.556 0 0 1 .14-.14.085.085 0 0 1 .033-.033 1.231 1.231 0 0 1 .127-.1.306.306 0 0 1 .12-.066c.007-.013.02-.013.027-.02l.093-.04a.134.134 0 0 0 .04-.027l5.58-2.793.12-.06 7.493-3.747a1.386 1.386 0 0 1 .6-.14 1.752 1.752 0 0 1 .187.013.1.1 0 0 0 .047.007.7.7 0 0 1 .093.02c.006 0 .006.007.013.007a.886.886 0 0 1 .187.066.256.256 0 0 1 .06.027l.04.02a.434.434 0 0 1 .093.053.87.87 0 0 1 .093.067c.007.006.02.013.027.02a.951.951 0 0 1 .12.113c.007 0 .013.013.02.02a1.053 1.053 0 0 1 .127.16.182.182 0 0 1 .04.067.28.28 0 0 1 .033.06c.006.013.026.053.04.087.007.007.013.013.007.02a.094.094 0 0 1 .027.066c.02.047.033.094.047.133a.138.138 0 0 1 .007.047.3.3 0 0 0 .007.08.812.812 0 0 1 .02.18.264.264 0 0 1-.007.073.435.435 0 0 1-.013.16.06.06 0 0 1-.007.033c-.007.02-.007.04-.013.053a.129.129 0 0 1-.02.066.023.023 0 0 1-.007.013.336.336 0 0 1-.027.073.02.02 0 0 1-.007.027.438.438 0 0 1-.053.113.587.587 0 0 1-.047.087.932.932 0 0 1-.12.167 1.369 1.369 0 0 1-.173.167l-.02.02a.168.168 0 0 1-.047.026.107.107 0 0 1-.033.027.307.307 0 0 1-.12.067c-.007.013-.02.013-.027.02l-.093.04a.124.124 0 0 0-.04.027zm0 0"/></g></g></svg>