<svg xmlns="http://www.w3.org/2000/svg" width="30" height="30"><defs><clipPath id="clip-path"><path id="Rectangle_3" data-name="Rectangle 3" fill="#fff" d="M0 0h30v30H0z"/></clipPath></defs><g id="Mask_Group_2" data-name="Mask Group 2" clip-path="url(#clip-path)"><g id="login"><g id="Group_3" data-name="Group 3"><g id="Group_2" data-name="Group 2"><path id="Path_2" data-name="Path 2" d="M7.705 27.656H3.556a1.191 1.191 0 0 1-.937-.446 1.224 1.224 0 0 1-.248-1.027A12.947 12.947 0 0 1 14.7 15.931c.1 0 .2.006.3.006s.2 0 .3-.006a12.835 12.835 0 0 1 4.233.815 1.172 1.172 0 0 0 .824-2.194q-.291-.109-.586-.206a7.969 7.969 0 1 0-9.539 0A15.239 15.239 0 0 0 .076 25.706 3.56 3.56 0 0 0 3.556 30h4.149a1.172 1.172 0 1 0 0-2.344zm1.67-19.687a5.625 5.625 0 1 1 5.9 5.618h-.549a5.632 5.632 0 0 1-5.351-5.618z"/><path id="Path_3" data-name="Path 3" d="M31.954 26.305a3.158 3.158 0 0 0-2.881-1.852h-3.662a3.1 3.1 0 0 0-2.931 1.981c-.062.16-.137.362-.215.6h-7.674a1.172 1.172 0 0 0-.841.356l-2.013 2.07a1.172 1.172 0 0 0 0 1.638l2.051 2.087a1.172 1.172 0 0 0 .836.35h3.809a1.172 1.172 0 1 0 0-2.344H15.12l-.9-.92.871-.9h8.056a1.172 1.172 0 0 0 1.138-.893 9.683 9.683 0 0 1 .386-1.207.768.768 0 0 1 .747-.478h3.652a.8.8 0 0 1 .744.465 7.568 7.568 0 0 1 .693 2.987 7.792 7.792 0 0 1-.688 3.041.8.8 0 0 1-.736.48h-3.7a.834.834 0 0 1-.756-.519 7.79 7.79 0 0 1-.363-1.16 1.172 1.172 0 1 0-2.279.546 10.087 10.087 0 0 0 .476 1.508 3.161 3.161 0 0 0 2.92 1.969h3.706a3.142 3.142 0 0 0 2.882-1.887 10.144 10.144 0 0 0 .883-3.983 9.921 9.921 0 0 0-.898-3.935z" transform="translate(-2.852 -6.113)"/><circle id="Ellipse_1" data-name="Ellipse 1" cx="1.172" cy="1.172" r="1.172" transform="translate(24.082 22.969)"/></g></g></g></g></svg>