<svg xmlns="http://www.w3.org/2000/svg" width="40" height="40"><defs><clipPath id="clip-path"><path id="Rectangle_152" data-name="Rectangle 152" transform="translate(21 661)" d="M0 0h40v40H0z"/></clipPath></defs><g id="Mask_Group_98" data-name="Mask Group 98" transform="translate(-21 -661)" clip-path="url(#clip-path)"><g id="furniture-and-household_6_" data-name="furniture-and-household (6)" transform="translate(21.087 661.088)"><path id="Path_404" data-name="Path 404" d="M15.627 15.627H24.2V24.2h-8.573zm0 0"/><path id="Path_405" data-name="Path 405" d="M25.627 15.627V24.2h7.153a13.391 13.391 0 0 0 0-8.571zm0 0"/><path id="Path_406" data-name="Path 406" d="M25.627 32.205a13.633 13.633 0 0 0 6.573-6.578h-6.573zm0 0"/><path id="Path_407" data-name="Path 407" d="M25.627 7.62v6.58H32.2a13.633 13.633 0 0 0-6.573-6.58zm0 0"/><path id="Path_408" data-name="Path 408" d="M15.627 7.045v1.3A11.374 11.374 0 0 1 19.2 7.77a.714.714 0 0 1 0 1.429 9.934 9.934 0 0 0-3.571.671v4.33H24.2V7.045a13.394 13.394 0 0 0-8.571 0zm0 0"/><path id="Path_409" data-name="Path 409" d="M15.627 32.78a13.391 13.391 0 0 0 8.571 0v-7.153h-8.571zm0 0"/><path id="Path_410" data-name="Path 410" d="M14.2 32.205v-6.578H7.62a13.633 13.633 0 0 0 6.58 6.578zm0 0"/><path id="Path_411" data-name="Path 411" d="M9.2 19.2a.714.714 0 0 1-1.429 0 11.374 11.374 0 0 1 .579-3.571h-1.3a13.394 13.394 0 0 0 0 8.571h7.15v-8.573H9.869A9.934 9.934 0 0 0 9.2 19.2zm0 0"/><path id="Path_412" data-name="Path 412" d="M7.62 14.2h1.317A11.483 11.483 0 0 1 14.2 8.938V7.62a13.633 13.633 0 0 0-6.58 6.58zm0 0"/><path id="Path_413" data-name="Path 413" d="M10.551 14.2H14.2v-3.649a10.059 10.059 0 0 0-3.649 3.649zm0 0"/><path id="Path_414" data-name="Path 414" d="M19.913-.087a20 20 0 1 0 20 20 20 20 0 0 0-20-20zM22.9 1.581a18.517 18.517 0 0 1 15.347 15.357.714.714 0 0 1-.591.818.7.7 0 0 1-.114.009.715.715 0 0 1-.705-.6A17.089 17.089 0 0 0 22.676 2.992a.714.714 0 1 1 .229-1.41zm11.87 23.332a.715.715 0 0 1-.714.714h-.28a15.079 15.079 0 0 1-8.148 8.148v.28a.715.715 0 0 1-.714.714.706.706 0 0 1-.671-.5 14.893 14.893 0 0 1-8.658 0 .706.706 0 0 1-.671.5.714.714 0 0 1-.714-.714v-.28a15.078 15.078 0 0 1-8.15-8.148h-.28a.709.709 0 0 1-.214-1.386 14.892 14.892 0 0 1 0-8.658.706.706 0 0 1-.5-.671.714.714 0 0 1 .714-.712h.28a15.076 15.076 0 0 1 8.15-8.15v-.28a.714.714 0 0 1 .714-.714.706.706 0 0 1 .671.5 14.893 14.893 0 0 1 8.658 0 .706.706 0 0 1 .671-.5.715.715 0 0 1 .714.714v.28a15.078 15.078 0 0 1 8.147 8.15h.28a.714.714 0 0 1 .714.714.706.706 0 0 1-.5.671 14.892 14.892 0 0 1 0 8.658.706.706 0 0 1 .5.671zM19.912 1.341a.714.714 0 1 1-.714.715.714.714 0 0 1 .714-.715zm-3 .241a.714.714 0 0 1 .229 1.411A17.083 17.083 0 0 0 2.984 17.2a.714.714 0 0 1-1.411-.224A18.511 18.511 0 0 1 16.917 1.582zM1.341 19.912a.714.714 0 1 1 .715.714.714.714 0 0 1-.715-.714zm15.715 18.345a.672.672 0 0 1-.114-.01A18.52 18.52 0 0 1 1.585 22.938a.715.715 0 1 1 1.41-.232 17.092 17.092 0 0 0 14.175 14.13.715.715 0 0 1-.114 1.421zm2.857.227a.714.714 0 1 1 .714-.714.714.714 0 0 1-.715.714zm2.979-.238a.7.7 0 0 1-.114.009.714.714 0 0 1-.113-1.42 17.085 17.085 0 0 0 14.171-14.178.715.715 0 1 1 1.411.227 18.513 18.513 0 0 1-15.356 15.362zm14.877-17.619a.714.714 0 1 1 .714-.714.714.714 0 0 1-.714.714zm0 0"/></g></g></svg>