<svg xmlns="http://www.w3.org/2000/svg" width="40" height="40"><defs><clipPath id="clip-path"><path id="Rectangle_154" data-name="Rectangle 154" transform="translate(21 1046)" d="M0 0h40v40H0z"/></clipPath></defs><g id="Mask_Group_100" data-name="Mask Group 100" transform="translate(-21 -1046)" clip-path="url(#clip-path)"><g id="more" transform="translate(21 1046)"><g id="Group_246" data-name="Group 246"><path id="Path_422" data-name="Path 422" d="M20 0a20 20 0 1 0 20 20A19.989 19.989 0 0 0 20 0zm9.011 21.333h-7.678v7.678a1.333 1.333 0 0 1-2.667 0v-7.678h-7.677a1.333 1.333 0 1 1 0-2.667h7.678v-7.677a1.333 1.333 0 1 1 2.667 0v7.678h7.678a1.333 1.333 0 0 1 0 2.667z"/></g></g></g></svg>