<svg xmlns="http://www.w3.org/2000/svg" width="20" height="20"><defs><clipPath id="clip-path"><path id="Rectangle_34" data-name="Rectangle 34" fill="#fff" stroke="#707070" stroke-width="1" d="M0 0h20v20H0z"/></clipPath></defs><g id="Mask_Group_32" data-name="Mask Group 32" opacity=".2" clip-path="url(#clip-path)"><g id="banking"><g id="Group_25" data-name="Group 25"><path id="Path_104" data-name="Path 104" d="M10 0a10 10 0 1 0 10 10A10 10 0 0 0 10 0zM7.446 6.335a1.111 1.111 0 1 1-1.111 1.111 1.112 1.112 0 0 1 1.111-1.111zm5.107 7.329a1.111 1.111 0 1 1 1.111-1.111 1.112 1.112 0 0 1-1.11 1.112zm-5.5.46l-1.178-1.178 7.071-7.071 1.179 1.179z"/></g></g></g></svg>