<svg xmlns="http://www.w3.org/2000/svg" width="20" height="22.561"><g id="percent_1_" data-name="percent (1)" transform="translate(0 -5.648)"><path id="Path_106" data-name="Path 106" d="M70.622 7.059a1.107 1.107 0 0 0-1.528.527l-8.45 17.594a1.237 1.237 0 0 0 .5 1.617 1.081 1.081 0 0 0 .514.131 1.13 1.13 0 0 0 1.014-.658L71.12 8.676a1.237 1.237 0 0 0-.498-1.617z" transform="rotate(22 37.928 -126.882)"/><path id="Path_107" data-name="Path 107" d="M8.672 28.264A4.336 4.336 0 1 0 4.336 32.6a4.341 4.341 0 0 0 4.336-4.336zm-4.336 2.05a2.049 2.049 0 1 1 2.05-2.049 2.052 2.052 0 0 1-2.05 2.049z" transform="translate(0 -15.704)"/><path id="Path_108" data-name="Path 108" d="M153.842 125.58a4.336 4.336 0 1 0 4.336 4.336 4.341 4.341 0 0 0-4.336-4.336zm0 6.385a2.049 2.049 0 1 1 2.049-2.049 2.052 2.052 0 0 1-2.049 2.049z" transform="translate(-138.178 -108.62)"/></g></svg>