<svg xmlns="http://www.w3.org/2000/svg" width="40" height="40"><defs><clipPath id="clip-path"><path id="Rectangle_152" data-name="Rectangle 152" transform="translate(21 276)" d="M0 0h40v40H0z"/></clipPath></defs><g id="Mask_Group_96" data-name="Mask Group 96" transform="translate(-21 -276)" clip-path="url(#clip-path)"><g id="lamp_16_" data-name="lamp (16)" transform="translate(21.081 276.088)"><path id="Path_398" data-name="Path 398" d="M38.494 19.223H22.7L26.109 5.6a.69.69 0 0 0-1.338-.331l-3.449 13.789a.677.677 0 0 0-.021.166h-.641a1.388 1.388 0 0 1-1.393-1.669L22.929 1a1.411 1.411 0 0 1 1.393-1.09h10.51A1.411 1.411 0 0 1 36.226 1l3.662 16.552a1.388 1.388 0 0 1-1.393 1.669zm0 0"/><path id="Path_399" data-name="Path 399" d="M26.819 20.6h5.517v2.759h-5.517zm0 0"/><path id="Path_400" data-name="Path 400" d="M21.991 24.74h15.173v.69a6.207 6.207 0 0 1-6.207 6.207H28.2a6.207 6.207 0 0 1-6.207-6.207zm0 0"/><path id="Path_401" data-name="Path 401" d="M-.078 3.361a5.517 5.517 0 0 1 5.517 5.517v13.793a5.517 5.517 0 0 1-5.517 5.517zm0 0"/><path id="Path_402" data-name="Path 402" d="M6.819 10.947a2.759 2.759 0 0 1 2.759 2.759v4.138A2.759 2.759 0 0 1 6.819 20.6zm0 0"/><path id="Path_403" data-name="Path 403" d="M31.536 33a8.288 8.288 0 0 1-8.165 6.917h-4.139a8.282 8.282 0 0 1-8.276-8.276V20.6a2.644 2.644 0 0 0-.3-1.227 4.066 4.066 0 0 0 .3-1.531v-3.557a6.9 6.9 0 0 1 4.139 6.315v11.037a4.138 4.138 0 0 0 4.138 4.138h4.138a4.13 4.13 0 0 0 3.917-2.814 8 8 0 0 0 .91.056h2.758q.29 0 .579-.021zm0 0"/></g></g></svg>