<svg xmlns="http://www.w3.org/2000/svg" width="26.621" height="72.839"><g id="invention_1_" data-name="invention (1)"><g id="Group_39" data-name="Group 39" transform="translate(0 30.838)"><g id="Group_38" data-name="Group 38"><path id="Path_135" data-name="Path 135" d="M120.357 28.689A13.312 13.312 0 0 1 106.724 42a13.309 13.309 0 0 1-9.6-22.173 15.415 15.415 0 0 0 3.182-5.518.968.968 0 0 1 .364-1.865h.106a14.346 14.346 0 0 0 .235-2.575V7.637a6.047 6.047 0 0 1 5.071-5.96l-.118-31.547a.968.968 0 0 1 .968-.968.968.968 0 0 1 .968.968l.118 31.547a6.047 6.047 0 0 1 5.07 5.96v2.23a14.725 14.725 0 0 0 .228 2.573h.058a.968.968 0 0 1 .4 1.85 14.747 14.747 0 0 0 3.135 5.458 13.271 13.271 0 0 1 3.448 8.941zm-9.208-21.052a4.1 4.1 0 0 0-8.2 0v1.035h8.2V7.637zm.018 2.971h-8.242a16.29 16.29 0 0 1-.189 1.833h8.615a16.682 16.682 0 0 1-.183-1.833zm-5.325 3.769v1.99a1.2 1.2 0 1 0 2.408 0v-1.99h-2.408zm5.932 0h-1.588v1.99a3.121 3.121 0 0 1-.807 2.1l2.436 4.551a.968.968 0 1 1-1.707.914l-2.408-4.493a3.156 3.156 0 0 1-1.287 0l-2.4 4.49a.968.968 0 1 1-1.707-.914l2.427-4.534a3.128 3.128 0 0 1-.825-2.119v-1.99h-1.6a17.307 17.307 0 0 1-3.741 6.737 11.375 11.375 0 1 0 16.908-.063 16.687 16.687 0 0 1-3.7-6.669z" transform="translate(-93.736)" fill="#fff"/></g></g><g id="Group_41" data-name="Group 41" transform="translate(6.969 56.671)"><g id="Group_40" data-name="Group 40"><path id="Path_136" data-name="Path 136" d="M190.408 155.378a.968.968 0 0 1-.968-.968.823.823 0 1 0-1.646 0 .968.968 0 1 1-1.936 0 .823.823 0 1 0-1.646 0 .968.968 0 1 1-1.936 0 .823.823 0 0 0-1.646 0 .968.968 0 1 1-1.936 0 2.758 2.758 0 0 1 4.55-2.1 2.754 2.754 0 0 1 3.582 0 2.758 2.758 0 0 1 4.55 2.1.968.968 0 0 1-.968.968z" transform="translate(-178.693 -151.651)" fill="#fff"/></g></g></g></svg>