<svg xmlns="http://www.w3.org/2000/svg" width="40" height="40"><defs><clipPath id="clip-path"><path id="Rectangle_152" data-name="Rectangle 152" transform="translate(21 881)" d="M0 0h40v40H0z"/></clipPath></defs><g id="Mask_Group_94" data-name="Mask Group 94" transform="translate(-21 -881)" clip-path="url(#clip-path)"><g id="socket" transform="translate(21 881)"><g id="Group_240" data-name="Group 240"><g id="Group_239" data-name="Group 239"><path id="Path_388" data-name="Path 388" d="M34.191 0H5.809A5.816 5.816 0 0 0 0 5.809v28.382A5.816 5.816 0 0 0 5.809 40h28.382A5.816 5.816 0 0 0 40 34.191V5.809A5.816 5.816 0 0 0 34.191 0zM20 32.278A12.278 12.278 0 1 1 32.278 20 12.292 12.292 0 0 1 20 32.278z"/></g></g><g id="Group_242" data-name="Group 242"><g id="Group_241" data-name="Group 241"><circle id="Ellipse_31" data-name="Ellipse 31" cx="2.169" cy="2.169" r="2.169" transform="translate(13.753 17.831)"/></g></g><g id="Group_244" data-name="Group 244"><g id="Group_243" data-name="Group 243"><circle id="Ellipse_32" data-name="Ellipse 32" cx="2.169" cy="2.169" r="2.169" transform="translate(21.909 17.831)"/></g></g></g></g></svg>