<svg xmlns="http://www.w3.org/2000/svg" width="40" height="40"><defs><clipPath id="clip-path"><path id="Rectangle_152" data-name="Rectangle 152" transform="translate(21 441)" d="M0 0h40v40H0z"/></clipPath></defs><g id="Mask_Group_87" data-name="Mask Group 87" transform="translate(-21 -441)" clip-path="url(#clip-path)"><g id="spotlight_2_" data-name="spotlight (2)" transform="translate(21.436 441.088)"><path id="Path_319" data-name="Path 319" d="M.581 5.336h37.966a.678.678 0 0 1 .678.678v2.712a.678.678 0 0 1-.678.678H.581A.678.678 0 0 1-.1 8.726V6.014a.678.678 0 0 1 .678-.678zm0 0"/><path id="Path_320" data-name="Path 320" d="M14.818-.088h9.492a.678.678 0 0 1 .678.678v3.39H14.14V.591a.678.678 0 0 1 .678-.678zm0 0"/><path id="Path_321" data-name="Path 321" d="M19.564 16.862A2.034 2.034 0 0 1 21.6 18.9v2.034h-4.07V18.9a2.034 2.034 0 0 1 2.034-2.038zm0 0"/><path id="Path_322" data-name="Path 322" d="M24.988 29.065H14.14l2.827-6.78h5.193zm0 0"/><path id="Path_323" data-name="Path 323" d="M21.91 30.421a2.854 2.854 0 0 1-.427.563 2.727 2.727 0 0 1-1.919.793 2.7 2.7 0 0 1-2.345-1.356zm0 0"/><path id="Path_324" data-name="Path 324" d="M20.92 10.76v5.024a3.443 3.443 0 0 0-2.712 0V10.76zm0 0"/><path id="Path_325" data-name="Path 325" d="M7.391 16.862a2.033 2.033 0 0 1 1.644 2.36l-.358 2-4-.716.358-2a2.034 2.034 0 0 1 2.361-1.643zm0 0"/><path id="Path_326" data-name="Path 326" d="M10.581 29.831L-.1 27.919l3.98-6.176 5.112.915zm0 0"/><path id="Path_327" data-name="Path 327" d="M7.313 30.624a2.7 2.7 0 0 1-2.068.963 2.9 2.9 0 0 1-.482-.041A2.711 2.711 0 0 1 2.7 29.8zm0 0"/><path id="Path_328" data-name="Path 328" d="M8.716 10.76v5.166a3.26 3.26 0 0 0-1.084-.4 3.555 3.555 0 0 0-.6-.055A3.227 3.227 0 0 0 6 15.635V10.76zm0 0"/><path id="Path_329" data-name="Path 329" d="M34.455 20.508l-4 .717-.358-2a2.034 2.034 0 0 1 4-.716zm0 0"/><path id="Path_330" data-name="Path 330" d="M39.225 27.919l-10.678 1.912 1.587-7.173 5.112-.915zm0 0"/><path id="Path_331" data-name="Path 331" d="M36.432 29.8a2.712 2.712 0 0 1-2.068 1.749 2.906 2.906 0 0 1-.482.041 2.7 2.7 0 0 1-2.068-.963zm0 0"/><path id="Path_332" data-name="Path 332" d="M33.123 10.76v4.875a3.228 3.228 0 0 0-1.023-.163 3.547 3.547 0 0 0-.6.055 3.258 3.258 0 0 0-1.085.4V10.76zm0 0"/><path id="Path_333" data-name="Path 333" d="M19.564 39.912a.678.678 0 0 1-.678-.678v-4.745a.678.678 0 1 1 1.356 0v4.745a.678.678 0 0 1-.678.678zm0 0"/><path id="Path_334" data-name="Path 334" d="M11.984 36.523a.678.678 0 0 1-.452-1.183l3.537-3.164a.678.678 0 1 1 .9 1.01l-3.533 3.164a.679.679 0 0 1-.452.173zm0 0"/><path id="Path_335" data-name="Path 335" d="M27.168 36.523a.671.671 0 0 1-.451-.173l-3.537-3.164a.678.678 0 0 1 .9-1.01l3.537 3.164a.678.678 0 0 1-.452 1.183zm0 0"/></g></g></svg>