<svg xmlns="http://www.w3.org/2000/svg" width="40" height="40"><defs><clipPath id="clip-path"><path id="Rectangle_152" data-name="Rectangle 152" transform="translate(21 551)" d="M0 0h40v40H0z"/></clipPath></defs><g id="Mask_Group_89" data-name="Mask Group 89" transform="translate(-21 -551)" clip-path="url(#clip-path)"><g id="light_2_" data-name="light (2)" transform="translate(21.446 551.088)"><path id="Path_348" data-name="Path 348" d="M11.588-.088l-2.007 6.7a.666.666 0 0 0-.027.2H6.106L7.878.9A1.379 1.379 0 0 1 9.2-.088zm0 0"/><path id="Path_349" data-name="Path 349" d="M32.313 6.809H10.968l2.007-6.7A.663.663 0 0 0 13-.088h16.216A1.379 1.379 0 0 1 30.54.9zm0 0"/><path id="Path_350" data-name="Path 350" d="M14.968 23.361H12.9a1.714 1.714 0 0 1-1.745-1.49L9.7 8.188h4.186zm0 0"/><path id="Path_351" data-name="Path 351" d="M23.154 8.188l-1.09 15.172h-5.71l-1.09-15.172zm0 0"/><path id="Path_352" data-name="Path 352" d="M28.719 8.188l-1.455 13.683a1.714 1.714 0 0 1-1.745 1.49H23.45l1.083-15.173zm0 0"/><path id="Path_353" data-name="Path 353" d="M22.657 24.74v13.793a1.383 1.383 0 0 1-1.379 1.379H17.14a1.383 1.383 0 0 1-1.379-1.379V24.74zm0 0"/><path id="Path_354" data-name="Path 354" d="M4.726 15.775H.588a.69.69 0 0 1 0-1.379h4.138a.69.69 0 0 1 0 1.379zm0 0"/><path id="Path_355" data-name="Path 355" d="M1.638 21.6a.69.69 0 0 1-.282-1.319l3.778-1.688a.69.69 0 1 1 .566 1.259L1.919 21.54a.673.673 0 0 1-.281.06zm0 0"/><path id="Path_356" data-name="Path 356" d="M5.416 11.637a.679.679 0 0 1-.282-.06L1.356 9.889a.69.69 0 1 1 .563-1.259L5.7 10.318a.69.69 0 0 1-.281 1.319zm0 0"/><path id="Path_357" data-name="Path 357" d="M38.519 15.775h-4.138a.69.69 0 0 1 0-1.379h4.138a.69.69 0 0 1 0 1.379zm0 0"/><path id="Path_358" data-name="Path 358" d="M37.47 21.6a.673.673 0 0 1-.281-.06l-3.779-1.688a.69.69 0 0 1 .563-1.259l3.778 1.688a.69.69 0 0 1-.281 1.319zm0 0"/><path id="Path_359" data-name="Path 359" d="M33.692 11.637a.69.69 0 0 1-.281-1.319l3.778-1.688a.69.69 0 1 1 .562 1.259l-3.778 1.687a.679.679 0 0 1-.282.06zm0 0"/></g></g></svg>