<svg id="Component_22_1" data-name="Component 22 – 1" xmlns="http://www.w3.org/2000/svg" width="30" height="30"><defs><clipPath id="clip-path"><path id="Rectangle_128" data-name="Rectangle 128" transform="translate(190 396)" fill="#515151" d="M0 0h30v30H0z"/></clipPath></defs><g id="Mask_Group_55" data-name="Mask Group 55" transform="translate(-190 -396)" clip-path="url(#clip-path)"><g id="phone-call_1_" data-name="phone-call (1)" transform="translate(190 396)"><g id="Group_105" data-name="Group 105"><g id="Group_104" data-name="Group 104"><path id="Path_205" data-name="Path 205" d="M24.42 22.528c-.339-.363-.69-.708-1.035-1.041-.173-.166-.345-.339-.518-.511l-1.5-1.5a2.877 2.877 0 0 0-4.325 0c-.154.154-.314.308-.468.462-.357.351-.727.715-1.084 1.1a11.273 11.273 0 0 1-2.033-1.325 21.258 21.258 0 0 1-2.563-2.452 1.109 1.109 0 1 0-1.67 1.46 22.661 22.661 0 0 0 2.84 2.723c.006 0 .006.006.012.006a12.175 12.175 0 0 0 2.988 1.83.347.347 0 0 0 .074.025 1.469 1.469 0 0 0 1.626-.37l.043-.043c.419-.474.863-.906 1.331-1.368.16-.154.32-.314.481-.474a.975.975 0 0 1 .6-.333.962.962 0 0 1 .6.333l1.5 1.5c.179.179.363.357.536.53.345.333.665.653.973.98.006.012.018.018.025.025a.709.709 0 0 1-.012 1.134l-1.879 1.879a2.152 2.152 0 0 1-1.4.659 7.527 7.527 0 0 1-3.3-.6 21.864 21.864 0 0 1-6.487-3.9 24.159 24.159 0 0 1-6.29-8.021 11.778 11.778 0 0 1-1.257-4.165 2.352 2.352 0 0 1 .745-2.033 14.446 14.446 0 0 0 1.116-1.081c.222-.234.431-.45.653-.653l.007-.004a.744.744 0 0 1 1.208-.018l3.037 3.037.018.018a.826.826 0 0 1 .29.524.934.934 0 0 1-.3.579l-1.888 1.883a1.111 1.111 0 0 0 1.571 1.571l1.885-1.885a3 3 0 0 0 .955-2.169 2.918 2.918 0 0 0-.961-2.095l-3.031-3.03A2.921 2.921 0 0 0 3.227 5.7c-.259.24-.493.487-.727.727a12.448 12.448 0 0 1-.967.936.268.268 0 0 1-.043.037 4.536 4.536 0 0 0-1.479 3.81 13.835 13.835 0 0 0 1.466 4.978v.006a26.412 26.412 0 0 0 6.863 8.761 24.178 24.178 0 0 0 7.134 4.276 10.66 10.66 0 0 0 3.666.752c.191 0 .388-.006.585-.025h.006a4.369 4.369 0 0 0 2.785-1.3l1.884-1.886.018-.018a2.913 2.913 0 0 0 .002-4.226z"/></g></g><g id="Group_107" data-name="Group 107"><g id="Group_106" data-name="Group 106"><path id="Path_206" data-name="Path 206" d="M23.983 14.993a10.985 10.985 0 0 0-8.964-8.97 1.11 1.11 0 0 0-.376 2.187 8.794 8.794 0 0 1 7.157 7.159 1.108 1.108 0 0 0 1.09.924.94.94 0 0 0 .185-.018 1.11 1.11 0 0 0 .908-1.282z"/></g></g><g id="Group_109" data-name="Group 109"><g id="Group_108" data-name="Group 108"><path id="Path_207" data-name="Path 207" d="M29.984 14.722A18.022 18.022 0 0 0 15.3.034a1.11 1.11 0 0 0-.376 2.187 15.781 15.781 0 0 1 12.87 12.87 1.108 1.108 0 0 0 1.09.924.94.94 0 0 0 .182-.015 1.1 1.1 0 0 0 .918-1.278z"/></g></g></g></g></svg>