<svg xmlns="http://www.w3.org/2000/svg" width="15" height="15"><defs><clipPath id="clip-path"><path id="Rectangle_8" data-name="Rectangle 8" fill="#fff" stroke="#707070" stroke-width="1" d="M0 0h15v15H0z"/></clipPath></defs><g id="Mask_Group_6" data-name="Mask Group 6" opacity=".5" clip-path="url(#clip-path)"><g id="wall-clock"><g id="Group_10" data-name="Group 10"><g id="Group_9" data-name="Group 9"><path id="Path_9" data-name="Path 9" d="M7.5 0A7.5 7.5 0 1 0 15 7.5 7.509 7.509 0 0 0 7.5 0zm0 13.905A6.405 6.405 0 1 1 13.905 7.5 6.412 6.412 0 0 1 7.5 13.905z"/></g></g><g id="Group_12" data-name="Group 12" transform="translate(6.588 3.668)"><g id="Group_11" data-name="Group 11"><path id="Path_10" data-name="Path 10" d="M10.055 7.5H7.682V4.215a.547.547 0 1 0-1.095 0v3.832a.547.547 0 0 0 .547.547h2.92a.547.547 0 1 0 0-1.095z" transform="translate(-6.588 -3.668)"/></g></g></g></g></svg>