<svg xmlns="http://www.w3.org/2000/svg" width="30" height="30"><defs><clipPath id="clip-path"><path id="Rectangle_130" data-name="Rectangle 130" transform="translate(674 280)" fill="#a4a4a4" d="M0 0h30v30H0z"/></clipPath></defs><g id="Mask_Group_57" data-name="Mask Group 57" transform="translate(-674 -280)" clip-path="url(#clip-path)"><g id="clock" transform="translate(674 280)"><path id="Path_210" data-name="Path 210" d="M26.843 7.894a1.25 1.25 0 0 0-.581 1.669A12.373 12.373 0 0 1 27.5 15 12.5 12.5 0 1 1 15 2.5a12.35 12.35 0 0 1 7.76 2.7 1.25 1.25 0 1 0 1.556-1.96A15 15 0 1 0 30 15a14.847 14.847 0 0 0-1.487-6.526 1.249 1.249 0 0 0-1.669-.581zm0 0"/><path id="Path_211" data-name="Path 211" d="M15 5a1.25 1.25 0 0 0-1.25 1.25V15A1.25 1.25 0 0 0 15 16.25h6.25a1.25 1.25 0 0 0 0-2.5h-5v-7.5A1.25 1.25 0 0 0 15 5zm0 0"/></g></g></svg>