<svg xmlns="http://www.w3.org/2000/svg" width="20" height="20"><defs><clipPath id="clip-path"><path id="Rectangle_121" data-name="Rectangle 121" d="M0 0h20v20H0z"/></clipPath></defs><g id="Mask_Group_48" data-name="Mask Group 48" clip-path="url(#clip-path)"><g id="shipping-and-delivery" transform="translate(0 2.746)"><path id="Path_163" data-name="Path 163" d="M19.828 5.506L16.69 2.368a.585.585 0 0 0-.414-.172h-2.552v-.041A2.157 2.157 0 0 0 11.569 0H2.155A2.157 2.157 0 0 0 0 2.155V10a2.157 2.157 0 0 0 2.155 2.155h.414a2.94 2.94 0 0 0 5.761 0h3.339a2.94 2.94 0 0 0 5.761 0h1.983a.586.586 0 0 0 .587-.586V5.921a.585.585 0 0 0-.172-.414zM5.45 13.337a1.768 1.768 0 1 1 1.768-1.768 1.77 1.77 0 0 1-1.768 1.768zm9.1 0a1.768 1.768 0 1 1 1.768-1.768 1.77 1.77 0 0 1-1.768 1.768zm-.826-8V3.369h2.309L18 5.335zm0 0"/></g></g></svg>