<svg xmlns="http://www.w3.org/2000/svg" width="40" height="40"><defs><clipPath id="clip-path"><path id="Rectangle_152" data-name="Rectangle 152" transform="translate(21 606)" d="M0 0h40v40H0z"/></clipPath></defs><g id="Mask_Group_90" data-name="Mask Group 90" transform="translate(-21 -606)" clip-path="url(#clip-path)"><g id="spotlight_3_" data-name="spotlight (3)" transform="translate(21.088 606.436)"><path id="Path_360" data-name="Path 360" d="M3.3-.1h25.765v5.427a1.356 1.356 0 0 1-1.356 1.356H4.658A1.356 1.356 0 0 1 3.3 5.327zm0 0"/><path id="Path_361" data-name="Path 361" d="M14.15 8.038h4.068v2.712H14.15zm0 0"/><path id="Path_362" data-name="Path 362" d="M20.252 9.394h-8.136a.678.678 0 0 0-.678.678v14.915a4.746 4.746 0 1 0 9.491 0V10.072a.678.678 0 0 0-.678-.678zM16.184 27.7a2.712 2.712 0 1 1 2.716-2.713 2.712 2.712 0 0 1-2.716 2.713zm0 0"/><path id="Path_363" data-name="Path 363" d="M17.54 24.987a1.356 1.356 0 1 1-1.356-1.356 1.356 1.356 0 0 1 1.356 1.356zm0 0"/><path id="Path_364" data-name="Path 364" d="M26.414 16.621l-6.366 19.316-10.3-3.39a6.779 6.779 0 0 1-4.319-8.563l2.122-6.441a6.72 6.72 0 0 1 2.529-3.4v10.844a6.1 6.1 0 1 0 12.2 0v-9.729zm0 0"/><path id="Path_365" data-name="Path 365" d="M37.37 22.371l-5.092 15.457a2.037 2.037 0 0 1-2.569 1.295l-8.373-2.759L27.7 17.048l8.373 2.759a2.028 2.028 0 0 1 1.3 2.563zm0 0"/><path id="Path_366" data-name="Path 366" d="M39.912 25.229a2.611 2.611 0 0 1-.135.848l-3.4 10.3a2.7 2.7 0 0 1-2.677 1.862l4.963-15.064a1.6 1.6 0 0 0 .055-.19 2.718 2.718 0 0 1 1.2 2.244zm0 0"/><path id="Path_367" data-name="Path 367" d="M2.624 14.818c0 2.061 1.655 3.329 3.065 4.034l-.854 2.61c-2.1-.969-4.922-2.949-4.922-6.644 0-3.213 2.393-4.407 4.142-5.281a6.136 6.136 0 0 0 2.231-1.5h2.955c-.563 2.224-2.5 3.186-3.98 3.925-1.735.868-2.637 1.39-2.637 2.854zm0 0"/></g></g></svg>