<svg xmlns="http://www.w3.org/2000/svg" width="30" height="30"><defs><clipPath id="clip-path"><path id="Rectangle_113" data-name="Rectangle 113" transform="translate(828 717)" fill="#1d1d1d" d="M0 0h30v30H0z"/></clipPath></defs><g id="Mask_Group_44" data-name="Mask Group 44" transform="translate(-828 -717)" clip-path="url(#clip-path)"><g id="whatsapp_2_" data-name="whatsapp (2)" transform="translate(828.014 717)"><path id="Path_152" data-name="Path 152" d="M25.542 4.357a14.994 14.994 0 0 0-21.13 0A14.717 14.717 0 0 0 0 14.861v.007a14.793 14.793 0 0 0 1.825 7.022L.041 30l8.2-1.866a15.016 15.016 0 0 0 6.734 1.6h.006a14.945 14.945 0 0 0 10.573-4.353 14.708 14.708 0 0 0-.016-21.024zM14.985 27.393h-.005a12.656 12.656 0 0 1-6.016-1.525l-.388-.211L3.121 26.9l1.185-5.385-.228-.394a12.516 12.516 0 0 1-1.736-6.253A12.64 12.64 0 0 1 23.89 6.015a12.447 12.447 0 0 1 3.74 8.857 12.6 12.6 0 0 1-12.645 12.521zm0 0"/><path id="Path_153" data-name="Path 153" d="M10.907 8.312h-.657a1.261 1.261 0 0 0-.914.427 3.825 3.825 0 0 0-1.2 2.849 6.635 6.635 0 0 0 1.4 3.533c.171.228 2.371 3.788 5.855 5.157 2.9 1.138 3.485.912 4.113.855a3.461 3.461 0 0 0 2.314-1.624 2.847 2.847 0 0 0 .2-1.624c-.086-.142-.314-.228-.657-.4s-2.023-1.011-2.337-1.126-.543-.171-.771.171-.9 1.132-1.1 1.36-.4.257-.743.086a9.477 9.477 0 0 1-2.745-1.7 10.5 10.5 0 0 1-1.926-2.4c-.2-.342-.021-.527.151-.7.154-.153.362-.362.534-.561a2.31 2.31 0 0 0 .334-.57.627.627 0 0 0-.029-.6c-.086-.171-.744-1.86-1.049-2.536-.257-.569-.527-.588-.771-.6zm0 0"/></g></g></svg>