<svg xmlns="http://www.w3.org/2000/svg" width="20" height="20"><defs><clipPath id="clip-path"><path id="Rectangle_7" data-name="Rectangle 7" fill="#fff" stroke="#707070" stroke-width="1" d="M0 0h20v20H0z"/></clipPath></defs><g id="Mask_Group_5" data-name="Mask Group 5" opacity=".5" clip-path="url(#clip-path)"><g id="search_1_" data-name="search (1)" transform="translate(.278)"><g id="Group_6" data-name="Group 6"><g id="Group_5" data-name="Group 5"><path id="Path_5" data-name="Path 5" d="M8.942 0a8.942 8.942 0 1 0 8.942 8.942A8.952 8.952 0 0 0 8.942 0zm0 16.233a7.291 7.291 0 1 1 7.291-7.291 7.3 7.3 0 0 1-7.291 7.291z"/></g></g><g id="Group_8" data-name="Group 8" transform="translate(13.922 13.922)"><g id="Group_7" data-name="Group 7"><path id="Path_6" data-name="Path 6" d="M27.4 26.229L22.664 21.5a.825.825 0 0 0-1.164 1.164l4.729 4.736a.825.825 0 0 0 1.171-1.171z" transform="translate(-21.255 -21.255)"/></g></g></g></g></svg>