<svg id="zoom-in" xmlns="http://www.w3.org/2000/svg" width="48" height="48"><g id="Group_57" data-name="Group 57"><g id="Group_56" data-name="Group 56"><path id="Path_146" data-name="Path 146" d="M47.45 44.8L33.908 31.256a19.13 19.13 0 1 0-2.652 2.652L44.8 47.45a1.875 1.875 0 0 0 2.65-2.65zM29.995 30a15.379 15.379 0 1 1 0-21.749 15.4 15.4 0 0 1 0 21.744z" fill="#fff"/></g></g><g id="Group_59" data-name="Group 59" transform="translate(8.063 8.063)"><g id="Group_58" data-name="Group 58"><path id="Path_147" data-name="Path 147" d="M106.245 95.187h-7.307V87.88a1.875 1.875 0 0 0-3.751 0v7.307H87.88a1.875 1.875 0 0 0 0 3.751h7.307v7.307a1.875 1.875 0 0 0 3.751 0v-7.307h7.307a1.875 1.875 0 0 0 0-3.751z" transform="translate(-86.005 -86.005)" fill="#fff"/></g></g></svg>