<svg id="Component_25_1" data-name="Component 25 – 1" xmlns="http://www.w3.org/2000/svg" width="60" height="60"><defs><clipPath id="clip-path"><path id="Rectangle_123" data-name="Rectangle 123" transform="translate(85 374)" fill="#fff" d="M0 0h60v60H0z"/></clipPath></defs><ellipse id="Ellipse_24" data-name="Ellipse 24" cx="20.5" cy="20" rx="20.5" ry="20" transform="translate(9 8)" fill="#fab800"/><g id="Mask_Group_52" data-name="Mask Group 52" transform="translate(-85 -374)" clip-path="url(#clip-path)"><g id="bathroom" transform="translate(85 374)"><path id="Path_189" data-name="Path 189" d="M59 44H41v-3a1 1 0 0 0-1-1h-4a1 1 0 0 0-1 1v3h-2v-8h2v1a1 1 0 0 0 1 1h4a1 1 0 0 0 1-1v-3a4 4 0 0 0-4-4h-6a4 4 0 0 0-4 4v10h-2v-3a1 1 0 0 0-1-1h-4a1 1 0 0 0-1 1v3H1a1 1 0 0 0-1 1v4a1 1 0 0 0 1 1h3.236L7.03 60.243a7.831 7.831 0 0 0 5.636 5.6L11.28 70H0v2h21v-2h-3.613l1.333-4h22.56l1.333 4H27v2h33v-2H48.72l-1.386-4.159a7.819 7.819 0 0 0 5.631-5.578L55.764 50H59a1 1 0 0 0 1-1v-4a1 1 0 0 0-1-1zm-22-2h2v2h-2zm-8-8a2 2 0 0 1 2-2h6a2 2 0 0 1 2 2v2h-2v-1a1 1 0 0 0-1-1h-4a1 1 0 0 0-1 1v9h-2zm-7 12h4v8h-4zm-1-4h2v2h-2zm-1 4v10h-8V46zM2 46h8v2H2zm13.279 24h-1.891l1.333-4h1.891zm29.442 0l-1.333-4h1.891l1.333 4zm6.309-10.243A5.642 5.642 0 0 1 46 64H14a5.649 5.649 0 0 1-5.035-4.263L6.31 50H10v7a1 1 0 0 0 1 1h10a1 1 0 0 0 1-1v-1h5a1 1 0 0 0 1-1v-5h25.69zM58 48H28v-2h30zm0 0" transform="translate(0 -12)"/><path id="Path_190" data-name="Path 190" d="M38.333 96.666h2v2h-2zm0 0" transform="translate(-15.333 -38.667)"/><path id="Path_191" data-name="Path 191" d="M76.566 79.149l2-4-1.79-.894-1.728 3.445h-3.382v2h4a1 1 0 0 0 .9-.553zm0 0" transform="translate(-28.667 -29.702)"/><path id="Path_192" data-name="Path 192" d="M65 80h2v2h-2zm0 0" transform="translate(-26 -32)"/><path id="Path_193" data-name="Path 193" d="M3.333 20v2h20v-2h-2V2h2V0h-20v2h2v18zm11 0V8h5v12zm5-14h-5V2h5zm-7-4v4h-5V2zm-5 6h5v12h-5zm0 0" transform="translate(-1.333)"/><path id="Path_194" data-name="Path 194" d="M81 8a7.009 7.009 0 0 0 7-7 1 1 0 0 0-1-1h-2a7 7 0 0 0-6 3.413A7 7 0 0 0 73 0h-2a1 1 0 0 0-1 1 7.009 7.009 0 0 0 7 7h1v2h-2a1 1 0 0 0-.986 1.164L75.82 16H72v2h16v-2h-5.82l.806-4.836A1 1 0 0 0 82 10h-2V8zm4-6h.9A5.008 5.008 0 0 1 81 6h-.9A5.008 5.008 0 0 1 85 2zm-8 4a5.008 5.008 0 0 1-4.9-4h.9a5.008 5.008 0 0 1 4.9 4zm3.153 10h-2.306l-.666-4h3.638zm0 0" transform="translate(-28)"/><path id="Path_195" data-name="Path 195" d="M83.333 33.333h10v2h-10zm0 0" transform="translate(-33.333 -13.333)"/></g></g></svg>