<svg id="Component_23_1" data-name="Component 23 – 1" xmlns="http://www.w3.org/2000/svg" width="60" height="60"><defs><clipPath id="clip-path"><path id="Rectangle_123" data-name="Rectangle 123" transform="translate(85 374)" fill="#fff" d="M0 0h60v60H0z"/></clipPath></defs><ellipse id="Ellipse_22" data-name="Ellipse 22" cx="20.5" cy="20" rx="20.5" ry="20" transform="translate(10 8)" fill="#fab800"/><g id="Mask_Group_50" data-name="Mask Group 50" transform="translate(-85 -374)" clip-path="url(#clip-path)"><g id="bedroom" transform="translate(85 379)"><path id="Path_170" data-name="Path 170" d="M54.667 58.667a1 1 0 0 0 1-1v-7h2a1 1 0 1 0 0-2h-6v-16a1 1 0 0 0-1-1h-36a1 1 0 1 0 0 2h35v10a4.92 4.92 0 0 0-3-1h-1v-1a3 3 0 0 0-3-3h-6a3 3 0 0 0-3 3v1h-2v-1a3 3 0 0 0-3-3h-6a3 3 0 0 0-3 3v1h-1a5 5 0 0 0-5 5v1h-6a1 1 0 1 0 0 2h2v7a1 1 0 0 0 1 1h3v3a1 1 0 0 0 1 1h4a1 1 0 0 0 1-1v-3h16a1 1 0 0 0 0-2h-24v-6h42v6h-14a1 1 0 0 0 0 2h6v3a1 1 0 0 0 1 1h4a1 1 0 0 0 1-1v-3zm-37 0v2h-2v-2zm18-17a1 1 0 0 1 1-1h6a1 1 0 0 1 1 1v1h-8zm-14 0a1 1 0 0 1 1-1h6a1 1 0 0 1 1 1v1h-8zm-6 6a3 3 0 0 1 3-3h28a3 3 0 0 1 3 3v1h-34zm34 13h-2v-2h2zm0 0" transform="translate(-2.667 -12.667)"/><path id="Path_171" data-name="Path 171" d="M45.333 14a7 7 0 1 0-7-7 7 7 0 0 0 7 7zm0-12a5 5 0 1 1-5 5 5 5 0 0 1 5-5zm0 0" transform="translate(-15.333)"/><path id="Path_172" data-name="Path 172" d="M49.333 10.667h2a1 1 0 1 0 0-2h-1v-1a1 1 0 0 0-2 0v2a1 1 0 0 0 1 1zm0 0" transform="translate(-19.333 -2.667)"/><path id="Path_173" data-name="Path 173" d="M92.991 49.333h-.82l.82-4.84a1 1 0 0 0-1-1.16h-6a1 1 0 0 0-1 1.16l.83 4.84a1.008 1.008 0 0 0 .17 2h6v6h-2a1 1 0 0 0 0 2h2v6h-6a1 1 0 1 0 0 2h7a1 1 0 0 0 1-1v-16a1 1 0 0 0-1-1zm-5.15 0l-.67-4h3.64l-.67 4zm0 0" transform="translate(-33.991 -17.333)"/><path id="Path_174" data-name="Path 174" d="M8 60.667H2v-6h2a1 1 0 1 0 0-2H2v-6h6a1 1 0 0 0 0-2H7v-4h4a1 1 0 0 0 .92-1.39l-3-7a1 1 0 0 0-.92-.61H4a1 1 0 0 0-.92.61l-3 7a1 1 0 0 0 .92 1.39h4v4H1a1 1 0 0 0-1 1v16a1 1 0 0 0 1 1h7a1 1 0 1 0 0-2zm-3.34-27h2.68l2.14 5h-7zm0 0" transform="translate(0 -12.667)"/></g></g></svg>