<svg id="Component_26_1" data-name="Component 26 – 1" xmlns="http://www.w3.org/2000/svg" width="60" height="60"><defs><clipPath id="clip-path"><path id="Rectangle_123" data-name="Rectangle 123" transform="translate(105 374)" fill="#fff" d="M0 0h60v60H0z"/></clipPath></defs><ellipse id="Ellipse_25" data-name="Ellipse 25" cx="20.5" cy="20" rx="20.5" ry="20" transform="translate(9 8)" fill="#fab800"/><g id="Mask_Group_53" data-name="Mask Group 53" transform="translate(-105 -374)" clip-path="url(#clip-path)"><g id="bedroom_1_" data-name="bedroom (1)" transform="translate(105 374)"><path id="Path_196" data-name="Path 196" d="M55 19a4.983 4.983 0 0 0-3 8.974V30H8v-2.025a5 5 0 1 0-6 0V58a2 2 0 0 0 2 2h2a2 2 0 0 0 2-2v-2h44v2a2 2 0 0 0 2 2h2a2 2 0 0 0 2-2V27.975A4.983 4.983 0 0 0 55 19zM43 48V36h4v12zm-6 0V36h4v12zm-6 0V36h4v12zm-6 0V36h4v12zm-6 0V36h4v12zm-6 0V36h4v12zm-5 0V36h3v12zm33-14h-4v-2h4zm2-2h4v2h-4zm-8 2h-4v-2h4zm-6 0h-4v-2h4zm-6 0h-4v-2h4zm-6 0h-4v-2h4zm32 2h3v12h-3zm3-2h-3v-2h3zm-41-2v2H8v-2zM5 21a3 3 0 1 1-3 3 3 3 0 0 1 3-3zm1 37H4V28.9a4.987 4.987 0 0 0 2 0zm2-4v-4h44v4zm48 4h-2V28.9a4.987 4.987 0 0 0 2 0zm-1-31a3 3 0 1 1 3-3 3 3 0 0 1-3 3zm0 0"/><path id="Path_197" data-name="Path 197" d="M41 13a4.9 4.9 0 0 0 5-5 3 3 0 0 0-5.5-1.7c-1.63-1.285-4.269-3.075-9.5-3.279V1a1 1 0 0 0-2 0v2.021c-5.234.205-7.873 2-9.516 3.287A3 3 0 0 0 14 8a4.9 4.9 0 0 0 5 5v4.767l-.724 1.466-1.848.269a1 1 0 0 0-.555 1.705l1.338 1.3-.311 1.847a1 1 0 0 0 1.452 1.054l1.648-.87 1.653.87a1 1 0 0 0 1.447-1.054l-.315-1.842 1.338-1.305a1 1 0 0 0-.555-1.705l-1.848-.269-.72-1.466v-5.234a9.461 9.461 0 0 0 1.837-1.227A9.255 9.255 0 0 1 29 9.028v1.717l-.724 1.465-1.848.269a1 1 0 0 0-.555 1.706l1.338 1.3-.311 1.846a1 1 0 0 0 1.451 1.054l.649-.343v2.143a3 3 0 1 0 2 0v-2.143l.653.344a1 1 0 0 0 1.447-1.055l-.315-1.842 1.338-1.3a1 1 0 0 0-.554-1.706l-1.849-.269-.72-1.469V9.028a9.257 9.257 0 0 1 6.163 2.278 9.581 9.581 0 0 0 1.8 1.21v5.251l-.724 1.465-1.848.269a1 1 0 0 0-.555 1.706l1.338 1.3-.315 1.842a1 1 0 0 0 1.451 1.055l1.653-.87 1.653.87a1 1 0 0 0 1.451-1.054l-.315-1.842 1.338-1.3a1 1 0 0 0-.555-1.705l-1.848-.269-.724-1.466V13H41zm-19.983 8.447a1 1 0 0 0-.287.885l.061.363-.325-.171a1 1 0 0 0-.932 0l-.325.171.062-.363a1 1 0 0 0-.287-.885l-.264-.257.364-.053a1 1 0 0 0 .753-.547l.163-.33.163.33a1 1 0 0 0 .753.547l.364.053zm19.963 0a1 1 0 0 0-.287.885l.061.363-.325-.171a1 1 0 0 0-.932 0l-.325.171.061-.363a1 1 0 0 0-.287-.885l-.264-.257.364-.053a1 1 0 0 0 .753-.547l.163-.33.163.33a1 1 0 0 0 .753.547l.364.053zM30 24a1 1 0 1 1 1-1 1 1 0 0 1-1 1zm1.017-9.576a1 1 0 0 0-.287.885l.062.363-.325-.172c-.022-.011-.044-.016-.066-.025l-.026-.01a.915.915 0 0 0-.747 0l-.026.01c-.022.01-.045.014-.067.025l-.325.172.061-.363a1 1 0 0 0-.287-.885l-.263-.257.364-.053a1 1 0 0 0 .753-.547l.163-.33.163.33a1 1 0 0 0 .753.547l.364.053zM30 7c-4.984 0-7.047 1.651-8.413 2.744A4.159 4.159 0 0 1 19 11a2.916 2.916 0 0 1-3-3 1 1 0 0 1 1.951-.313 1 1 0 0 0 1.469 1.165.975.975 0 0 0 .125-.069c.207-.135.528-.388.794-.6C21.826 6.993 24.315 5 30 5s8.174 1.992 9.675 3.193c.253.2.575.456.783.59a1.026 1.026 0 0 0 1.6-1.168.987.987 0 0 1 .942-.643A1.027 1.027 0 0 1 44 8a2.916 2.916 0 0 1-3 3 4.16 4.16 0 0 1-2.587-1.256C37.047 8.652 34.983 7 30 7zm0 0"/></g></g></svg>