<svg xmlns="http://www.w3.org/2000/svg" width="72" height="72"><defs><clipPath id="clip-path"><path id="Rectangle_116" data-name="Rectangle 116" fill="#fff" d="M0 0h72v72H0z"/></clipPath></defs><g id="Mask_Group_46" data-name="Mask Group 46" clip-path="url(#clip-path)"><g id="Out_line" data-name="Out line" transform="translate(.259)"><path id="Path_158" data-name="Path 158" d="M22.033 76.967a4.8 4.8 0 1 1 4.8-4.8 4.8 4.8 0 0 1-4.8 4.8zm0-7.2a2.4 2.4 0 1 0 2.4 2.4 2.4 2.4 0 0 0-2.4-2.4z" transform="translate(34.367 -18.167)"/><path id="Path_159" data-name="Path 159" d="M54.467 17.233h1.2a1.2 1.2 0 0 1 0 2.4h-1.2a1.2 1.2 0 1 1 0-2.4z" transform="translate(-23.267 -6.433)"/><path id="Path_160" data-name="Path 160" d="M6.52 36.371a21.68 21.68 0 0 1 7.453-7.855 1.2 1.2 0 0 1 .4-.162l5.035-1.007v-3.7L17.162 11.66a7.2 7.2 0 0 1 5.076-8.244 1.2 1.2 0 0 1 .771-.283h14.4a3.6 3.6 0 0 1 1.778 6.729l5.271 9.489a1.2 1.2 0 0 1-1.049 1.783h-3.6v1.823l5.55 4.44a1.2 1.2 0 0 1 .249 1.6l-2.4 3.6-2-1.331L43 28.583l-3.191-2.553v2.3a1.2 1.2 0 0 1-1.2 1.2h-4.8v1.758l2.9 1.934a17.771 17.771 0 0 1 12.066 10.711h22.963a3.553 3.553 0 0 1 3.484 4.25l-3.858 19.294a3.54 3.54 0 0 1-1.071 1.9 3.6 3.6 0 0 1-2.884 5.752h-62.4a1.2 1.2 0 0 1-1.2-1.2V46.854A21.679 21.679 0 0 1 6.52 36.371zm2.1 1.163a19.273 19.273 0 0 0-2.41 9.32v.546l4.354 19.592a1.193 1.193 0 0 0 1.172.94h13.673v-4.8h-10.8v-2.4h2.216l-2.2-15.43L17 44.964l2.253 15.77h6.41L26.6 42.9l-1.016-3.048-11.043-8.836a19.278 19.278 0 0 0-5.922 6.519zm28.6 30.4a3.777 3.777 0 0 0-1.23-1.762 13.916 13.916 0 0 0-8.176-3.027v4.79zm4.712-.927l3.859-19.293a1.153 1.153 0 1 0-2.262-.452l-3.864 19.292a1.153 1.153 0 1 0 2.262.452zm-12.713-30.4L27.9 39.225l.769 2.308h2.735v-2zm2.315 7.327h-2.587l-.885 16.818a16.316 16.316 0 0 1 5.36 1.174zM26.2 37.269l1.278-2.555-7.143-5.1-2.965.593zm-5.655-30a4.786 4.786 0 0 0-1.024 3.95l1.95 10.4 1.748-1.049a5.387 5.387 0 0 1-.26-6.96l-.941-7.53a4.8 4.8 0 0 0-1.473 1.19zm6.664 6.665a3 3 0 1 0 3 3 3 3 0 0 0-3-3zm-2.841-8.4l.8 6.4a5.385 5.385 0 0 1 4.081 0l.8-6.4zm13.041 0h-4.941l-.3 2.4h5.241a1.2 1.2 0 1 0 0-2.4zm0 21.6v-7.2a1.2 1.2 0 0 1 1.2-1.2h2.761l-4.667-8.4h-4.835l-.409 3.275a5.4 5.4 0 0 1-6.019 8.426l-3.631 2.179v3.5l7.224 5.16 2.376-1.584v-2.46l-3.249-3.248 1.7-1.7 3.249 3.249zm-4.8 6.242l-1.879 1.252 1.879 2.505 1.879-2.505zm4.068 2.334l-2.868 3.824v3.136l2.164 20.558a16.125 16.125 0 0 1 1.511 1.072c.054.043.105.089.158.134L41.17 46.79a3.562 3.562 0 0 1 3.439-2.854h1.556a15.373 15.373 0 0 0-9.488-8.224zm36.192 12a1.138 1.138 0 0 0-.239-.957 1.15 1.15 0 0 0-.892-.422H48.015a3.544 3.544 0 0 1 .123 1.85L44.28 67.477a3.522 3.522 0 0 1-.127.456h23.256a3.613 3.613 0 0 1 .471.032v-.032a1.157 1.157 0 0 0 1.131-.927zm-4.26 23.82a1.2 1.2 0 0 0-1.2-1.2H43.2a3.591 3.591 0 0 1 0 2.4h24.209a1.2 1.2 0 0 0 1.2-1.197zm-28.8 1.2a1.2 1.2 0 1 0 0-2.4h-25.2a1.2 1.2 0 1 0 0 2.4zm-28.594 0a3.6 3.6 0 0 1 .013-2.438 3.573 3.573 0 0 1-3.008-2.778l-2.011-9.049v14.268z" transform="translate(-3.809 -3.133)"/></g></g></svg>