<svg xmlns="http://www.w3.org/2000/svg" width="72" height="72"><defs><clipPath id="clip-path"><path id="Rectangle_116" data-name="Rectangle 116" transform="translate(1000 986)" fill="#fff" d="M0 0h72v72H0z"/></clipPath></defs><g id="Mask_Group_72" data-name="Mask Group 72" transform="translate(-1000 -986)" clip-path="url(#clip-path)"><path id="lamp_9_" data-name="lamp (9)" d="M68.4 42h-3.6V30a6.007 6.007 0 0 0-6-6H39.6a6.007 6.007 0 0 0-6 6v12H30a3.6 3.6 0 0 0-3.6 3.6v12a5.991 5.991 0 0 0 5.62 5.962L30.295 69.6H19.079a6.01 6.01 0 0 0-5.879-4.8h-2.4V9.554a7.154 7.154 0 0 1 14.237-1.011l.021.146a3.578 3.578 0 0 0-2.164 3.911l.327 1.937-3.208 5.51a2.4 2.4 0 0 0 2.064 3.609 2.437 2.437 0 0 0 .41-.035L34 21.678a2.4 2.4 0 0 0 1.162-4.188l-4.842-4.15-.327-1.94a3.593 3.593 0 0 0-2.528-2.838l-.052-.362A9.554 9.554 0 0 0 8.4 9.554V64.8H6v-1.2a1.2 1.2 0 1 0-2.4 0v1.708A6 6 0 0 0 0 70.8 1.2 1.2 0 0 0 1.2 72h69.6a1.2 1.2 0 0 0 0-2.4h-2.7l-1.725-6.038A5.991 5.991 0 0 0 72 57.6v-12a3.6 3.6 0 0 0-3.6-3.6zM33.6 19.312l-11.513 1.946 3.144-5.4 3.625-.612 4.752 4.064zm-5.772-6.326l-2.366.4-.2-1.183a1.2 1.2 0 0 1 .983-1.383 1.231 1.231 0 0 1 .2-.016 1.2 1.2 0 0 1 1.183 1zM39.6 26.4h19.2a3.6 3.6 0 0 1 3.6 3.6v12.222A3.593 3.593 0 0 0 60 45.6v2.431a5.941 5.941 0 0 0-3.6-1.231h-4.3l2.751-2.751a1.2 1.2 0 0 0-1.7-1.7L50.4 45.1v-5.5a1.2 1.2 0 0 0-2.4 0v5.5l-2.751-2.751a1.2 1.2 0 0 0-1.7 1.7L46.3 46.8H42a5.941 5.941 0 0 0-3.6 1.231V45.6a3.593 3.593 0 0 0-2.4-3.378V30a3.6 3.6 0 0 1 3.6-3.6zm16.8 22.8a3.6 3.6 0 0 1 3.6 3.6V54H38.4v-1.2a3.6 3.6 0 0 1 3.6-3.6zm1.7 14.4l3.429 6H36.868l3.428-6zm1.9-2.4H38.4v-4.8H60zm-31.2-3.6v-12a1.2 1.2 0 0 1 1.2-1.2h4.8a1.2 1.2 0 0 1 1.2 1.2v15.6h-3.6a3.6 3.6 0 0 1-3.6-3.6zm-26.193 12A3.605 3.605 0 0 1 6 67.2h7.2a3.606 3.606 0 0 1 3.394 2.4zm30.184 0l1.714-6h3.027l-3.428 6zm31.5 0l-3.428-6h3.027l1.714 6zm5.3-12A3.6 3.6 0 0 1 66 61.2h-3.6V45.6a1.2 1.2 0 0 1 1.2-1.2h4.8a1.2 1.2 0 0 1 1.2 1.2zm0 0" transform="translate(1000 986)"/></g></svg>