<svg xmlns="http://www.w3.org/2000/svg" width="50" height="50"><defs><clipPath id="clip-path"><path id="Rectangle_136" data-name="Rectangle 136" transform="translate(374 797)" fill="#6b6b6b" d="M0 0h50v50H0z"/></clipPath></defs><g id="Mask_Group_61" data-name="Mask Group 61" transform="translate(-374 -797)" clip-path="url(#clip-path)"><g id="courier_2_" data-name="courier (2)" transform="translate(374 797)"><g id="Group_131" data-name="Group 131"><g id="Group_130" data-name="Group 130"><path id="Path_219" data-name="Path 219" d="M12.578 32.946a1.042 1.042 0 0 0-1.468.123c-.147.174-.289.348-.423.519a1.042 1.042 0 1 0 1.641 1.284c.117-.15.243-.3.373-.458a1.042 1.042 0 0 0-.123-1.468z"/><path id="Path_220" data-name="Path 220" d="M25 6.25c.178 0 .355.006.526.017h.069a1.042 1.042 0 0 0 .067-2.081 10.297 10.297 0 0 0-.663-.021A1.042 1.042 0 0 0 25 6.25z"/><path id="Path_221" data-name="Path 221" d="M48.958 47.917H47.4v-3.126a22.38 22.38 0 0 0-11.318-19.462 25.181 25.181 0 0 0 1.1-4.692c.056-.339.115-.623.184-.952.073-.35.158-.758.256-1.322h.723a1.042 1.042 0 0 0 1.042-1.042 4.133 4.133 0 0 0-1.23-2.912c0-.024.006-.048.008-.071a18.8 18.8 0 0 0 .085-.8 10.869 10.869 0 0 0-.3-3.639A13.976 13.976 0 0 0 33 2.606a13.57 13.57 0 0 0-16 0 13.977 13.977 0 0 0-4.957 7.3 10.724 10.724 0 0 0-.3 3.552c0 .1.03.36.083.884l.008.076a4.129 4.129 0 0 0-1.223 2.9 1.042 1.042 0 0 0 1.042 1.042h.723c.1.556.18.957.257 1.324.068.328.128.612.183.95a25.186 25.186 0 0 0 1.1 4.692A22.381 22.381 0 0 0 2.6 44.791v3.125H1.042a1.042 1.042 0 1 0 0 2.083h47.916a1.042 1.042 0 1 0 0-2.083zM14.043 10.5a11.34 11.34 0 0 1 21.915 0 8.174 8.174 0 0 1 .233 2.465 13.731 13.731 0 0 0-2.052-.874 6.78 6.78 0 0 0-.277-1.312 9.451 9.451 0 0 0-4.968-5.793 1.042 1.042 0 0 0-.866 1.9 7.4 7.4 0 0 1 3.856 4.549l.014.046A32.978 32.978 0 0 0 25 10.79c-4.2 0-8.416.694-11.19 2.176a8.179 8.179 0 0 1 .233-2.466zm-1.03 5.779a6.562 6.562 0 0 1 3.169-2.1A27.129 27.129 0 0 1 25 12.873a27.125 27.125 0 0 1 8.819 1.309 6.56 6.56 0 0 1 3.169 2.1zm22.495 2.083c-.065.35-.124.633-.179.9-.07.338-.137.657-.2 1.039-.875 5.313-1.427 5.664-3.749 7.141-.388.247-.826.525-1.314.856a9.6 9.6 0 0 1-10.131 0c-.488-.33-.926-.609-1.314-.856-2.323-1.478-2.874-1.828-3.749-7.142-.063-.382-.129-.7-.2-1.037-.055-.264-.114-.547-.179-.9h21.014zM37.5 47.917h-25V43.75h11.458v2.084a1.042 1.042 0 1 0 2.083 0V43.75H37.5v4.167zm-23.071-6.25l2.6-2.083h6.926v2.083zm11.614 0v-2.084h6.926l2.6 2.083zm19.27 6.25h-5.73v-5.208a1.038 1.038 0 0 0-.38-.8c-.017-.013-.032-.028-.05-.04l-5.168-4.134a1.041 1.041 0 0 0-.651-.228H16.667a1.042 1.042 0 0 0-.651.228l-5.209 4.166-.027.023-.043.039-.025.026-.039.042-.023.027a.897.897 0 0 0-.037.049l-.018.025a.785.785 0 0 0-.044.073l-.019.037-.021.043-.018.044-.015.04-.015.046-.013.05a1.703 1.703 0 0 0-.022.123c-.002.02 0 .025 0 .038v5.292H4.687v-3.127a20.238 20.238 0 0 1 10.242-17.643 7.735 7.735 0 0 0 1.729 1.5 18.39 18.39 0 0 0-2.905 1.871 1.042 1.042 0 1 0 1.288 1.637 16.3 16.3 0 0 1 2.636-1.69l.993-.509.128.086c.021.014.042.028.064.04A12.214 12.214 0 0 0 25 31.833a12.217 12.217 0 0 0 6.14-1.752l.064-.04c.475-.322.911-.6 1.3-.844a10.155 10.155 0 0 0 2.573-2.05 20.238 20.238 0 0 1 10.235 17.644z"/></g></g></g></g></svg>