<svg xmlns="http://www.w3.org/2000/svg" width="40" height="40"><defs><clipPath id="clip-path"><path id="Rectangle_146" data-name="Rectangle 146" transform="translate(349 880)" fill="#535353" d="M0 0h40v40H0z"/></clipPath></defs><g id="Mask_Group_77" data-name="Mask Group 77" transform="translate(-349 -880)" clip-path="url(#clip-path)"><path id="credit-card_3_" data-name="credit-card (3)" d="M34.839 5.161H5.161A5.167 5.167 0 0 0 0 10.323v19.354a5.167 5.167 0 0 0 5.161 5.161h29.678A5.167 5.167 0 0 0 40 29.677V10.323a5.167 5.167 0 0 0-5.161-5.162zM5.161 7.742h29.678a2.584 2.584 0 0 1 2.581 2.581H2.581a2.584 2.584 0 0 1 2.58-2.581zM2.581 12.9h34.838v3.226H2.581zm32.258 19.358H5.161a2.584 2.584 0 0 1-2.581-2.581V18.71h34.839v10.967a2.584 2.584 0 0 1-2.58 2.581zM10.323 21.29H9.032a3.229 3.229 0 0 0-3.226 3.226v1.29a3.229 3.229 0 0 0 3.226 3.226h1.29a3.229 3.229 0 0 0 3.226-3.226v-1.29a3.229 3.229 0 0 0-3.225-3.226zm.645 4.516a.646.646 0 0 1-.645.645H9.032a.646.646 0 0 1-.645-.645v-1.29a.646.646 0 0 1 .645-.645h1.29a.646.646 0 0 1 .645.645zm23.226-3.226a1.29 1.29 0 0 1-1.29 1.29H21.29a1.29 1.29 0 0 1 0-2.581H32.9a1.29 1.29 0 0 1 1.294 1.292zm-5.806 5.161a1.29 1.29 0 0 1-1.29 1.29H21.29a1.29 1.29 0 0 1 0-2.581h5.81a1.29 1.29 0 0 1 1.287 1.292z" transform="translate(349 875)"/></g></svg>