<svg xmlns="http://www.w3.org/2000/svg" width="40" height="31"><defs><clipPath id="clip-path"><path id="Rectangle_146" data-name="Rectangle 146" transform="translate(355 855)" fill="#535353" d="M0 0h40v31H0z"/></clipPath></defs><g id="Mask_Group_74" data-name="Mask Group 74" transform="translate(-355 -855)" clip-path="url(#clip-path)"><g id="delivery-truck_2_" data-name="delivery-truck (2)" transform="translate(355 855)"><g id="Group_215" data-name="Group 215" transform="translate(0 -4)"><path id="Path_260" data-name="Path 260" d="M39.7 18.908l-1.035-3.1a5.852 5.852 0 0 0-5.559-4.008h-7.168V8.281a3.612 3.612 0 0 0-3.516-3.516H3.516A3.52 3.52 0 0 0 0 8.281v18.75a3.52 3.52 0 0 0 3.516 3.516h1.172a4.657 4.657 0 0 0 .631 2.344H1.172a1.172 1.172 0 0 0 0 2.344h8.2a4.693 4.693 0 0 0 4.688-4.687h11.878a4.657 4.657 0 0 0 .631 2.344h-4.147a1.172 1.172 0 0 0 0 2.344h8.2a4.693 4.693 0 0 0 4.688-4.687h1.172A3.52 3.52 0 0 0 40 27.031v-6.27a5.849 5.849 0 0 0-.3-1.853zM9.375 32.891a2.344 2.344 0 1 1 2.344-2.344 2.346 2.346 0 0 1-2.344 2.344zM23.594 28.2H13.432a4.683 4.683 0 0 0-8.114 0h-1.8a1.173 1.173 0 0 1-1.172-1.172v-5.856h3.513a1.172 1.172 0 0 0 0-2.344H2.344v-2.344h8.2a1.172 1.172 0 0 0 0-2.344h-8.2V11.8h12.89a1.172 1.172 0 0 0 0-2.344H2.344V8.281a1.173 1.173 0 0 1 1.172-1.172h18.9c.139.057 1.181.173 1.181 1.172zm7.031 4.688a2.344 2.344 0 1 1 2.344-2.344 2.346 2.346 0 0 1-2.344 2.347zm7.031-5.859a1.173 1.173 0 0 1-1.172 1.171h-1.8a4.683 4.683 0 0 0-8.114 0h-.631V14.141h2.344V20a3.52 3.52 0 0 0 3.517 3.516h5.859zm0-5.859h-1.62l.324-.648a1.172 1.172 0 1 0-2.1-1.048l-.848 1.7H31.8A1.173 1.173 0 0 1 30.625 20v-5.859h2.481a3.511 3.511 0 0 1 3.335 2.4l1.035 3.1a3.51 3.51 0 0 1 .18 1.112z"/></g></g></g></svg>