<svg xmlns="http://www.w3.org/2000/svg" width="100" height="80"><defs><clipPath id="clip-path"><path id="Rectangle_135" data-name="Rectangle 135" transform="translate(725 275)" fill="#fff" d="M0 0h100v80H0z"/></clipPath></defs><g id="Mask_Group_60" data-name="Mask Group 60" transform="translate(-725 -275)" clip-path="url(#clip-path)"><g id="logistic_1_" data-name="logistic (1)" transform="translate(725 275.09)"><path id="Path_217" data-name="Path 217" d="M96.541 70.622l-1.8-10.338a10.162 10.162 0 0 0-.581-2.11A9.921 9.921 0 0 0 84.991 52h-13.3a1.611 1.611 0 0 0-1.545 1.561v22.916h-1.9v-45.37a9.882 9.882 0 0 0-9.905-9.9H15.965a9.923 9.923 0 0 0-9.953 9.9v58.776A2.407 2.407 0 0 0 8.333 92.3h8.834a10.491 10.491 0 0 0 20.693 0h38.213a10.491 10.491 0 0 0 20.693 0h6.926a2.407 2.407 0 0 0 2.321-2.416v-7.42c0-5.215-4.184-11.48-9.472-11.842zM8.966 31.107a6.966 6.966 0 0 1 7-6.95h42.377a6.926 6.926 0 0 1 6.952 6.95v45.37H8.966zM35.04 90.693a7.529 7.529 0 0 1-15.054-.009v-.169a7.5 7.5 0 0 1 2.026-5.136l.016-.017.028-.029a7.522 7.522 0 0 1 10.917 0l.023.024.021.022a7.5 7.5 0 0 1 2.027 5.137l-.004.177zm35.107-1.347h-32.23a10.2 10.2 0 0 0-2.743-5.936c-.007-.008-.016-.065-.023-.072l-.044-.046a10.476 10.476 0 0 0-15.186 0l-.045.047c-.007.008-.015.063-.022.071a10.2 10.2 0 0 0-2.744 5.936H8.966V79.43h61.182zm14.769-34.388h.076a6.976 6.976 0 0 1 6.434 4.342 6.881 6.881 0 0 1 .4 1.452l1.714 9.818h-8.624zm-11.814 0h8.861V70.57H73.1zm20.844 35.735a7.529 7.529 0 0 1-15.054-.009v-.169a7.529 7.529 0 1 1 15.057 0l-.003.178zm9.113-1.347h-6.237a10.48 10.48 0 0 0-20.806 0H73.1V73.523h22.96c3.085 0 7 4.228 7 8.941z" transform="translate(-6.013 -21.202)"/><path id="Path_218" data-name="Path 218" d="M60.718 44.549l-15.844-9.135a1.5 1.5 0 0 0-1.487 0L27.6 44.549a1.444 1.444 0 0 0-.7 1.279V64.1a1.44 1.44 0 0 0 .7 1.279l15.8 9.135a1.44 1.44 0 0 0 .728.2 1.458 1.458 0 0 0 .733-.2l15.859-9.137a1.514 1.514 0 0 0 .78-1.277V45.829a1.516 1.516 0 0 0-.782-1.28zM44.115 38.4l4.8 2.772L36.048 48.6l-4.8-2.772zM42.72 70.677l-12.868-7.431V48.384l12.869 7.43zm1.395-17.419L39 50.3l12.869-7.429 5.113 2.952zm14.429 9.989l-12.869 7.43V55.815l12.869-7.431z" transform="translate(-12.974 -25.874)"/></g></g></svg>