<svg id="Component_25_1" data-name="Component 25 – 1" xmlns="http://www.w3.org/2000/svg" width="181.7" height="146.687"><path id="Rectangle_44" data-name="Rectangle 44" transform="rotate(-14.98 118.139 -33.264)" fill="#fab800" d="M0 0h113.852v113.852H0z"/><g id="furniture-and-household_1_" data-name="furniture-and-household (1)" transform="translate(67.026 98.183)"><path id="Path_116" data-name="Path 116" d="M76.615 109.133v-2.486A10.659 10.659 0 0 0 65.968 96H23.379a10.659 10.659 0 0 0-10.647 10.647v2.486A5.922 5.922 0 0 0 8 114.928v22.477a1.183 1.183 0 0 0 1.183 1.183h1.183v4.732a1.183 1.183 0 0 0 1.183 1.183H15.1a1.182 1.182 0 0 0 1.159-.951l.994-4.964H72.1l.994 4.964a1.182 1.182 0 0 0 1.159.951H77.8a1.183 1.183 0 0 0 1.183-1.183v-4.732h1.183a1.183 1.183 0 0 0 1.183-1.183v-22.477a5.922 5.922 0 0 0-4.732-5.8zM15.1 106.647a8.29 8.29 0 0 1 8.281-8.281h42.587a8.29 8.29 0 0 1 8.281 8.281v2.486a5.923 5.923 0 0 0-4.732 5.8v7.1H19.83v-7.1a5.922 5.922 0 0 0-4.732-5.8zm54.419 17.745v7.1H19.83v-7.1zm-55.391 17.746h-1.4v-3.549h2.106zm62.487 0h-1.4l-.71-3.549h2.106zm2.366-5.915H10.366v-21.295a3.549 3.549 0 0 1 7.1 0v17.745a1.183 1.183 0 0 0 1.183 1.183H70.7a1.183 1.183 0 0 0 1.183-1.183v-17.745a3.549 3.549 0 0 1 7.1 0z" transform="translate(-8 -96)"/><path id="Path_117" data-name="Path 117" d="M235.549 175.1a3.549 3.549 0 1 0-3.549-3.551 3.549 3.549 0 0 0 3.549 3.549zm0-4.732a1.183 1.183 0 1 1-1.183 1.183 1.183 1.183 0 0 1 1.183-1.185z" transform="translate(-198.875 -157.353)"/><path id="Path_118" data-name="Path 118" d="M139.549 175.1a3.549 3.549 0 1 0-3.549-3.551 3.549 3.549 0 0 0 3.549 3.549zm0-4.732a1.183 1.183 0 1 1-1.183 1.183 1.183 1.183 0 0 1 1.183-1.185z" transform="translate(-117.072 -157.353)"/><path id="Path_119" data-name="Path 119" d="M331.549 175.1a3.549 3.549 0 1 0-3.549-3.551 3.549 3.549 0 0 0 3.549 3.549zm0-4.732a1.183 1.183 0 1 1-1.183 1.183 1.183 1.183 0 0 1 1.183-1.185z" transform="translate(-280.679 -157.353)"/><path id="Path_120" data-name="Path 120" d="M106.647 312h-9.464a1.183 1.183 0 1 0 0 2.366h9.464a1.183 1.183 0 1 0 0-2.366z" transform="translate(-82.987 -280.059)"/><path id="Path_121" data-name="Path 121" d="M186.366 312h-1.183a1.183 1.183 0 1 0 0 2.366h1.183a1.183 1.183 0 1 0 0-2.366z" transform="translate(-157.974 -280.059)"/></g><g id="floor-lamp" transform="translate(121.769 45.168)"><path id="Path_122" data-name="Path 122" d="M107.807 107.619l-2.346-4.692a1.175 1.175 0 0 0-1.05-.648H93.856l-.112-88.415A5.87 5.87 0 0 0 87.879 8H69.112a5.87 5.87 0 0 0-5.864 5.864v1.173h-1.173A1.173 1.173 0 0 0 60.9 16.21v6.246A16.447 16.447 0 0 0 48 38.5a1.173 1.173 0 0 0 1.173 1.173h8.31a7.036 7.036 0 0 0 13.875 0h8.31a1.173 1.173 0 0 0 1.173-1.173 16.447 16.447 0 0 0-12.9-16.039V16.21a1.173 1.173 0 0 0-1.173-1.173h-1.175v-1.173a3.523 3.523 0 0 1 3.519-3.519h18.767a3.523 3.523 0 0 1 3.521 3.519l.112 88.415H73.916a1.174 1.174 0 0 0-1.05.648l-2.346 4.692a1.173 1.173 0 0 0 1.05 1.7h35.187a1.173 1.173 0 0 0 1.05-1.7zM63.248 17.383h2.346v4.692h-2.346zm1.173 25.8a4.7 4.7 0 0 1-4.544-3.519h9.087a4.7 4.7 0 0 1-4.543 3.523zm14.026-5.864H50.394a14.075 14.075 0 0 1 28.053 0zm-4.979 69.649l1.173-2.346h29.047l1.173 2.346z" transform="translate(-48 -8)"/><path id="Path_123" data-name="Path 123" d="M80.21 184h-7.037a1.173 1.173 0 1 0 0 2.346h7.037a1.173 1.173 0 1 0 0-2.346z" transform="translate(-68.481 -158.196)"/><path id="Path_124" data-name="Path 124" d="M145.173 184a1.173 1.173 0 1 0 0 2.346h1.173a1.173 1.173 0 1 0 0-2.346z" transform="translate(-129.925 -158.196)"/></g><g id="furniture-and-household" transform="translate(37.468 2.941)"><path id="Path_125" data-name="Path 125" d="M174.674 416h-5.721a.953.953 0 0 0 0 1.907h5.721a.953.953 0 1 0 0-1.907z" transform="translate(-148.93 -367.373)"/><path id="Path_126" data-name="Path 126" d="M241.907 416h-.953a.953.953 0 0 0 0 1.907h.953a.953.953 0 0 0 0-1.907z" transform="translate(-212.349 -367.373)"/><path id="Path_127" data-name="Path 127" d="M62.229 8H8.953a.953.953 0 0 0 0 1.907h20.023v.953a4.772 4.772 0 0 0 4.767 4.767H36.6v22.884h-1.9a.953.953 0 0 0-.953.953v4.426L20.612 59.835a.955.955 0 0 0 .737 1.56h9.6a6.674 6.674 0 0 0 13.21 0h9.6a.955.955 0 0 0 .737-1.56L41.372 43.89v-4.425a.953.953 0 0 0-.953-.953h-1.908V15.628h2.86a4.772 4.772 0 0 0 4.767-4.767v-.954h16.09a.953.953 0 1 0 0-1.907zM37.558 65.209a4.776 4.776 0 0 1-4.672-3.814h9.344a4.776 4.776 0 0 1-4.672 3.814zm14.189-5.721H23.369l11.779-14.3h4.82zm-12.282-19.07v2.86h-3.814v-2.86zm4.767-29.558a2.864 2.864 0 0 1-2.86 2.86h-7.628a2.864 2.864 0 0 1-2.86-2.86v-.953h13.348z" transform="translate(-8 -8)"/><path id="Path_128" data-name="Path 128" d="M481.907 8h-.953a.953.953 0 1 0 0 1.907h.953a.953.953 0 1 0 0-1.907z" transform="translate(-423.745 -8)"/></g><g id="furniture-and-household_2_" data-name="furniture-and-household (2)" transform="translate(0 74.099)"><path id="Path_129" data-name="Path 129" d="M147.118 39.465h-6.028a3.472 3.472 0 0 0 .2-1.165v-6.993a1.165 1.165 0 0 0-1.165-1.165h-8.158a1.165 1.165 0 0 0-1.165 1.165V38.3a3.473 3.473 0 0 0 .2 1.165h-4.862v-3.5a1.165 1.165 0 0 0-1.165-1.165h-3.5v-8.154h8.158a1.165 1.165 0 0 0 1.167-1.166V9.165A1.165 1.165 0 0 0 129.638 8h-18.646a1.165 1.165 0 0 0-1.165 1.165V25.48a1.165 1.165 0 0 0 1.165 1.165h8.158V34.8h-3.5a1.165 1.165 0 0 0-1.165 1.165v3.5h-9.323A1.165 1.165 0 0 0 104 40.63v38.457a1.165 1.165 0 0 0 1.165 1.165h4.661a1.165 1.165 0 0 0 1.13-.883l.945-3.779h28.479l.945 3.779a1.165 1.165 0 0 0 1.13.883h4.661a1.165 1.165 0 0 0 1.165-1.165V40.63a1.165 1.165 0 0 0-1.163-1.165zm-13.984-6.992h5.827V38.3a1.167 1.167 0 0 1-1.165 1.165h-3.5a1.167 1.167 0 0 1-1.165-1.165zm-20.977-8.158V10.331h16.315v13.984zm4.661 12.819h6.992v2.331h-6.992zm-7.9 40.788h-2.586v-2.331h3.168zm37.037 0h-2.586l-.583-2.331h3.168zm0-4.661h-39.624V41.8h39.622z" transform="translate(-104 -8)"/><path id="Path_130" data-name="Path 130" d="M129.165 261.984h34.961a1.165 1.165 0 0 0 1.165-1.165v-11.654a1.165 1.165 0 0 0-1.165-1.165h-34.961a1.165 1.165 0 0 0-1.165 1.165v11.654a1.165 1.165 0 0 0 1.165 1.165zm1.165-11.654h32.63v9.323h-32.63z" transform="translate(-124.504 -213.039)"/><path id="Path_131" data-name="Path 131" d="M226.488 272h-9.323a1.165 1.165 0 1 0 0 2.331h9.323a1.165 1.165 0 1 0 0-2.331z" transform="translate(-199.685 -233.543)"/><path id="Path_132" data-name="Path 132" d="M165.292 364.819v-11.654a1.165 1.165 0 0 0-1.166-1.165h-34.961a1.165 1.165 0 0 0-1.165 1.165v11.654a1.165 1.165 0 0 0 1.165 1.165h34.961a1.165 1.165 0 0 0 1.166-1.165zm-2.331-1.165h-32.63v-9.323h32.63z" transform="translate(-124.504 -301.889)"/><path id="Path_133" data-name="Path 133" d="M217.165 378.331h9.323a1.165 1.165 0 0 0 0-2.331h-9.323a1.165 1.165 0 1 0 0 2.331z" transform="translate(-199.685 -322.393)"/></g></svg>