<svg xmlns="http://www.w3.org/2000/svg" width="50" height="50"><defs><clipPath id="clip-path"><path id="Rectangle_136" data-name="Rectangle 136" transform="translate(349 860)" fill="#6b6b6b" d="M0 0h50v50H0z"/></clipPath></defs><g id="Mask_Group_82" data-name="Mask Group 82" transform="translate(-349 -860)" clip-path="url(#clip-path)"><g id="gift" transform="translate(349 860)"><g id="Group_237" data-name="Group 237"><path id="Path_279" data-name="Path 279" d="M44.136 26.822v-6.21H45.6a1.464 1.464 0 0 0 1.464-1.464v-5.76a4.4 4.4 0 0 0-4.393-4.393h-5.33a5.947 5.947 0 1 0-10.332-5.887L24.851 7.1l-2.159-4A5.947 5.947 0 1 0 12.36 8.995H7.329a4.4 4.4 0 0 0-4.393 4.393v5.76A1.464 1.464 0 0 0 4.4 20.613h1.464V29.5H1.471a1.464 1.464 0 0 0-1.465 1.462v17.574A1.464 1.464 0 0 0 1.471 50h5.858a1.464 1.464 0 0 0 1.44-1.2 34.561 34.561 0 0 0 9.012 1.2h13.077a10.3 10.3 0 0 0 8.182-4.075c.03-.036 10.048-12.291 10.076-12.329a4.392 4.392 0 0 0-4.98-6.774zm-38.272 10v10.249H2.935V32.426h2.929zm36.807-24.9a1.466 1.466 0 0 1 1.464 1.464v4.3H29.393v-5.76zm-1.464 8.689v8.58l-6.137 6.38a4.4 4.4 0 0 0-4.212-3.147h-1.464V20.613zM29.584 4.5a2.99 2.99 0 0 1 2.508-1.571 3.021 3.021 0 0 1 2.791 4.46 2.968 2.968 0 0 1-2.652 1.6h-5.074zm-6.048 7.42h2.929v20.5h-2.372a3.9 3.9 0 0 1-.557-.041V11.924zm-6.07-8.991h.143A2.989 2.989 0 0 1 20.116 4.5l2.428 4.494h-5.073a2.968 2.968 0 0 1-2.652-1.6 3.021 3.021 0 0 1 2.647-4.465zM5.864 17.684v-4.3a1.466 1.466 0 0 1 1.464-1.464h13.279v5.76H5.864zm14.742 2.929v10.13a10.389 10.389 0 0 0-11.813 0v-10.13zm26.183 11.205L36.754 44.094l-.038.048a7.358 7.358 0 0 1-5.858 2.929H17.781a31.7 31.7 0 0 1-8.988-1.307V34.553l1.021-.9a7.412 7.412 0 0 1 9.772 0 6.84 6.84 0 0 0 4.507 1.7h6.765a1.464 1.464 0 0 1 0 2.929H20.45a1.464 1.464 0 0 0 0 2.929h11.39a4.408 4.408 0 0 0 3.206-1.389l9.467-9.843.007-.008.009-.008a1.467 1.467 0 0 1 2.537 1 1.45 1.45 0 0 1-.277.855z"/></g></g></g></svg>