<svg id="Component_24_1" data-name="Component 24 – 1" xmlns="http://www.w3.org/2000/svg" width="60" height="60"><defs><clipPath id="clip-path"><path id="Rectangle_123" data-name="Rectangle 123" transform="translate(85 374)" fill="#fff" d="M0 0h60v60H0z"/></clipPath></defs><ellipse id="Ellipse_23" data-name="Ellipse 23" cx="20.5" cy="20" rx="20.5" ry="20" transform="translate(9 8)" fill="#fab800"/><g id="Mask_Group_51" data-name="Mask Group 51" transform="translate(-85 -374)" clip-path="url(#clip-path)"><g id="kitchen" transform="translate(85 374)"><path id="Path_175" data-name="Path 175" d="M59 20H41a1 1 0 0 0-1 1v23H18v-3a1 1 0 0 0-1-1h-3v2h2v2h-4v-4h-2v4H6v-2h2v-2H5a1 1 0 0 0-1 1v3H1a1 1 0 0 0-1 1v22a1 1 0 0 0 1 1h58a1 1 0 0 0 1-1V21a1 1 0 0 0-1-1zm-17 2h16v12H42zm-2 28H22v-4h18zM2 46h18v4H2zm0 6h18v14H2zm20 0h8v14h-8zm10 0h8v14h-8zm10 14V36h16v30zm0 0" transform="translate(0 -8)"/><path id="Path_176" data-name="Path 176" d="M73.333 30h2v4h-2zm0 0" transform="translate(-29.333 -12)"/><path id="Path_177" data-name="Path 177" d="M73.333 53.333h2v4h-2zm0 0" transform="translate(-29.333 -21.333)"/><path id="Path_178" data-name="Path 178" d="M8.667 66a1 1 0 1 1-1-1 1 1 0 0 1 1 1zm0 0" transform="translate(-2.667 -26)"/><path id="Path_179" data-name="Path 179" d="M15.333 66a1 1 0 1 1-1-1 1 1 0 0 1 1 1zm0 0" transform="translate(-5.333 -26)"/><path id="Path_180" data-name="Path 180" d="M22 66a1 1 0 1 1-1-1 1 1 0 0 1 1 1zm0 0" transform="translate(-8 -26)"/><path id="Path_181" data-name="Path 181" d="M28.667 66a1 1 0 1 1-1-1 1 1 0 0 1 1 1zm0 0" transform="translate(-10.667 -26)"/><path id="Path_182" data-name="Path 182" d="M1 19h20a1 1 0 0 0 1-1v-3a1 1 0 0 0-.293-.707l-4-4A1 1 0 0 0 17 10h-1V1a1 1 0 0 0-1-1H7a1 1 0 0 0-1 1v9H5a1 1 0 0 0-.707.293l-4 4A1 1 0 0 0 0 15v3a1 1 0 0 0 1 1zM8 2h6v8H8zM2 15.414L5.414 12h11.172L20 15.414V17H2zm0 0"/><path id="Path_183" data-name="Path 183" d="M19.667 76.667h-12a1 1 0 0 0-1 1v8a1 1 0 0 0 1 1h12a1 1 0 0 0 1-1v-8a1 1 0 0 0-1-1zm-1 8h-10v-6h10zm0 0" transform="translate(-2.667 -30.667)"/><path id="Path_184" data-name="Path 184" d="M48.333 65h4v2h-4zm0 0" transform="translate(-19.333 -26)"/><path id="Path_185" data-name="Path 185" d="M43.333 81.667h2v4h-2zm0 0" transform="translate(-17.333 -32.667)"/><path id="Path_186" data-name="Path 186" d="M56.667 81.667h2v4h-2zm0 0" transform="translate(-22.667 -32.667)"/><path id="Path_187" data-name="Path 187" d="M39.333 25h6a1 1 0 0 0 1-1v-1a4 4 0 0 0-3-3.858V0h-2v19.142a4 4 0 0 0-3 3.858v1a1 1 0 0 0 1 1zm3-4a2 2 0 0 1 2 2h-4a2 2 0 0 1 2-2zm0 0" transform="translate(-15.333)"/><path id="Path_188" data-name="Path 188" d="M51 17h6a1 1 0 0 0 1-1v-1a4 4 0 0 0-3-3.858V0h-2v11.142A4 4 0 0 0 50 15v1a1 1 0 0 0 1 1zm3-4a2 2 0 0 1 2 2h-4a2 2 0 0 1 2-2zm0 0" transform="translate(-20)"/></g></g></svg>