<svg id="Component_22_1" data-name="Component 22 – 1" xmlns="http://www.w3.org/2000/svg" width="60" height="60"><defs><clipPath id="clip-path"><path id="Rectangle_123" data-name="Rectangle 123" transform="translate(85 374)" fill="#fff" d="M0 0h60v60H0z"/></clipPath></defs><ellipse id="Ellipse_3" data-name="Ellipse 3" cx="20.5" cy="20" rx="20.5" ry="20" transform="translate(10 8)" fill="#fab800"/><g id="Mask_Group_49" data-name="Mask Group 49" transform="translate(-85 -374)" clip-path="url(#clip-path)"><g id="sofa_1_" data-name="sofa (1)" transform="translate(85 378)"><path id="Path_164" data-name="Path 164" d="M57 48.1h-4v-5a3 3 0 0 0-3-3H10a3 3 0 0 0-3 3v5H3a3 3 0 0 0-3 3v12a1 1 0 0 0 1 1h5.72l-.69 2.758A1 1 0 0 0 7 68.1h3a1 1 0 0 0 .8-.4l2.7-3.6h33l2.7 3.6a1 1 0 0 0 .8.4h3a1 1 0 0 0 .97-1.242l-.69-2.758H59a1 1 0 0 0 1-1v-12a3 3 0 0 0-3-3zm-6-5v11.188a2.964 2.964 0 0 0-1-.184H31v-12h19a1 1 0 0 1 1 .996zm-38 19H9v-5a1 1 0 0 1 1-1h19v6zm-4-19a1 1 0 0 1 1-1h19v12H10a2.964 2.964 0 0 0-1 .184zm-7 8a1 1 0 0 1 1-1h4v12H2zm7.5 15H8.281l.5-2H11zm21.5-10h19a1 1 0 0 1 1 1v5H31zm19.5 10l-1.5-2h2.219l.5 2zm7.5-4h-5v-12h4a1 1 0 0 1 1 1zm0 0" transform="translate(0 -16.104)"/><path id="Path_165" data-name="Path 165" d="M23.333 51.771h2v2h-2zm0 0" transform="translate(-9.333 -20.771)"/><path id="Path_166" data-name="Path 166" d="M36.665 51.771h2v2h-2zm0 0" transform="translate(-14.666 -20.771)"/><path id="Path_167" data-name="Path 167" d="M60 51.771h2v2h-2zm0 0" transform="translate(-24 -20.771)"/><path id="Path_168" data-name="Path 168" d="M73.333 51.771h2v2h-2zm0 0" transform="translate(-29.333 -20.771)"/><path id="Path_169" data-name="Path 169" d="M14 1.1v8h-3a1 1 0 0 0-1 1v4a1 1 0 0 0 1 1h3v4a1 1 0 0 0 1 1h4a1 1 0 0 0 1-1v-4h28v4a1 1 0 0 0 1 1h4a1 1 0 0 0 1-1v-4h3a1 1 0 0 0 1-1v-4a.994.994 0 0 0-.3-.713 2.936 2.936 0 0 0-.48-3.287 2.987 2.987 0 0 0-2.22-5h-7a1 1 0 0 0-.9 1.447 3.486 3.486 0 0 1 0 3.106c-.013.026-.017.054-.028.081s-.03.077-.041.117a1.08 1.08 0 0 0-.022.125.783.783 0 0 0 0 .248 1.079 1.079 0 0 0 .022.125c.011.04.026.078.041.117s.015.055.028.081a3.471 3.471 0 0 1 .2 2.553h-9.423a.987.987 0 0 0 .054-.816L34.972.739A1 1 0 0 0 33.61.2l-1.635.78A.988.988 0 0 0 31 .1h-8a1 1 0 0 0-1 1v1h-2v-1a1 1 0 0 0-1-1h-4a1 1 0 0 0-1 1zm4 17h-2v-3h2zm34 0h-2v-3h2zm4-5H12v-2h44zm-6.622-10H55a1 1 0 0 1 0 2h-5.622a5.507 5.507 0 0 0 0-2zm0 4H55a1 1 0 0 1 0 2h-5.622a5.507 5.507 0 0 0 0-2zM32 9.1V7.846l.493 1.254zm1.5-6.635l2.227 5.682-1.227.592-2.229-5.682zM30 9.1h-2v-7h2zm-6-7h2v7h-2zm-2 2v5h-2v-5zm-6-2h2v7h-2zm0 0" transform="translate(-4 -.104)"/></g></g></svg>