<svg xmlns="http://www.w3.org/2000/svg" width="50" height="50"><defs><clipPath id="clip-path"><path id="Rectangle_136" data-name="Rectangle 136" transform="translate(349 860)" fill="#6b6b6b" d="M0 0h50v50H0z"/></clipPath></defs><g id="Mask_Group_67" data-name="Mask Group 67" transform="translate(-349 -860)" clip-path="url(#clip-path)"><g id="payment-method" transform="translate(349 860)"><g id="Group_172" data-name="Group 172"><g id="Group_171" data-name="Group 171"><path id="Path_236" data-name="Path 236" d="M40.909 14.773H20.455a3.348 3.348 0 0 0-3.409 3.409v13.636a3.348 3.348 0 0 0 3.409 3.409h20.454a3.348 3.348 0 0 0 3.409-3.409V18.182a3.348 3.348 0 0 0-3.409-3.409zm1.136 17.045a1.074 1.074 0 0 1-1.136 1.136H20.455a1.074 1.074 0 0 1-1.136-1.136v-7.954h22.727v7.955zm0-12.5H19.318v-1.136a1.074 1.074 0 0 1 1.136-1.136h20.455a1.074 1.074 0 0 1 1.136 1.136z"/></g></g><g id="Group_174" data-name="Group 174"><g id="Group_173" data-name="Group 173"><path id="Path_237" data-name="Path 237" d="M27.273 28.409h-4.546a1.136 1.136 0 1 0 0 2.273h4.545a1.136 1.136 0 1 0 0-2.273z"/></g></g><g id="Group_176" data-name="Group 176"><g id="Group_175" data-name="Group 175"><circle id="Ellipse_28" data-name="Ellipse 28" cx="1.136" cy="1.136" r="1.136" transform="translate(19.318 43.182)"/></g></g><g id="Group_178" data-name="Group 178"><g id="Group_177" data-name="Group 177"><circle id="Ellipse_29" data-name="Ellipse 29" cx="1.136" cy="1.136" r="1.136" transform="translate(13.636 4.546)"/></g></g><g id="Group_180" data-name="Group 180"><g id="Group_179" data-name="Group 179"><path id="Path_238" data-name="Path 238" d="M22.727 4.545h-4.545a1.074 1.074 0 0 0-1.136 1.136 1.074 1.074 0 0 0 1.136 1.136h4.545a1.074 1.074 0 0 0 1.136-1.136 1.074 1.074 0 0 0-1.136-1.136z"/></g></g><g id="Group_182" data-name="Group 182"><g id="Group_181" data-name="Group 181"><path id="Path_239" data-name="Path 239" d="M29.545 0H11.364a5.627 5.627 0 0 0-5.682 5.682v4.545a1.074 1.074 0 0 0 1.136 1.136h26.136a1.136 1.136 0 1 0 2.273 0V5.682A5.626 5.626 0 0 0 29.545 0zm3.409 9.091h-25V5.682a3.348 3.348 0 0 1 3.409-3.409h18.183a3.348 3.348 0 0 1 3.409 3.409z"/></g></g><g id="Group_184" data-name="Group 184"><g id="Group_183" data-name="Group 183"><path id="Path_240" data-name="Path 240" d="M34.091 36.364a1.074 1.074 0 0 0-1.136 1.136v2.273H11.364a1.136 1.136 0 1 0 0 2.273h21.591v2.273a3.348 3.348 0 0 1-3.409 3.409H11.364a3.348 3.348 0 0 1-3.409-3.409V14.773a1.074 1.074 0 0 0-1.136-1.136 1.074 1.074 0 0 0-1.136 1.136v29.545A5.627 5.627 0 0 0 11.364 50h18.182a5.627 5.627 0 0 0 5.682-5.682V37.5a1.074 1.074 0 0 0-1.137-1.136z"/></g></g></g></g></svg>