<svg xmlns="http://www.w3.org/2000/svg" width="50" height="50"><defs><clipPath id="clip-path"><path id="Rectangle_136" data-name="Rectangle 136" transform="translate(349 860)" fill="#6b6b6b" d="M0 0h50v50H0z"/></clipPath></defs><g id="Mask_Group_70" data-name="Mask Group 70" transform="translate(-349 -860)" clip-path="url(#clip-path)"><g id="truck_1_" data-name="truck (1)" transform="translate(349 860)"><g id="Group_196" data-name="Group 196"><g id="Group_195" data-name="Group 195"><path id="Path_250" data-name="Path 250" d="M37.763 29.727a6.3 6.3 0 1 0 6.3 6.3 6.31 6.31 0 0 0-6.3-6.3zm0 9.454a3.151 3.151 0 1 1 3.151-3.151 3.154 3.154 0 0 1-3.151 3.151z"/></g></g><g id="Group_198" data-name="Group 198"><g id="Group_197" data-name="Group 197"><path id="Path_251" data-name="Path 251" d="M16.229 29.727a6.3 6.3 0 1 0 6.3 6.3 6.31 6.31 0 0 0-6.3-6.3zm0 9.454a3.151 3.151 0 1 1 3.151-3.151 3.154 3.154 0 0 1-3.151 3.151z"/></g></g><g id="Group_200" data-name="Group 200"><g id="Group_199" data-name="Group 199"><path id="Path_252" data-name="Path 252" d="M42.007 11.687a1.576 1.576 0 0 0-1.408-.868H32.3v3.151h7.327l4.29 8.534 2.816-1.416z"/></g></g><g id="Group_202" data-name="Group 202"><g id="Group_201" data-name="Group 201"><path id="Rectangle_140" data-name="Rectangle 140" transform="translate(21.113 34.506)" d="M0 0h11.922v3.151H0z"/></g></g><g id="Group_204" data-name="Group 204"><g id="Group_203" data-name="Group 203"><path id="Path_253" data-name="Path 253" d="M11.5 34.506H6.04a1.576 1.576 0 1 0 0 3.151h5.46a1.576 1.576 0 1 0 0-3.151z"/></g></g><g id="Group_206" data-name="Group 206"><g id="Group_205" data-name="Group 205"><path id="Path_254" data-name="Path 254" d="M49.669 24.874l-3.1-3.992a1.573 1.573 0 0 0-1.244-.609H33.876V9.244A1.575 1.575 0 0 0 32.3 7.668H6.04a1.576 1.576 0 0 0 0 3.151h24.685v11.03a1.575 1.575 0 0 0 1.575 1.575h12.254l2.295 2.956v8.126h-4.36a1.576 1.576 0 0 0 0 3.151h5.935A1.576 1.576 0 0 0 50 36.082V25.84a1.578 1.578 0 0 0-.331-.966z"/></g></g><g id="Group_208" data-name="Group 208"><g id="Group_207" data-name="Group 207"><path id="Path_255" data-name="Path 255" d="M11.4 26.523H4.149a1.576 1.576 0 0 0 0 3.151H11.4a1.576 1.576 0 0 0 0-3.151z"/></g></g><g id="Group_210" data-name="Group 210"><g id="Group_209" data-name="Group 209"><path id="Path_256" data-name="Path 256" d="M15.021 20.326H1.576a1.576 1.576 0 0 0 0 3.151h13.445a1.576 1.576 0 0 0 0-3.151z"/></g></g><g id="Group_212" data-name="Group 212"><g id="Group_211" data-name="Group 211"><path id="Path_257" data-name="Path 257" d="M17.595 14.128H4.149a1.576 1.576 0 0 0 0 3.151h13.446a1.576 1.576 0 0 0 0-3.151z"/></g></g></g></g></svg>