<svg xmlns="http://www.w3.org/2000/svg" width="50" height="50"><defs><clipPath id="clip-path"><path id="Rectangle_136" data-name="Rectangle 136" transform="translate(349 860)" fill="#6b6b6b" d="M0 0h50v50H0z"/></clipPath></defs><g id="Mask_Group_69" data-name="Mask Group 69" transform="translate(-349 -860)" clip-path="url(#clip-path)"><g id="catalog" transform="translate(349 860)"><path id="Path_246" data-name="Path 246" d="M30.859 4.395a7.287 7.287 0 0 0-4.523 1.57A7.335 7.335 0 0 0 19.141 0H5.859v4.395H0V50h50V4.395zm0 2.93H47.07v28.027H30.859a7.289 7.289 0 0 0-4.395 1.468v-25.1a4.4 4.4 0 0 1 4.395-4.395zm-4.394 35.351a4.4 4.4 0 0 1 4.395-4.395h16.21v2.93H30.859a7.305 7.305 0 0 0-4.394 1.465zM8.789 2.93h10.352a4.4 4.4 0 0 1 4.395 4.395v29.5a7.289 7.289 0 0 0-4.395-1.468H8.789zm-2.93 4.394v30.957h13.282a4.4 4.4 0 0 1 4.395 4.395 7.305 7.305 0 0 0-4.395-1.465H2.93V7.324zM2.93 44.141h16.211a4.4 4.4 0 0 1 4.143 2.93H2.93zm23.787 2.93a4.4 4.4 0 0 1 4.143-2.93h16.21v2.93zm0 0"/><path id="Path_247" data-name="Path 247" d="M44.141 10.254H29.395v22.168h14.746zm-2.93 19.238h-8.887V13.184h8.887zm0 0"/><path id="Path_248" data-name="Path 248" d="M20.605 5.859h-8.886v11.817h8.887zm-2.93 8.887h-3.027V8.789h3.027zm0 0"/><path id="Path_249" data-name="Path 249" d="M20.605 20.605h-8.886v11.817h8.887zm-2.93 8.887h-3.027v-5.957h3.027zm0 0"/></g></g></svg>