<svg xmlns="http://www.w3.org/2000/svg" width="72" height="72"><defs><clipPath id="clip-path"><path id="Rectangle_116" data-name="Rectangle 116" transform="translate(1000 986)" fill="#fff" d="M0 0h72v72H0z"/></clipPath></defs><g id="Mask_Group_83" data-name="Mask Group 83" transform="translate(-1000 -986)" clip-path="url(#clip-path)"><g id="furniture-and-household" transform="translate(998.839 984.839)"><path id="Path_280" data-name="Path 280" d="M32.516 60.387h-6.968a1.161 1.161 0 1 0 0 2.323h6.968a1.161 1.161 0 0 0 0-2.323z"/><path id="Path_281" data-name="Path 281" d="M37.161 60.387H36a1.161 1.161 0 1 0 0 2.323h1.161a1.161 1.161 0 0 0 0-2.323z"/><path id="Path_282" data-name="Path 282" d="M67.21 1.161H2.323a1.161 1.161 0 0 0 0 2.323H26.71v1.161a5.812 5.812 0 0 0 5.806 5.806H36v27.872h-2.323a1.161 1.161 0 0 0-1.161 1.161v5.39L16.522 64.293a1.163 1.163 0 0 0 .9 1.9h11.7a8.128 8.128 0 0 0 16.09 0H56.9a1.163 1.163 0 0 0 .9-1.9L41.806 44.874v-5.39a1.161 1.161 0 0 0-1.161-1.161h-2.322V10.452h3.484a5.812 5.812 0 0 0 5.806-5.806V3.484h19.6a1.161 1.161 0 0 0 0-2.323zM37.161 70.839a5.816 5.816 0 0 1-5.69-4.645h11.381a5.816 5.816 0 0 1-5.691 4.645zm17.281-6.968H19.88l14.346-17.419H40.1zM39.484 40.645v3.484h-4.645v-3.484zm5.806-36a3.489 3.489 0 0 1-3.484 3.484h-9.29a3.489 3.489 0 0 1-3.484-3.484V3.484H45.29z"/><path id="Path_283" data-name="Path 283" d="M72 1.161h-1.161a1.161 1.161 0 1 0 0 2.323H72a1.161 1.161 0 0 0 0-2.323z"/></g></g></svg>