<svg xmlns="http://www.w3.org/2000/svg" width="40" height="40"><defs><clipPath id="clip-path"><path id="Rectangle_146" data-name="Rectangle 146" transform="translate(349 880)" fill="#535353" d="M0 0h40v40H0z"/></clipPath></defs><g id="Mask_Group_78" data-name="Mask Group 78" transform="translate(-349 -880)" clip-path="url(#clip-path)"><g id="ui" transform="translate(349 880.031)"><path id="Path_264" data-name="Path 264" d="M13.8 31.273a1.563 1.563 0 1 1-1.562 1.563 1.562 1.562 0 0 1 1.562-1.563zm1.559-25.726h-3.117a1.563 1.563 0 0 0 0 3.125h3.117a1.563 1.563 0 0 0 0-3.125zM40 20.047a12.859 12.859 0 0 1-1.117 5.273 1.558 1.558 0 1 1-2.852-1.258 9.812 9.812 0 0 0 .844-4.008 9.892 9.892 0 1 0-5.266 8.758 1.56 1.56 0 1 1 1.461 2.758 13.1 13.1 0 0 1-5.477 1.5v.63a6.242 6.242 0 0 1-6.234 6.234H6.234A6.265 6.265 0 0 1 0 33.688V6.234A6.242 6.242 0 0 1 6.234 0h15.125a6.242 6.242 0 0 1 6.234 6.234v.8A13.044 13.044 0 0 1 40 20.047zM24.484 7.266V6.234a3.121 3.121 0 0 0-3.117-3.117H6.234a3.121 3.121 0 0 0-3.117 3.117V33.68a3.121 3.121 0 0 0 3.117 3.12h15.125a3.121 3.121 0 0 0 3.117-3.117v-.852a13.023 13.023 0 0 1 .008-25.562z"/><g id="Group_221" data-name="Group 221"><path id="Path_265" data-name="Path 265" d="M25.789 22.625v.969h3.047v1.18h-3.047v1.758h-1.8v-1.759h-1.38v-1.18h1.383V14.7h3.984A4.251 4.251 0 0 1 31 15.719a3.853 3.853 0 0 1 1.086 2.961A3.81 3.81 0 0 1 31 21.617a4.251 4.251 0 0 1-3.023 1.016h-2.188zm3.891-5.516a2.442 2.442 0 0 0-1.719-.547h-2.172v4.3h2.172a2.429 2.429 0 0 0 1.711-.562 2.085 2.085 0 0 0 .6-1.594 2.046 2.046 0 0 0-.592-1.597z" stroke="#000" stroke-linejoin="round" stroke-miterlimit="10" stroke-width="1.25"/></g></g></g></svg>