<svg xmlns="http://www.w3.org/2000/svg" width="50" height="50"><defs><clipPath id="clip-path"><path id="Rectangle_136" data-name="Rectangle 136" transform="translate(349 860)" fill="#6b6b6b" d="M0 0h50v50H0z"/></clipPath></defs><g id="Mask_Group_68" data-name="Mask Group 68" transform="translate(-349 -860)" clip-path="url(#clip-path)"><g id="like_1_" data-name="like (1)" transform="translate(349 860)"><g id="Group_186" data-name="Group 186"><g id="Group_185" data-name="Group 185"><path id="Path_241" data-name="Path 241" d="M47.016 27.887a4.408 4.408 0 0 0-4.4-4.4H30.878c.953-1.7 1.461-6.551 1.461-8.549a6.135 6.135 0 0 0-6.128-6.128H25a1.468 1.468 0 0 0-1.468 1.468c0 3.394-1.322 9.52-3.721 11.92l-.093.093a16.237 16.237 0 0 1-4.992 3.225v-.561a1.468 1.468 0 0 0-1.468-1.468H4.452a1.468 1.468 0 0 0-1.468 1.468v23.577A1.468 1.468 0 0 0 4.452 50h8.806a1.468 1.468 0 0 0 1.468-1.468v-.9A34.224 34.224 0 0 0 26.828 50h9.913a4.4 4.4 0 0 0 4.094-6.025 4.4 4.4 0 0 0 2.936-5.875 4.411 4.411 0 0 0 3.245-4.249 4.52 4.52 0 0 0-1.146-3.008 4.387 4.387 0 0 0 1.146-2.956zm-35.225 0v19.178H5.92V26.419h5.871zm30.822 7.436h-8.807a1.468 1.468 0 0 0 0 2.935h5.871a1.468 1.468 0 0 1 0 2.935h-5.871a1.468 1.468 0 1 0 0 2.935h2.935a1.468 1.468 0 0 1 0 2.935h-9.913c-5.122 0-8.3-1.258-12.1-2.525V28.794c3.281-1.641 4.91-2.275 7.16-4.524 2.6-2.6 4.177-8.9 4.513-12.522a3.2 3.2 0 0 1 3 3.187c0 2.282-.889 7.362-2.505 8.979a1.468 1.468 0 0 0 1.038 2.506h14.678a1.468 1.468 0 0 1 0 2.935h-8.806a1.468 1.468 0 1 0 0 2.935h8.806a1.559 1.559 0 0 1 1.468 1.566 1.469 1.469 0 0 1-1.468 1.467z"/></g></g><g id="Group_188" data-name="Group 188"><g id="Group_187" data-name="Group 187"><path id="Path_242" data-name="Path 242" d="M24.845 3.747L23.377.812a1.468 1.468 0 1 0-2.625 1.313L22.22 5.06a1.468 1.468 0 1 0 2.625-1.313z"/></g></g><g id="Group_190" data-name="Group 190"><g id="Group_189" data-name="Group 189"><path id="Path_243" data-name="Path 243" d="M34.463.155a1.468 1.468 0 0 0-1.969.656l-1.468 2.936a1.468 1.468 0 1 0 2.625 1.313l1.468-2.935a1.468 1.468 0 0 0-.656-1.97z"/></g></g><g id="Group_192" data-name="Group 192"><g id="Group_191" data-name="Group 191"><path id="Path_244" data-name="Path 244" d="M39.677 8.807h-2.935a1.468 1.468 0 0 0 0 2.935h2.935a1.468 1.468 0 0 0 0-2.935z"/></g></g><g id="Group_194" data-name="Group 194"><g id="Group_193" data-name="Group 193"><path id="Path_245" data-name="Path 245" d="M19.129 8.807h-2.935a1.468 1.468 0 1 0 0 2.935h2.935a1.468 1.468 0 1 0 0-2.935z"/></g></g></g></g></svg>