<svg xmlns="http://www.w3.org/2000/svg" width="48" height="48"><defs><clipPath id="clip-path"><path id="Rectangle_150" data-name="Rectangle 150" transform="translate(114 549)" fill="#fff" d="M0 0h48v48H0z"/></clipPath></defs><g id="Mask_Group_80" data-name="Mask Group 80" transform="translate(-114 -549)" clip-path="url(#clip-path)"><g id="discount_6_" data-name="discount (6)" transform="translate(114 549)"><path id="Path_273" data-name="Path 273" d="M47.658 42.1a4.3 4.3 0 0 0-5.307-2.325l-8.516 2.838a4.227 4.227 0 0 0-2.324-3.483L19.849 33.3a7.014 7.014 0 0 0-5.076-.472l-3.479.994a4.225 4.225 0 0 0-4.169-3.574H1.406A1.406 1.406 0 0 0 0 31.656v19.687a1.406 1.406 0 0 0 1.406 1.406h8.531a1.406 1.406 0 0 0 1.406-1.406v-.754l7.27 3.635a12.629 12.629 0 0 0 10.641.312l16.186-6.9a4.216 4.216 0 0 0 2.218-5.536zM8.531 49.937H2.812V33.062h4.313a1.407 1.407 0 0 1 1.406 1.406zm35.806-4.883L28.15 51.95a9.816 9.816 0 0 1-8.279-.242l-8.528-4.263V36.734l4.2-1.2a4.206 4.206 0 0 1 3.046.283l11.662 5.831A1.406 1.406 0 1 1 29 44.163l-6.958-3.479a4.237 4.237 0 0 0-5.192 1.152 1.406 1.406 0 0 0 2.2 1.748 1.412 1.412 0 0 1 1.73-.384l6.958 3.479a4.221 4.221 0 0 0 4.708-.636l10.8-3.6a1.486 1.486 0 0 1 1.831.764 1.4 1.4 0 0 1-.735 1.845zm0 0" transform="translate(0 -7.562)"/><path id="Path_274" data-name="Path 274" d="M40.433 12.906a1.406 1.406 0 1 1-1.406-1.406 1.406 1.406 0 0 1 1.406 1.406zm0 0" transform="translate(-9.405 -2.875)"/><path id="Path_275" data-name="Path 275" d="M47.933 20.406A1.406 1.406 0 1 1 46.527 19a1.406 1.406 0 0 1 1.406 1.406zm0 0" transform="translate(-11.28 -4.75)"/><path id="Path_276" data-name="Path 276" d="M45.65 11.912a1.406 1.406 0 0 0-1.989 0l-5.625 5.625a1.406 1.406 0 0 0 1.989 1.989L45.65 13.9a1.406 1.406 0 0 0 0-1.988zm0 0" transform="translate(-9.406 -2.875)"/><path id="Path_277" data-name="Path 277" d="M23.152 16.754L37.214 28a1.406 1.406 0 0 0 1.753 0l14.156-11.25a1.406 1.406 0 0 0-.875-2.507h-4.311V1.406A1.406 1.406 0 0 0 46.53 0H29.656a1.406 1.406 0 0 0-1.406 1.406V14.25h-4.219a1.406 1.406 0 0 0-.879 2.5zm6.5.308a1.406 1.406 0 0 0 1.406-1.406V2.813h14.066v12.843a1.406 1.406 0 0 0 1.406 1.406h1.689L38.1 25.107l-10.06-8.045zm0 0" transform="translate(-5.656)"/></g></g></svg>