<svg xmlns="http://www.w3.org/2000/svg" width="50" height="50"><defs><clipPath id="clip-path"><path id="Rectangle_136" data-name="Rectangle 136" transform="translate(349 860)" fill="#6b6b6b" d="M0 0h50v50H0z"/></clipPath></defs><g id="Mask_Group_62" data-name="Mask Group 62" transform="translate(-349 -860)" clip-path="url(#clip-path)"><g id="box_8_" data-name="box (8)" transform="translate(349 860)"><g id="Group_135" data-name="Group 135"><g id="Group_134" data-name="Group 134"><path id="Path_222" data-name="Path 222" d="M47.07 29.744V10.232a1.451 1.451 0 0 0-.234-.772l-.011-.018v-.005L40.965.652A1.465 1.465 0 0 0 39.746 0H13.184a1.465 1.465 0 0 0-1.219.652L6.111 9.433l-.013.022a1.449 1.449 0 0 0-.232.768v19.269H1.465A1.465 1.465 0 0 0 0 30.957v17.578A1.465 1.465 0 0 0 1.465 50h5.859a4.384 4.384 0 0 0 3.3-1.5 34.463 34.463 0 0 0 9.988 1.5h13.275a10.3 10.3 0 0 0 8.2-4.1l7.032-9.376a4.4 4.4 0 0 0-2.049-6.78zM32.324 2.93h6.638l3.906 5.859H32.324zm-8.789 0h5.859v5.859h-5.859zm0 8.789h5.859v7.614l-2.117-1.411a1.465 1.465 0 0 0-1.625 0l-2.117 1.411zM13.968 2.93h6.638v5.859H10.061zM8.789 45.605a1.467 1.467 0 0 1-1.465 1.465H2.93V32.422h4.394a1.467 1.467 0 0 1 1.465 1.465zm0-15.861V11.719h11.816V22.07a1.466 1.466 0 0 0 2.277 1.219l3.583-2.389 3.582 2.388a1.466 1.466 0 0 0 2.277-1.219v-10.35H44.14v18.027a4.4 4.4 0 0 0-1.751 1.146l-4.305 4.622a4.4 4.4 0 0 0-4.2-3.092h-6.96a3.891 3.891 0 0 1-2.572-.971 10.275 10.275 0 0 0-13.437-.093 4.414 4.414 0 0 0-2.126-1.614zm37.99 5.02l-7.032 9.376a7.359 7.359 0 0 1-5.859 2.93H20.612a31.269 31.269 0 0 1-8.912-1.308c.006-.168 0 .727 0-11.213l1.04-.9a7.34 7.34 0 0 1 9.677 0 6.819 6.819 0 0 0 4.508 1.7h6.962a1.465 1.465 0 0 1 0 2.93H23.34a1.465 1.465 0 1 0 0 2.93h11.528a4.409 4.409 0 0 0 3.216-1.4l6.449-6.923a1.451 1.451 0 0 1 1.072-.467 1.467 1.467 0 0 1 1.174 2.345z"/></g></g><g id="Group_137" data-name="Group 137"><g id="Group_136" data-name="Group 136"><path id="Path_223" data-name="Path 223" d="M39.746 26.563h-5.859a1.465 1.465 0 1 0 0 2.93h5.859a1.465 1.465 0 1 0 0-2.93z"/></g></g></g></g></svg>