<svg xmlns="http://www.w3.org/2000/svg" width="40" height="40"><defs><clipPath id="clip-path"><path id="Rectangle_146" data-name="Rectangle 146" transform="translate(349 880)" fill="#535353" d="M0 0h40v40H0z"/></clipPath></defs><g id="Mask_Group_76" data-name="Mask Group 76" transform="translate(-349 -880)" clip-path="url(#clip-path)"><g id="wallet_2_" data-name="wallet (2)" transform="translate(349 880)"><g id="Group_220" data-name="Group 220"><path id="Path_263" data-name="Path 263" d="M31.641 20.078a4.687 4.687 0 1 0 0 9.375h6.798A1.562 1.562 0 0 0 40 27.891V15.625a6.244 6.244 0 0 0-2.59-5.062l-5.316-8.72a1.563 1.563 0 0 0-2.158-.515l-3.92 2.431L24.249.768a1.563 1.563 0 0 0-2.157-.54L7.04 9.375H4.687a1.564 1.564 0 0 1-1.562-1.523 1.564 1.564 0 0 1 1.562-1.524h2.891a1.562 1.562 0 0 0 0-3.125H4.687A4.7 4.7 0 0 0 .127 6.8 1.556 1.556 0 0 0 0 7.422V33.75A6.257 6.257 0 0 0 6.25 40h27.5a6.242 6.242 0 0 0 5.93-4.271 1.562 1.562 0 0 0-2.964-.989 3.121 3.121 0 0 1-2.965 2.135H6.25a3.129 3.129 0 0 1-3.125-3.125V12.232a4.665 4.665 0 0 0 1.562.268H33.75a3.129 3.129 0 0 1 3.125 3.125v4.453zm5.234 6.25h-5.234a1.562 1.562 0 1 1 0-3.125h5.234zM13.057 9.375l9.306-5.656 1.664 2.816a1.566 1.566 0 0 0 .114.226 1.584 1.584 0 0 0 .111.155L25.7 9.375zm16.278 0L27.607 6.45l2.639-1.636 2.78 4.561z"/></g></g></g></svg>