<svg xmlns="http://www.w3.org/2000/svg" width="40" height="40"><defs><clipPath id="clip-path"><path id="Rectangle_146" data-name="Rectangle 146" transform="translate(349 880)" fill="#535353" d="M0 0h40v40H0z"/></clipPath></defs><g id="Mask_Group_79" data-name="Mask Group 79" transform="translate(-349 -880)" clip-path="url(#clip-path)"><g id="invoice_1_" data-name="invoice (1)" transform="translate(349 880)"><g id="Group_223" data-name="Group 223"><g id="Group_222" data-name="Group 222"><path id="Path_266" data-name="Path 266" d="M27.217 10.84a1.667 1.667 0 0 0-2.311.462l-5.165 7.748-2.757-2.757a1.667 1.667 0 0 0-2.357 2.357l4.195 4.195a1.667 1.667 0 0 0 2.565-.254l6.293-9.44a1.667 1.667 0 0 0-.463-2.311z"/><path id="Path_267" data-name="Path 267" d="M35 0H11.675a5.007 5.007 0 0 0-5.008 5.008v23.326h-5A1.667 1.667 0 0 0 0 30v5.172A4.828 4.828 0 0 0 4.828 40H28.85a1.773 1.773 0 0 0 .8-.176A5 5 0 0 0 33.333 35V13.333h5A1.667 1.667 0 0 0 40 11.667V5a5 5 0 0 0-5-5zM10 5.008a1.674 1.674 0 0 1 1.675-1.675h18.609c-.016.044-.03.09-.044.135l-.017.053q-.034.109-.063.221c0 .018-.009.037-.013.056a4.667 4.667 0 0 0-.039.17l-.016.082a9.27 9.27 0 0 0-.026.148c0 .03-.009.059-.013.089q-.011.074-.019.148c0 .029-.007.059-.01.089a4.2 4.2 0 0 0-.012.161v.077C30 4.84 30 4.92 30 5v30a1.665 1.665 0 0 1-1.41 1.645h-.126a3.636 3.636 0 0 0-.178.019A1.665 1.665 0 0 1 26.667 35v-5A1.667 1.667 0 0 0 25 28.333H10zM4.828 36.667a1.494 1.494 0 0 1-1.5-1.495v-3.5h20V35c0 .08 0 .16.006.24v.076c0 .054.007.108.012.161 0 .03.006.059.009.088q.008.074.019.148l.013.089c.008.05.017.1.027.149l.016.082c.012.057.025.114.039.17 0 .018.008.037.013.055q.029.111.063.221l.017.052.045.135zM36.667 10h-3.334V5a1.667 1.667 0 0 1 3.333 0z"/></g></g></g></g></svg>