<svg id="Component_27_1" data-name="Component 27 – 1" xmlns="http://www.w3.org/2000/svg" width="60" height="60"><defs><clipPath id="clip-path"><path id="Rectangle_123" data-name="Rectangle 123" transform="translate(105 374)" fill="#fff" d="M0 0h60v60H0z"/></clipPath></defs><ellipse id="Ellipse_26" data-name="Ellipse 26" cx="20.5" cy="20" rx="20.5" ry="20" transform="translate(9 8)" fill="#fab800"/><g id="Mask_Group_54" data-name="Mask Group 54" transform="translate(-105 -374)" clip-path="url(#clip-path)"><g id="furniture-and-household_3_" data-name="furniture-and-household (3)" transform="translate(105 374)"><path id="Path_198" data-name="Path 198" d="M43.5 35.224a.879.879 0 1 0 0 1.758h4.7a.879.879 0 0 0 0-1.758z"/><path id="Path_199" data-name="Path 199" d="M43.5 50.076h4.7a.879.879 0 0 0 0-1.758h-4.7a.879.879 0 1 0 0 1.758z"/><path id="Path_200" data-name="Path 200" d="M57.974 26.617H32.307v-.1a10.031 10.031 0 0 0-.332-2.561h6.282a.878.878 0 0 0 .09 0 2.017 2.017 0 0 0 1.926-2.012V3.025a2.019 2.019 0 0 0-2.016-2.016H6.25a2.019 2.019 0 0 0-2.016 2.016v18.913A2.017 2.017 0 0 0 6.16 23.95a.88.88 0 0 0 .09 0h6.281a10.031 10.031 0 0 0-.332 2.561v.1H2.026A2.028 2.028 0 0 0 0 28.643v2.132A2.028 2.028 0 0 0 2.026 32.8h1.96v24.341a1.853 1.853 0 0 0 1.851 1.851h1.791a1.853 1.853 0 0 0 1.851-1.851V32.8H12.2v1.544a5.225 5.225 0 0 0 5.219 5.219h3.956v2.669h-7.913a1.827 1.827 0 0 0-1.825 1.825 3.761 3.761 0 0 0 3.756 3.756h5.981v6.5h-2.709a2.86 2.86 0 0 0-2.109.931l-2.072 2.276a.879.879 0 1 0 1.3 1.184l2.073-2.273a1.1 1.1 0 0 1 .81-.358h2.709v2.037a.879.879 0 1 0 1.758 0v-2.036h2.709a1.1 1.1 0 0 1 .81.358l2.072 2.268a.879.879 0 1 0 1.3-1.184l-2.073-2.273a2.86 2.86 0 0 0-2.109-.931h-2.711v-6.5h5.981a3.761 3.761 0 0 0 3.756-3.756 1.827 1.827 0 0 0-1.825-1.825h-7.912v-2.667h3.956a5.225 5.225 0 0 0 5.219-5.219V32.8h3.387v24.341a1.853 1.853 0 0 0 1.851 1.851h16.619a1.853 1.853 0 0 0 1.851-1.851V40.562a.879.879 0 0 0-1.758 0v3.577h-16.8V32.8h16.8v3.66a.879.879 0 1 0 1.758 0V32.8h1.96A2.028 2.028 0 0 0 60 30.776v-2.133a2.028 2.028 0 0 0-2.026-2.026zM31.045 43.991a.067.067 0 0 1 .067.067 2 2 0 0 1-2 2H15.394a2 2 0 0 1-2-2 .067.067 0 0 1 .067-.067zM54.256 45.9v11.241a.093.093 0 0 1-.093.093H37.544a.093.093 0 0 1-.093-.093V45.9zM6.25 22.2a.259.259 0 0 1-.259-.259v-2.232h7.181a.879.879 0 1 0 0-1.758h-7.18V3.025a.259.259 0 0 1 .259-.259h32.006a.259.259 0 0 1 .259.259v14.926h-7.145a.879.879 0 0 0 0 1.758h7.144v2.229a.259.259 0 0 1-.259.259H31.33a10.051 10.051 0 0 0-18.153 0H6.25zm1.47 34.945a.093.093 0 0 1-.093.093h-1.79a.093.093 0 0 1-.093-.093V32.8h1.977zm-5.695-26.1a.269.269 0 0 1-.268-.268v-2.134a.269.269 0 0 1 .268-.268H12.2v2.669zm28.523 3.3a3.465 3.465 0 0 1-3.461 3.461h-9.668a3.465 3.465 0 0 1-3.461-3.461v-7.83a8.3 8.3 0 0 1 16.591 0v7.83zm27.693-3.57a.269.269 0 0 1-.268.268H32.307v-2.668h25.667a.269.269 0 0 1 .268.268z"/></g></g></svg>