<svg xmlns="http://www.w3.org/2000/svg" width="48" height="48"><defs><clipPath id="clip-path"><path id="Rectangle_151" data-name="Rectangle 151" transform="translate(869 533)" fill="#fff" d="M0 0h48v48H0z"/></clipPath></defs><g id="Mask_Group_81" data-name="Mask Group 81" transform="translate(-869 -533)" clip-path="url(#clip-path)"><g id="partnership" transform="translate(869 535.173)"><g id="Group_235" data-name="Group 235" transform="translate(0 -2.173)"><path id="Path_278" data-name="Path 278" d="M42.757 20.159l4.826-4.784a1.407 1.407 0 0 0 0-2c-9.391-9.341-7.445-7.4-9.984-9.941a1.406 1.406 0 0 0-1.989 0L32 7.05c-.876.876-3.867.555-6.65 1.152a9.8 9.8 0 0 0-5.915-1.238 4.627 4.627 0 0 1-3.1-.539c-.484-.32-.475-.349-3.966-3.84a1.406 1.406 0 0 0-1.989 0C9.4 3.567.5 12.438.413 12.527a1.406 1.406 0 0 0 0 1.993l4.661 4.635a5.828 5.828 0 0 1 .358 1.525 10.292 10.292 0 0 0 1.208 3.883l-.14.137a4.216 4.216 0 0 0 2.752 7.2 4.213 4.213 0 0 0 3.978 3.98 4.209 4.209 0 0 0 3.977 3.975 4.217 4.217 0 0 0 6.029 3.576l1.164 1.16a4.218 4.218 0 0 0 7.2-2.751 4.209 4.209 0 0 0 3.975-3.975 4.213 4.213 0 0 0 3.978-3.98 4.216 4.216 0 0 0 2.747-7.193l-1.1-1.1c1.347-2.134 1.072-4.534 1.543-5.4a.231.231 0 0 1 .014-.033zM30.45 10.452l9.42 9.42a25.668 25.668 0 0 1-.757 3.633l-8.747-8.745a4.216 4.216 0 0 0-5.966 0l-3.977 3.977a1.406 1.406 0 0 1-1.989-1.989l3.978-3.978c2.259-2.259 5.364-1.995 8.038-2.318zm-24.9 5.209l-2.15-2.14 7.976-7.954L13.511 7.7zm4.927 13.019a1.406 1.406 0 1 1-1.987-1.988l1.989-1.992a1.406 1.406 0 0 1 1.989 1.989zm3.978 3.978a1.406 1.406 0 1 1-1.989-1.989l1.989-1.989a1.406 1.406 0 0 1 1.989 1.989zm1.989 3.977a1.408 1.408 0 0 1 0-1.989l1.989-1.989a1.406 1.406 0 0 1 1.989 1.989l-1.989 1.989a1.408 1.408 0 0 1-1.988.001zm7.956 1.989l-1.989 1.989a1.406 1.406 0 1 1-1.989-1.989l1.989-1.989a1.408 1.408 0 0 1 1.988 0 1.408 1.408 0 0 1 .001 1.989zm3.978 3.976a1.405 1.405 0 0 1-1.989 0l-.994-.994.994-.994a4.2 4.2 0 0 0 .823-1.165l1.165 1.165a1.405 1.405 0 0 1 .001 1.988zM40.31 30.669a1.408 1.408 0 0 1-1.989 0l-6.811-6.811a1.406 1.406 0 1 0-1.989 1.989l6.811 6.811a1.406 1.406 0 0 1-1.988 1.989l-6.722-6.722a1.406 1.406 0 1 0-1.989 1.989l6.723 6.723a1.406 1.406 0 0 1-1.989 1.989l-3.977-3.978a4.2 4.2 0 0 0-2.75-1.228 4.218 4.218 0 0 0-3.98-3.98 4.213 4.213 0 0 0-3.977-3.977 4.215 4.215 0 0 0-6.944-2.976 10.427 10.427 0 0 1-.527-2.247 6.935 6.935 0 0 0-.727-2.54l8.369-8.369a8.4 8.4 0 0 0 3.695.438 11.757 11.757 0 0 1 2.021.036 9.1 9.1 0 0 0-1.147.972l-3.978 3.977a4.219 4.219 0 1 0 5.966 5.966l3.977-3.977a1.405 1.405 0 0 1 1.989 0L40.31 28.681a1.408 1.408 0 0 1 0 1.988zM33.458 9.483a30.786 30.786 0 0 0 3.149-3.062c1.29 1.29-.061-.055 7.991 7.953l-3.138 3.11z"/></g></g></g></svg>