<svg xmlns="http://www.w3.org/2000/svg" width="50" height="50"><defs><clipPath id="clip-path"><path id="Rectangle_136" data-name="Rectangle 136" transform="translate(349 860)" fill="#6b6b6b" d="M0 0h50v50H0z"/></clipPath></defs><g id="Mask_Group_66" data-name="Mask Group 66" transform="translate(-349 -860)" clip-path="url(#clip-path)"><path id="order" d="M34.44 7.077V24.02h8.5V7.077a4.248 4.248 0 0 0-8.5 0zm-20.895 7.395a1.465 1.465 0 1 1 2.072-2.072l.8.8 2.594-2.593a4.533 4.533 0 1 0 1.633 2.509l-3.191 3.191a1.466 1.466 0 0 1-2.072 0zm7.55-5.943l1.839-1.839a1.465 1.465 0 1 1 2.071 2.071l-2.092 2.091a7.467 7.467 0 1 1-1.819-2.323zM7.1 39.157a1.465 1.465 0 1 0 1.465 1.465A1.465 1.465 0 0 0 7.1 39.157zm5.859 2.93a1.465 1.465 0 0 1 0-2.93h14.16a1.465 1.465 0 0 1 0 2.93zM7.1 33.3a1.465 1.465 0 1 0 1.465 1.465A1.465 1.465 0 0 0 7.1 33.3zm5.859 2.93a1.465 1.465 0 0 1 0-2.93h14.16a1.465 1.465 0 0 1 0 2.93zm21.481-9.28v21.484a1.465 1.465 0 0 1-1.465 1.466H1.237a1.464 1.464 0 0 1-1.465-1.466V6.93A7.042 7.042 0 0 1 6.8-.1h31.888a7.2 7.2 0 0 1 7.178 7.178v18.407A1.465 1.465 0 0 1 44.4 26.95zM32.91 2.829a7.136 7.136 0 0 0-1.4 4.248v39.892H2.7V6.93a4.112 4.112 0 0 1 4.1-4.1zM7.1 27.438A1.465 1.465 0 1 0 8.561 28.9 1.465 1.465 0 0 0 7.1 27.438zm5.859 2.93h14.16a1.465 1.465 0 0 0 0-2.93H12.955a1.465 1.465 0 0 0 0 2.93zm0 0" transform="translate(351.181 860.101)" fill-rule="evenodd"/></g></svg>