<svg xmlns="http://www.w3.org/2000/svg" width="40" height="35"><defs><clipPath id="clip-path"><path id="Rectangle_146" data-name="Rectangle 146" transform="translate(349 876)" fill="#535353" d="M0 0h40v35H0z"/></clipPath></defs><g id="Mask_Group_75" data-name="Mask Group 75" transform="translate(-349 -876)" clip-path="url(#clip-path)"><g id="box_9_" data-name="box (9)" transform="translate(349 873.786)"><g id="Group_217" data-name="Group 217" transform="translate(0 17.214)"><g id="Group_216" data-name="Group 216"><path id="Path_261" data-name="Path 261" d="M39.211 18.208a3.743 3.743 0 0 0-2.517-1.43 3.651 3.651 0 0 0-2.737.76l-8.907 6.907A4.95 4.95 0 0 1 22 25.5h-2.146a8.711 8.711 0 0 0 2.646-6.247A1.25 1.25 0 0 0 21.249 18H7.5v-1.25a1.25 1.25 0 0 0-1.25-1.25h-5A1.25 1.25 0 0 0 0 16.751v17.5A1.25 1.25 0 0 0 1.25 35.5h5a1.25 1.25 0 0 0 1.25-1.25V33h16.649a6.3 6.3 0 0 0 3.815-1.312l10.572-8.222a3.737 3.737 0 0 0 1.435-2.512 3.683 3.683 0 0 0-.76-2.746zM5 33H2.5V18H5zm32.491-12.357a1.269 1.269 0 0 1-.485.847l-10.57 8.22a3.781 3.781 0 0 1-2.287.79H7.5v-10h12.375a6.261 6.261 0 0 1-6.125 5 1.25 1.25 0 0 0 0 2.5H22a7.468 7.468 0 0 0 4.592-1.587l8.907-6.9a1.237 1.237 0 0 1 .89-.25 1.267 1.267 0 0 1 .852.49 1.212 1.212 0 0 1 .25.89z" transform="translate(0 -15.501)"/></g></g><g id="Group_219" data-name="Group 219" transform="translate(5 2.215)"><g id="Group_218" data-name="Group 218"><path id="Path_262" data-name="Path 262" d="M33.178 2.215H5.679a1.25 1.25 0 0 0-1.25 1.25v10a1.25 1.25 0 1 0 2.5 0v-8.75h7.5v6.25A1.252 1.252 0 0 0 16.373 12l3.055-2.037L22.486 12a1.251 1.251 0 0 0 1.942-1.04V4.715h7.5v11.25a1.25 1.25 0 1 0 2.5 0v-12.5a1.25 1.25 0 0 0-1.25-1.25zm-11.25 6.412l-1.807-1.2a1.26 1.26 0 0 0-1.387 0l-1.8 1.2V4.715h5z" transform="translate(-4.429 -2.215)"/></g></g></g></g></svg>