<svg id="Component_22_1" data-name="Component 22 – 1" xmlns="http://www.w3.org/2000/svg" width="45" height="55"><defs><clipPath id="clip-path"><path id="Rectangle_134" data-name="Rectangle 134" transform="translate(1069 1210)" fill="#2a2a2a" d="M0 0h35v35H0z"/></clipPath></defs><g id="placeholder_1_" data-name="placeholder (1)" transform="translate(-276.261 -414)"><g id="Group_120" data-name="Group 120" transform="translate(276.261 414)"><path id="Path_212" data-name="Path 212" d="M71 .014A22.339 22.339 0 0 0 49.406 19.8a21.533 21.533 0 0 0 .3 6.3s.035.237.15.688a21.619 21.619 0 0 0 1.515 4.353c2.255 5.21 7.471 13.927 19.174 23.411a1.993 1.993 0 0 0 2.5 0c11.7-9.473 16.919-18.19 19.185-23.422a20.7 20.7 0 0 0 1.515-4.353c.1-.44.15-.688.15-.688a21.526 21.526 0 0 0 .4-4.161C94.3 9.554 83.787-.426 71 .014z" transform="translate(-49.299)" fill="#fab800"/></g></g><g id="Mask_Group_59" data-name="Mask Group 59" transform="translate(-1063.962 -1205.001)" clip-path="url(#clip-path)"><g id="solution" transform="translate(1075.764 1210)"><g id="Group_122" data-name="Group 122" transform="translate(0 6.025)"><g id="Group_121" data-name="Group 121"><path id="Path_213" data-name="Path 213" d="M26.3 15.04a10.736 10.736 0 1 0-16.6 9v3.382a5.86 5.86 0 0 0 11.721 0v-3.385A10.773 10.773 0 0 0 26.3 15.04zm-6.942 12.379a3.791 3.791 0 0 1-7.581 0v-.865h7.581zm.519-4.859a1.035 1.035 0 0 0-.519.9v1.027H16.6v-5.354a3.358 3.358 0 0 0 2.318-3.189 1.035 1.035 0 1 0-2.07 0 1.283 1.283 0 1 1-2.566 0 1.035 1.035 0 1 0-2.07 0 3.358 3.358 0 0 0 2.318 3.189v5.351h-2.753v-1.026a1.035 1.035 0 0 0-.519-.9 8.667 8.667 0 1 1 8.62 0z" transform="translate(-4.831 -4.304)"/></g></g><g id="Group_124" data-name="Group 124" transform="translate(9.701)"><g id="Group_123" data-name="Group 123"><path id="Path_214" data-name="Path 214" d="M12.8 0a1.035 1.035 0 0 0-1.035 1.035v1.817a1.035 1.035 0 0 0 2.07 0V1.035A1.035 1.035 0 0 0 12.8 0z" transform="translate(-11.761)"/></g></g><g id="Group_126" data-name="Group 126" transform="translate(5.18 .748)"><g id="Group_125" data-name="Group 125"><path id="Path_215" data-name="Path 215" d="M11.177 2.9l-.642-1.7a1.035 1.035 0 1 0-1.935.735l.642 1.7a1.035 1.035 0 0 0 1.935-.735z" transform="translate(-8.531 -.535)"/></g></g><g id="Group_128" data-name="Group 128" transform="translate(13.58 .748)"><g id="Group_127" data-name="Group 127"><path id="Path_216" data-name="Path 216" d="M16.575.6a1.035 1.035 0 0 0-1.334.6L14.6 2.9a1.035 1.035 0 1 0 1.936.732l.642-1.7A1.035 1.035 0 0 0 16.575.6z" transform="translate(-14.531 -.534)"/></g></g></g></g></svg>