<svg id="Component_22_1" data-name="Component 22 – 1" xmlns="http://www.w3.org/2000/svg" width="60" height="60"><path id="Path_268" data-name="Path 268" d="M180.667 85.333a9.771 9.771 0 0 0-10 9.5v1.751a1.25 1.25 0 1 0 2.5 0v-1.751a7.518 7.518 0 0 1 15 0v2.084a6.728 6.728 0 0 1-2.167 4.922l-3.626 3.418a9.325 9.325 0 0 0-2.957 6.743v4.583a1.25 1.25 0 1 0 2.5 0V112a6.729 6.729 0 0 1 2.169-4.924l3.626-3.418a9.322 9.322 0 0 0 2.955-6.742v-2.083a9.771 9.771 0 0 0-10-9.5z" transform="translate(-150.667 -75.333)"/><circle id="Ellipse_30" data-name="Ellipse 30" cx="1.25" cy="1.25" r="1.25" transform="translate(28.75 47.5)"/><path id="Path_269" data-name="Path 269" d="M30 0a30 30 0 1 0 30 30A30.034 30.034 0 0 0 30 0zm0 57.5A27.5 27.5 0 1 1 57.5 30 27.531 27.531 0 0 1 30 57.5z"/></svg>