<svg id="Component_22_1" data-name="Component 22 – 1" xmlns="http://www.w3.org/2000/svg" width="87.439" height="87.458"><circle id="Ellipse_2" data-name="Ellipse 2" cx="26" cy="26" r="26" transform="translate(22.795 12.458)" fill="#ffd117"/><g id="birthday-and-party_1_" data-name="birthday-and-party (1)"><path id="Path_79" data-name="Path 79" d="M107.981 68.25c-1.063-1.04-2.163-2.115-2.411-3.043-.267-1 .157-2.526.567-4 .6-2.173 1.226-4.419.163-6.256-1.079-1.865-3.357-2.449-5.561-3.014-1.468-.377-2.986-.766-3.693-1.473s-1.1-2.225-1.473-3.694c-.565-2.2-1.15-4.482-3.014-5.561-1.836-1.063-4.083-.439-6.256.163-1.478.41-3.006.834-4 .567-.928-.248-2-1.348-3.043-2.411-1.534-1.569-3.272-3.346-5.476-3.346s-3.943 1.778-5.476 3.346c-1.04 1.063-2.115 2.163-3.043 2.411-1 .267-2.526-.157-4-.567-3.559-.987-7.022-1.116-8.513 2.832a1.283 1.283 0 0 0 2.4.906c.978-2.591 3.243-1.874 5.429-1.267 1.809.5 3.68 1.021 5.351.574 1.607-.43 2.932-1.785 4.214-3.1 1.238-1.266 2.518-2.575 3.643-2.575s2.405 1.309 3.643 2.575c1.281 1.311 2.607 2.666 4.214 3.1 1.672.447 3.542-.072 5.351-.574 1.663-.461 3.382-.938 4.287-.415.932.54 1.381 2.288 1.814 3.978.462 1.8.94 3.666 2.144 4.87s3.067 1.681 4.87 2.144c1.691.434 3.439.882 3.978 1.814.523.9.046 2.624-.415 4.287-.5 1.809-1.021 3.679-.574 5.351.43 1.607 1.785 2.932 3.1 4.214 1.266 1.238 2.575 2.518 2.575 3.643s-1.309 2.405-2.575 3.643c-1.311 1.282-2.666 2.607-3.1 4.214-.447 1.672.072 3.542.574 5.351.461 1.663.938 3.382.415 4.286-.539.932-2.288 1.381-3.978 1.814-1.8.462-3.666.94-4.87 2.144s-1.681 3.067-2.144 4.87c-.434 1.691-.882 3.439-1.814 3.978-.9.524-2.624.047-4.287-.415-1.809-.5-3.679-1.02-5.351-.574-1.607.43-2.932 1.785-4.214 3.1-1.238 1.266-2.518 2.575-3.643 2.575s-2.405-1.309-3.643-2.575c-1.281-1.311-2.607-2.666-4.214-3.1-1.672-.447-3.542.072-5.351.574-1.663.461-3.382.938-4.286.415-.932-.54-1.381-2.288-1.814-3.978-.462-1.8-.94-3.666-2.144-4.87s-3.067-1.681-4.87-2.144c-1.691-.434-3.439-.882-3.978-1.814-.523-.9-.046-2.624.415-4.287.5-1.809 1.021-3.679.574-5.351-.43-1.607-1.785-2.932-3.1-4.214-1.266-1.238-2.575-2.518-2.575-3.643s1.309-2.405 2.575-3.643c1.311-1.282 2.666-2.607 3.1-4.214.447-1.672-.072-3.542-.574-5.351-.461-1.663-.938-3.382-.415-4.286.539-.932 2.288-1.381 3.978-1.814 2.549-.654 4.963-1.422 6.086-4.026a1.283 1.283 0 0 0-2.355-1.015c-.774 1.8-2.657 2.119-4.368 2.558-2.2.565-4.482 1.15-5.561 3.014-1.063 1.837-.439 4.083.163 6.256.41 1.478.834 3.006.567 4-.248.928-1.347 2-2.411 3.043-1.569 1.534-3.346 3.272-3.346 5.476s1.778 3.943 3.346 5.476c1.063 1.04 2.163 2.115 2.411 3.043.267 1-.157 2.526-.567 4-.6 2.173-1.226 4.419-.163 6.256 1.079 1.865 3.357 2.449 5.561 3.014 1.468.377 2.986.766 3.693 1.473s1.1 2.225 1.473 3.694c.565 2.2 1.15 4.482 3.014 5.561 1.837 1.063 4.083.439 6.256-.163 1.478-.41 3.006-.834 4-.567.928.248 2 1.348 3.043 2.411 1.534 1.569 3.272 3.346 5.476 3.346s3.943-1.778 5.476-3.346c1.04-1.063 2.115-2.163 3.043-2.411 1-.266 2.526.157 4 .567 2.173.6 4.42 1.226 6.256.163 1.865-1.079 2.449-3.357 3.014-5.561.377-1.468.766-2.986 1.473-3.694s2.225-1.1 3.693-1.473c2.2-.565 4.482-1.15 5.561-3.014 1.063-1.837.439-4.083-.163-6.256-.41-1.478-.834-3.006-.567-4 .248-.928 1.347-2 2.411-3.043 1.569-1.534 3.346-3.272 3.346-5.476s-1.778-3.943-3.346-5.476z" transform="translate(-30.049 -29.995)"/><path id="Path_80" data-name="Path 80" d="M133.586 158.746a25.215 25.215 0 1 0-25.215-25.215 25.244 25.244 0 0 0 25.215 25.215zm0-47.866a22.651 22.651 0 1 1-22.651 22.651 22.677 22.677 0 0 1 22.651-22.651z" transform="translate(-89.855 -89.8)"/><path id="Path_81" data-name="Path 81" d="M185.935 208.119a3.47 3.47 0 0 0 4.86 0 1.283 1.283 0 0 0-1.813-1.813.873.873 0 0 1-1.234-1.234l17.385-17.385a.873.873 0 0 1 1.234 1.234l-13.707 13.707a1.283 1.283 0 0 0 1.813 1.813l13.707-13.707c3.119-3.12-1.736-7.984-4.86-4.86l-17.385 17.385a3.441 3.441 0 0 0 0 4.86z" transform="translate(-153.327 -153.265)"/><path id="Path_82" data-name="Path 82" d="M188.009 192.5a4.544 4.544 0 1 0-4.544-4.544 4.549 4.549 0 0 0 4.544 4.544zm0-6.524a1.98 1.98 0 1 1-1.98 1.98 1.982 1.982 0 0 1 1.98-1.981z" transform="translate(-152.112 -152.057)"/><path id="Path_83" data-name="Path 83" d="M279.661 275.062a4.544 4.544 0 1 0 4.544 4.544 4.549 4.549 0 0 0-4.544-4.544zm0 6.524a1.98 1.98 0 1 1 1.98-1.98 1.982 1.982 0 0 1-1.98 1.98z" transform="translate(-228.096 -228.041)"/><path id="Path_84" data-name="Path 84" d="M414.516 70.662a1.278 1.278 0 0 0 .907-.376l2.66-2.66a1.283 1.283 0 0 0-1.813-1.813l-2.66 2.66a1.313 1.313 0 0 0 .906 2.189z" transform="translate(-342.629 -54.248)"/><path id="Path_85" data-name="Path 85" d="M308.313 6.124a1.36 1.36 0 0 0 1.57-.907l.974-3.634A1.283 1.283 0 0 0 308.38.92l-.974 3.634a1.282 1.282 0 0 0 .907 1.57z" transform="translate(-254.829)"/><path id="Path_86" data-name="Path 86" d="M181.132 6.166a1.283 1.283 0 0 0 2.477-.664l-.974-3.634a1.283 1.283 0 0 0-2.477.664z" transform="translate(-149.329 -.787)"/><path id="Path_87" data-name="Path 87" d="M68.528 72.88a1.283 1.283 0 0 0 1.813-1.813l-2.66-2.66a1.283 1.283 0 0 0-1.813 1.813z" transform="translate(-54.303 -56.398)"/><path id="Path_88" data-name="Path 88" d="M.974 186.124l3.634.974a1.284 1.284 0 0 0 .664-2.477l-3.634-.974a1.283 1.283 0 0 0-.664 2.477z" transform="translate(-.055 -152.212)"/><path id="Path_89" data-name="Path 89" d="M5.7 310.867l-3.634.974a1.284 1.284 0 0 0 .664 2.477l3.634-.974a1.283 1.283 0 0 0-.664-2.477z" transform="translate(-.982 -257.684)"/><path id="Path_90" data-name="Path 90" d="M71.121 415.977l-2.661 2.66a1.283 1.283 0 0 0 1.813 1.813l2.66-2.66a1.283 1.283 0 0 0-1.812-1.813z" transform="translate(-56.452 -344.553)"/><path id="Path_91" data-name="Path 91" d="M186.257 475.6a1.282 1.282 0 0 0-1.57.907l-.974 3.634a1.283 1.283 0 0 0 2.477.664l.974-3.634a1.282 1.282 0 0 0-.906-1.57z" transform="translate(-152.278 -394.262)"/><path id="Path_92" data-name="Path 92" d="M313.4 475.711a1.283 1.283 0 0 0-2.477.664l.974 3.634a1.283 1.283 0 0 0 2.477-.664z" transform="translate(-257.739 -393.627)"/><path id="Path_93" data-name="Path 93" d="M417.845 413.384a1.283 1.283 0 0 0-1.813 1.813l2.66 2.66a1.283 1.283 0 0 0 1.813-1.813z" transform="translate(-344.608 -342.403)"/><path id="Path_94" data-name="Path 94" d="M481.012 308.3l-3.634-.974a1.283 1.283 0 0 0-.664 2.477l3.634.974a1.284 1.284 0 0 0 .664-2.477z" transform="translate(-394.468 -254.747)"/><path id="Path_95" data-name="Path 95" d="M476.074 183.6a1.285 1.285 0 0 0 .333-.044l3.634-.974a1.283 1.283 0 0 0-.664-2.477l-3.634.974a1.287 1.287 0 0 0 .331 2.521z" transform="translate(-393.66 -149.275)"/></g></svg>