<svg id="Component_23_1" data-name="Component 23 – 1" xmlns="http://www.w3.org/2000/svg" width="202.287" height="71.982"><ellipse id="Ellipse_3" data-name="Ellipse 3" cx="20.5" cy="20" rx="20.5" ry="20" transform="translate(14.638 22.982)" fill="#fab800"/><ellipse id="Ellipse_4" data-name="Ellipse 4" cx="20" cy="20.5" rx="20" ry="20.5" transform="translate(146.638 20.982)" fill="#fab800"/><g id="Group_28" data-name="Group 28"><path id="lamp_5_" data-name="lamp (5)" d="M1.173 46.906h4.69v2.345a1.173 1.173 0 0 0-1.172 1.173v2.345a4.686 4.686 0 0 0 3.517 4.524v3.684a7.036 7.036 0 1 0 14.071 0V50.424a2.345 2.345 0 1 1 4.69 0v8.208H25.8a1.173 1.173 0 0 0-1.176 1.168 10.553 10.553 0 1 0 21.106 0 1.173 1.173 0 0 0-1.172-1.173h-1.173v-8.203a2.345 2.345 0 1 1 4.69 0v10.553a7.036 7.036 0 1 0 14.071 0v-3.684a4.686 4.686 0 0 0 3.517-4.524v-2.345a1.173 1.173 0 0 0-1.172-1.173v-2.345h4.69a1.173 1.173 0 0 0 1.143-1.436l-3.518-15.244a1.173 1.173 0 0 0-1.143-.909h-9.38a1.173 1.173 0 0 0-1.143.909L51.623 45.47a1.172 1.172 0 0 0 1.143 1.436h4.69v2.345a1.173 1.173 0 0 0-1.173 1.173v2.345a4.686 4.686 0 0 0 3.517 4.524v3.684a4.69 4.69 0 0 1-9.38 0V50.424a4.69 4.69 0 1 0-9.381 0v8.208H39.7l-3.2-21.321a4.664 4.664 0 0 0-.157-9V15.247h5.863a3.521 3.521 0 0 0 3.517-3.518V9.384H46.9a8.218 8.218 0 0 0 8.208-8.208A1.173 1.173 0 0 0 53.938 0H16.416a1.172 1.172 0 0 0-1.172 1.172 8.217 8.217 0 0 0 8.208 8.208h1.173v2.345a3.522 3.522 0 0 0 3.517 3.518H34v13.069a4.664 4.664 0 0 0-.157 9l-3.2 21.321h-1.329v-8.209a4.69 4.69 0 1 0-9.38 0v10.553a4.69 4.69 0 0 1-9.381 0v-3.684a4.686 4.686 0 0 0 3.518-4.524v-2.345a1.173 1.173 0 0 0-1.171-1.173v-2.345h4.691a1.173 1.173 0 0 0 1.143-1.436l-3.52-15.244a1.173 1.173 0 0 0-1.143-.909h-9.38a1.173 1.173 0 0 0-1.143.909L.03 45.47a1.173 1.173 0 0 0 1.143 1.436zm56.043-15.243h7.515l2.977 12.9H54.239zM59.8 46.906h2.345v2.345H59.8zm-1.173 5.863V51.6h4.69v1.173a2.345 2.345 0 0 1-4.69 0zm-15.242-41.04a1.173 1.173 0 0 1-1.173 1.171H31.659V9.384h11.726zm-25.679-9.38h34.941a5.873 5.873 0 0 1-5.747 4.69H23.451a5.873 5.873 0 0 1-5.745-4.69zm9.263 9.38V9.384h2.345V12.9h-1.173a1.173 1.173 0 0 1-1.172-1.172zm8.208 56.283a8.22 8.22 0 0 1-8.124-7.036H43.3a8.221 8.221 0 0 1-8.123 7.036zm-2.345-35.176a2.345 2.345 0 1 1 2.345 2.345 2.345 2.345 0 0 1-2.345-2.345zm2.345 11.421l2.156 14.375H33.02zm-23.451 8.512a2.345 2.345 0 0 1-4.69 0V51.6h4.69zm-1.173-3.518H8.208v-2.345h2.345zm-4.93-17.588h7.515l2.977 12.9H2.647zm0 0" transform="translate(0 1.625)"/><g id="lamp_4_" data-name="lamp (4)" transform="translate(131.95)"><path id="Path_96" data-name="Path 96" d="M219.209 232.743a1.172 1.172 0 1 0 0-2.344 5.869 5.869 0 0 0-5.861 5.861 1.172 1.172 0 1 0 2.344 0 3.521 3.521 0 0 1 3.517-3.517zm0 0" transform="translate(-184.041 -198.748)"/><path id="Path_97" data-name="Path 97" d="M59.792 26.962A10.542 10.542 0 0 0 55.1 46.949v3.458a4.685 4.685 0 0 0 3.517 4.523v1.925a11.136 11.136 0 1 1-22.273 0v-1.926a4.685 4.685 0 0 0 3.516-4.523v-3.457a10.539 10.539 0 0 0-3.516-19.918V15.24h5.861a3.521 3.521 0 0 0 3.516-3.517V9.378H46.9a8.214 8.214 0 0 0 8.2-8.205A1.172 1.172 0 0 0 53.931 0H16.419a1.172 1.172 0 0 0-1.172 1.172 8.215 8.215 0 0 0 8.206 8.205h1.172v2.344a3.52 3.52 0 0 0 3.516 3.517H34v11.793a10.539 10.539 0 0 0-3.517 19.918v3.458A4.685 4.685 0 0 0 34 54.929v1.925a11.136 11.136 0 1 1-22.273 0v-1.925a4.685 4.685 0 0 0 3.516-4.523v-3.457a10.55 10.55 0 1 0-9.378 0v3.458a4.685 4.685 0 0 0 3.517 4.523v1.925a13.474 13.474 0 0 0 25.789 5.473 13.474 13.474 0 0 0 25.79-5.473v-1.926a4.685 4.685 0 0 0 3.517-4.523v-3.457a10.542 10.542 0 0 0-4.689-19.987zM43.38 11.723a1.174 1.174 0 0 1-1.172 1.177h-10.55V9.378H43.38zM17.709 2.345h34.932A5.871 5.871 0 0 1 46.9 7.034H23.452a5.871 5.871 0 0 1-5.743-4.689zm9.26 9.378V9.378h2.344V12.9h-1.172a1.174 1.174 0 0 1-1.172-1.172zM2.352 37.512a8.206 8.206 0 1 1 11.274 7.6h-.012a8.129 8.129 0 0 1-6.113 0h-.012a8.214 8.214 0 0 1-5.138-7.6zm5.861 12.895V47.79a10.237 10.237 0 0 0 4.689 0v2.617a2.344 2.344 0 1 1-4.689 0zm18.756-12.895a8.206 8.206 0 1 1 11.274 7.6h-.012a8.129 8.129 0 0 1-6.113 0h-.012a8.213 8.213 0 0 1-5.138-7.6zm5.861 12.895V47.79a10.237 10.237 0 0 0 4.689 0v2.617a2.344 2.344 0 0 1-4.689 0zm29.306 0a2.345 2.345 0 0 1-4.689 0V47.79a10.24 10.24 0 0 0 4.689 0zm.723-5.29h-.012a8.129 8.129 0 0 1-6.113 0h-.011a8.206 8.206 0 1 1 6.136 0zm0 0" transform="translate(-.006)"/><path id="Path_98" data-name="Path 98" d="M398.408 230.4a5.869 5.869 0 0 0-5.861 5.861 1.172 1.172 0 1 0 2.344 0 3.521 3.521 0 0 1 3.517-3.517 1.172 1.172 0 0 0 0-2.344zm0 0" transform="translate(-338.623 -198.748)"/><path id="Path_99" data-name="Path 99" d="M40.006 232.743a1.172 1.172 0 1 0 0-2.344 5.869 5.869 0 0 0-5.861 5.861 1.172 1.172 0 1 0 2.345 0 3.52 3.52 0 0 1 3.516-3.517zm0 0" transform="translate(-29.455 -198.748)"/></g><path id="Line_4" data-name="Line 4" fill="none" stroke="#000" stroke-width="3" d="M115.74 7.634L94.375 60.225"/></g></svg>