<svg id="Component_24_1" data-name="Component 24 – 1" xmlns="http://www.w3.org/2000/svg" width="95.593" height="93.086"><path id="Polygon_1" data-name="Polygon 1" d="M27 0l27 47H0z" transform="translate(12.987 28.293)" fill="#fab800"/><g id="interior-design"><path id="Path_75" data-name="Path 75" d="M224.833 250.536a8.074 8.074 0 0 0-3.531.638v-7.09a3.849 3.849 0 0 0-3.835-3.855h-35.278a3.849 3.849 0 0 0-3.835 3.855v7.09a8.072 8.072 0 0 0-3.531-.638 7.768 7.768 0 0 0-1.129 15.407v21.422a2.475 2.475 0 0 0 2.472 2.472h4.481a2.475 2.475 0 0 0 2.472-2.47v-4.6h33.413v4.6a2.475 2.475 0 0 0 2.472 2.47h4.481a2.475 2.475 0 0 0 2.472-2.472v-21.423a7.768 7.768 0 0 0-1.129-15.407zm-44.148-6.452a1.515 1.515 0 0 1 1.5-1.523h35.279a1.515 1.515 0 0 1 1.5 1.523v8.606l-.058.053a7.628 7.628 0 0 0-2.4 5.558v.14c0 .148 0 .313.007.482v6.037a63.483 63.483 0 0 0-10.149-1.89l2.149-5.918a1.166 1.166 0 1 0-2.191-.8l-2.365 6.512a63.322 63.322 0 0 0-7.689-.031l-2.992-6.427a1.166 1.166 0 1 0-2.114.984l2.623 5.634a63.989 63.989 0 0 0-10.661 1.953v-6.059c.011-.168.009-.333.007-.481v-.137a7.628 7.628 0 0 0-2.4-5.558l-.058-.052zm2.447 23.317a61.622 61.622 0 0 1 12.369-2.177h.061a1.16 1.16 0 0 0 .222-.023 61.06 61.06 0 0 1 20.741 2.174l.006 8.657h-33.4zm-2.485 20.1h-4.481a.14.14 0 0 1-.14-.14V265.4a1.7 1.7 0 0 0-1.5-1.69 5.44 5.44 0 0 1 .406-10.849q.132-.006.262-.006a5.741 5.741 0 0 1 3.406 1.122 1.17 1.17 0 0 0 .408.332l.127.115a5.317 5.317 0 0 1 1.678 3.872v.582l-.012 18.322v10.16a.14.14 0 0 1-.141.141zm2.477-7.075v-2.063h33.407v2.063zm42.009-16.717a1.7 1.7 0 0 0-1.5 1.69v21.961a.14.14 0 0 1-.14.141h-4.483a.141.141 0 0 1-.141-.14l-.014-20.871v-.011l-.005-7.6v-.1c-.006-.075 0-.2 0-.311v-.171a5.317 5.317 0 0 1 1.679-3.872c.041-.039.085-.078.127-.115a1.169 1.169 0 0 0 .408-.332 5.741 5.741 0 0 1 3.405-1.122q.131 0 .263.006a5.44 5.44 0 0 1 .406 10.849z" transform="translate(-136.75 -196.75)"/><path id="Path_76" data-name="Path 76" d="M46.208 47.875a4.281 4.281 0 0 0 8.32 0h1.492v1.267a1.166 1.166 0 0 0 1.166 1.166h33.02a1.166 1.166 0 0 0 1.166-1.166v-25.8a1.166 1.166 0 0 0-1.166-1.166h-33.02a1.166 1.166 0 0 0-1.166 1.166v12.974a10.209 10.209 0 0 0-4.73-1.738c-.535-10.089-8.539-18.126-18.3-18.126-10.074 0-18.274 8.558-18.328 19.1v71.656h-3.496a1.166 1.166 0 1 0 0 2.332H21.7a1.166 1.166 0 1 0 0-2.332h-4.711V35.654c0-9.3 7.177-16.871 16-16.871 8.481 0 15.44 7 15.965 15.8A10.287 10.287 0 0 0 39.8 44.8v1.913a1.166 1.166 0 0 0 1.166 1.166zm4.16.939a1.96 1.96 0 0 1-1.641-.939h3.283a1.961 1.961 0 0 1-1.642.938zm7.984-.939h.986a1.166 1.166 0 0 0 1.162-1.166v-.483l5.844-5.779 7.076 7.53H58.352zm18.271.1l-.178-.19 5.5-4.637 5.155 4.828zM89.04 24.5v22.1l-6.254-5.857a1.166 1.166 0 0 0-1.548-.041l-6.392 5.386-7.618-8.106a1.165 1.165 0 0 0-.828-.367 1.14 1.14 0 0 0-.841.337l-5.2 5.142a10.224 10.224 0 0 0-2.007-4.573V24.505zM42.136 44.8a7.951 7.951 0 0 1 7.942-7.942h.153a7.951 7.951 0 0 1 7.942 7.942v.581a1.119 1.119 0 0 0-.053.167H42.136z" transform="translate(-10 -16.452)"/><path id="Path_77" data-name="Path 77" d="M189.645 132.719a1.166 1.166 0 0 0-1.625-.277 10.356 10.356 0 0 0-2.694 2.8 1.166 1.166 0 1 0 1.953 1.274 8.031 8.031 0 0 1 2.09-2.172 1.166 1.166 0 0 0 .277-1.625z" transform="translate(-151.108 -109.733)"/><path id="Path_78" data-name="Path 78" d="M323.625 97.636a4.1 4.1 0 1 0-4.1-4.1 4.1 4.1 0 0 0 4.1 4.1zm0-5.878a1.773 1.773 0 1 1-1.773 1.773 1.773 1.773 0 0 1 1.773-1.773z" transform="translate(-259.382 -75.248)"/></g></svg>