<svg xmlns="http://www.w3.org/2000/svg" width="80" height="80"><defs><clipPath id="clip-path"><path id="Rectangle_137" data-name="Rectangle 137" transform="translate(560 413)" fill="#cecece" d="M0 0h80v80H0z"/></clipPath></defs><g id="Mask_Group_63" data-name="Mask Group 63" transform="translate(-560 -413)" clip-path="url(#clip-path)"><g id="wall-clock_1_" data-name="wall-clock (1)" transform="translate(560 413)"><g id="Group_141" data-name="Group 141"><g id="Group_140" data-name="Group 140"><path id="Path_224" data-name="Path 224" d="M40 0a40 40 0 1 0 40 40A40.046 40.046 0 0 0 40 0zm0 76.522A36.522 36.522 0 1 1 76.522 40 36.562 36.562 0 0 1 40 76.522z"/></g></g><g id="Group_143" data-name="Group 143" transform="translate(0 -4.426)"><g id="Group_142" data-name="Group 142" transform="translate(38.261 14.913)"><path id="Path_225" data-name="Path 225" d="M40 13.913a1.833 1.833 0 0 0-1.739 1.913v22.949a1.747 1.747 0 1 0 3.478 0v-22.95A1.833 1.833 0 0 0 40 13.913z" transform="translate(-38.261 -13.913)"/></g></g><g id="Group_145" data-name="Group 145"><g id="Group_144" data-name="Group 144"><path id="Path_226" data-name="Path 226" d="M78.261 38.261h-3.478a1.739 1.739 0 1 0 0 3.478h3.478a1.739 1.739 0 1 0 0-3.478z"/></g></g><g id="Group_147" data-name="Group 147"><g id="Group_146" data-name="Group 146"><path id="Path_227" data-name="Path 227" d="M40 0a1.74 1.74 0 0 0-1.739 1.739v3.478a1.739 1.739 0 0 0 3.478 0V1.739A1.74 1.74 0 0 0 40 0z"/></g></g><g id="Group_149" data-name="Group 149"><g id="Group_148" data-name="Group 148"><path id="Path_228" data-name="Path 228" d="M5.217 38.261H1.739a1.739 1.739 0 1 0 0 3.478h3.478a1.739 1.739 0 1 0 0-3.478z"/></g></g><g id="Group_151" data-name="Group 151"><g id="Group_150" data-name="Group 150"><path id="Path_229" data-name="Path 229" d="M40 73.043a1.74 1.74 0 0 0-1.739 1.739v3.478a1.739 1.739 0 0 0 3.478 0v-3.477A1.74 1.74 0 0 0 40 73.043z"/></g></g><g id="Group_153" data-name="Group 153"><g id="Group_152" data-name="Group 152"><path id="Path_230" data-name="Path 230" d="M40 34.783A5.217 5.217 0 1 0 45.217 40 5.224 5.224 0 0 0 40 34.783zm0 6.957A1.739 1.739 0 1 1 41.739 40 1.742 1.742 0 0 1 40 41.739z"/></g></g><g id="Group_155" data-name="Group 155"><g id="Group_154" data-name="Group 154" transform="rotate(-72 40.059 40.32)"><path id="Path_231" data-name="Path 231" d="M55.141 52.685L44.706 42.25a1.739 1.739 0 1 0-2.459 2.459l10.435 10.435a1.739 1.739 0 1 0 2.459-2.459z"/></g></g></g></g></svg>