<svg xmlns="http://www.w3.org/2000/svg" width="50" height="50"><defs><clipPath id="clip-path"><path id="Rectangle_136" data-name="Rectangle 136" transform="translate(349 860)" fill="#6b6b6b" d="M0 0h50v50H0z"/></clipPath></defs><g id="Mask_Group_65" data-name="Mask Group 65" transform="translate(-349 -860)" clip-path="url(#clip-path)"><g id="credit-card_5_" data-name="credit-card (5)" transform="translate(349 860)"><g id="Group_164" data-name="Group 164"><g id="Group_163" data-name="Group 163"><path id="Path_234" data-name="Path 234" d="M35.484 36.586a4.888 4.888 0 0 0-6.871-.033 4.881 4.881 0 1 0 0 6.972 4.882 4.882 0 0 0 6.871-6.939zm-8.908 4.834a1.952 1.952 0 1 1 0-2.762 1.955 1.955 0 0 1 0 2.762zm6.836 0a1.952 1.952 0 1 1 0-2.762 1.955 1.955 0 0 1 0 2.762z"/></g></g><g id="Group_166" data-name="Group 166"><g id="Group_165" data-name="Group 165"><path id="Rectangle_138" data-name="Rectangle 138" transform="translate(28.32 28.516)" d="M0 0h7.813v2.93H0z"/></g></g><g id="Group_168" data-name="Group 168"><g id="Group_167" data-name="Group 167"><path id="Rectangle_139" data-name="Rectangle 139" transform="translate(6.738 28.516)" d="M0 0h17.383v2.93H0z"/></g></g><g id="Group_170" data-name="Group 170"><g id="Group_169" data-name="Group 169"><path id="Path_235" data-name="Path 235" d="M49 16.874L33.106 1a3.426 3.426 0 0 0-4.836 0L8.546 20.7H3.418A3.422 3.422 0 0 0 0 24.121v22.461A3.422 3.422 0 0 0 3.418 50h35.156a3.422 3.422 0 0 0 3.418-3.418V28.707l7.005-7a3.416 3.416 0 0 0 0-4.835zM30.341 3.072a.492.492 0 0 1 .695 0l3.108 3.1L19.6 20.7h-6.909zm8.722 43.51a.489.489 0 0 1-.488.488H3.418a.489.489 0 0 1-.488-.488V24.121a.489.489 0 0 1 .488-.488h35.156a.489.489 0 0 1 .488.488zm7.865-26.945l-4.935 4.93v-.445a3.422 3.422 0 0 0-3.419-3.422H23.747L36.216 8.247l10.711 10.7a.487.487 0 0 1 0 .689z"/></g></g></g></g></svg>